<svg width="83" height="82" viewBox="0 0 83 82" fill="none" xmlns="http://www.w3.org/2000/svg">
<path d="M35.5931 64.4473H38.1387V78.4577H35.5931V64.4473ZM70.5857 21.2355L74.0588 19.1386L70.5873 17.0448L73.1329 13.8946L69.1554 13.1182L70.4679 9.28072L66.4602 9.91712L66.387 5.86164L62.8423 7.81699L61.3817 4.0304L58.7247 7.09149L56.055 4.0304L54.5881 7.81699L51.0402 5.85846L50.967 9.91394L46.9592 9.27753L48.2718 13.115L44.2943 13.8915L46.8399 17.0416L43.3667 19.1386L46.8399 21.2292H52.1555L56.8155 33.3749L58.7247 31.1857L61.3881 34.2468L62.847 30.4666L66.395 32.4251L66.4682 28.3696L70.4759 29.006L69.1585 25.159L73.1361 24.3825L70.5857 21.2355ZM30.0866 28.6035H15.6085L20.5406 41.4668H35.0187L30.0866 28.6035ZM47.3093 28.6035H32.8311L37.7537 41.4668H52.2318L47.3093 28.6035ZM36.0433 44.1031H21.5652L26.4878 56.9664H40.9659L36.0433 44.1031ZM53.266 44.1031H38.7878L43.7104 56.9664H58.1886L53.266 44.1031ZM65.0219 61.9017H23.3026L8.70508 23.7748H50.4054L65.0219 61.9017ZM61.8892 59.5151L54.9986 41.5575L49.0673 26.0579H11.9141L24.717 59.512H61.8956L61.8892 59.5151Z" fill="#33A083"/>
</svg>
