<svg width="59" height="60" viewBox="0 0 59 60" fill="none" xmlns="http://www.w3.org/2000/svg">
<path d="M14.8955 11.1253C14.8955 10.7368 15.0498 10.3642 15.3245 10.0895C15.5993 9.81479 15.9718 9.66046 16.3603 9.66046H25.1494C25.5379 9.66046 25.9105 9.81479 26.1852 10.0895C26.4599 10.3642 26.6142 10.7368 26.6142 11.1253V19.9144C26.6142 20.3029 26.4599 20.6754 26.1852 20.9502C25.9105 21.2249 25.5379 21.3792 25.1494 21.3792H16.3603C15.9718 21.3792 15.5993 21.2249 15.3245 20.9502C15.0498 20.6754 14.8955 20.3029 14.8955 19.9144V11.1253ZM33.9384 9.66046C33.5499 9.66046 33.1774 9.81479 32.9026 10.0895C32.6279 10.3642 32.4736 10.7368 32.4736 11.1253V19.9144C32.4736 20.3029 32.6279 20.6754 32.9026 20.9502C33.1774 21.2249 33.5499 21.3792 33.9384 21.3792H42.7275C43.116 21.3792 43.4886 21.2249 43.7633 20.9502C44.038 20.6754 44.1923 20.3029 44.1923 19.9144V11.1253C44.1923 10.7368 44.038 10.3642 43.7633 10.0895C43.4886 9.81479 43.116 9.66046 42.7275 9.66046H33.9384ZM35.4033 18.4495V12.5901H41.2627V18.4495H35.4033ZM17.8252 24.3089C14.7172 24.3089 11.7365 25.5435 9.53878 27.7412C7.34109 29.9389 6.10645 32.9196 6.10645 36.0276C6.10645 39.1356 7.34109 42.1163 9.53878 44.314C11.7365 46.5117 14.7172 47.7464 17.8252 47.7464H27.2207C26.817 46.3165 26.613 44.8376 26.6142 43.3518C26.6142 41.5179 26.9219 39.7542 27.4844 38.1106C27.0284 37.6609 26.7324 37.0742 26.6416 36.4402C26.5508 35.8063 26.6702 35.16 26.9816 34.6004C27.293 34.0408 27.7792 33.5986 28.3657 33.3415C28.9523 33.0845 29.6069 33.0267 30.2295 33.177C31.7395 31.3195 33.6451 29.8225 35.8072 28.7951C37.9694 27.7677 40.3337 27.236 42.7275 27.2386C45.7597 27.2386 48.5957 28.0765 51.0185 29.5325C49.9492 27.9248 48.4989 26.6066 46.7968 25.6952C45.0946 24.7838 43.1935 24.3076 41.2627 24.3089H17.8252ZM17.8252 38.9573C17.0482 38.9573 16.303 38.6486 15.7536 38.0992C15.2042 37.5498 14.8955 36.8046 14.8955 36.0276C14.8955 35.2506 15.2042 34.5054 15.7536 33.956C16.303 33.4066 17.0482 33.0979 17.8252 33.0979C18.6022 33.0979 19.3474 33.4066 19.8968 33.956C20.4462 34.5054 20.7549 35.2506 20.7549 36.0276C20.7549 36.8046 20.4462 37.5498 19.8968 38.0992C19.3474 38.6486 18.6022 38.9573 17.8252 38.9573ZM55.9111 43.3518C55.9111 46.8483 54.5221 50.2016 52.0497 52.674C49.5773 55.1464 46.224 56.5354 42.7275 56.5354C39.231 56.5354 35.8777 55.1464 33.4053 52.674C30.9329 50.2016 29.5439 46.8483 29.5439 43.3518C29.5439 39.8553 30.9329 36.502 33.4053 34.0296C35.8777 31.5572 39.231 30.1683 42.7275 30.1683C46.224 30.1683 49.5773 31.5572 52.0497 34.0296C54.5221 36.502 55.9111 39.8553 55.9111 43.3518ZM47.5498 37.9202L39.7978 45.6751L37.9052 43.7796C37.6302 43.5045 37.2571 43.35 36.8681 43.35C36.4791 43.35 36.1061 43.5045 35.831 43.7796C35.556 44.0546 35.4014 44.4277 35.4014 44.8167C35.4014 45.2057 35.556 45.5787 35.831 45.8538L38.7607 48.7835C38.8968 48.9199 39.0584 49.0281 39.2364 49.102C39.4144 49.1758 39.6051 49.2138 39.7978 49.2138C39.9905 49.2138 40.1813 49.1758 40.3592 49.102C40.5372 49.0281 40.6989 48.9199 40.8349 48.7835L49.624 39.9944C49.899 39.7194 50.0536 39.3463 50.0536 38.9573C50.0536 38.5683 49.899 38.1953 49.624 37.9202C49.3489 37.6451 48.9759 37.4906 48.5869 37.4906C48.1979 37.4906 47.8248 37.6451 47.5498 37.9202Z" fill="#33A083"/>
</svg>
