<svg width="81" height="35" viewBox="0 0 81 35" fill="none" xmlns="http://www.w3.org/2000/svg">
<path d="M17.7913 29.6143H0.0579178V27.4272C0.0579178 26.5339 0.182708 25.6998 0.432289 24.9248C0.681869 24.1367 1.01683 23.401 1.43718 22.718C1.85752 22.0218 2.35012 21.3716 2.91496 20.7673C3.4798 20.1499 4.08404 19.5588 4.7277 18.994C5.37135 18.416 6.02815 17.8643 6.69807 17.3389C7.368 16.8003 8.02479 16.2617 8.66844 15.7232C9.27269 15.2109 9.8244 14.7117 10.3236 14.2257C10.8227 13.7265 11.2496 13.2142 11.6043 12.6888C11.959 12.1634 12.2348 11.6117 12.4319 11.0337C12.6289 10.4426 12.7274 9.80548 12.7274 9.12242C12.7274 8.37368 12.6092 7.72345 12.3727 7.17175C12.1494 6.60691 11.8276 6.14059 11.4073 5.77279C11.0001 5.39185 10.514 5.10943 9.94919 4.92553C9.38435 4.72849 8.76696 4.62997 8.09704 4.62997C6.94108 4.62997 5.76543 4.89925 4.57007 5.43782C3.37471 5.97639 2.22533 6.78424 1.12192 7.86138V3.46745C1.69989 3.03397 2.28444 2.6596 2.87555 2.34434C3.46666 2.01594 4.07748 1.74666 4.708 1.53649C5.33852 1.31318 6.00187 1.14898 6.69807 1.04389C7.39427 0.938805 8.13644 0.886262 8.92459 0.886262C10.1988 0.886262 11.3547 1.05703 12.3924 1.39856C13.4302 1.72695 14.3168 2.21955 15.0525 2.87634C15.7881 3.51999 16.3529 4.32785 16.747 5.2999C17.1542 6.27195 17.3578 7.38849 17.3578 8.64953C17.3578 9.79234 17.2133 10.8235 16.9243 11.743C16.6485 12.6494 16.2478 13.4966 15.7224 14.2848C15.2101 15.0729 14.5861 15.8217 13.8505 16.531C13.1149 17.2404 12.2939 17.9694 11.3876 18.7181C10.6257 19.3355 9.8638 19.9398 9.10193 20.5309C8.35318 21.1088 7.67669 21.6803 7.07244 22.2451C6.4682 22.7968 5.9756 23.3551 5.59466 23.9199C5.22686 24.4716 5.04296 25.0299 5.04296 25.5947V25.6932H17.7913V29.6143ZM38.7954 1.35915V19.6048H42.9923V23.4076H38.7954V29.6143H34.3621V23.4076H21.5744V19.5654C22.7303 18.2649 23.9126 16.8594 25.1211 15.3488C26.3427 13.825 27.5118 12.275 28.6283 10.6987C29.758 9.10928 30.8023 7.51985 31.7612 5.93041C32.7201 4.34098 33.528 2.81723 34.1848 1.35915H38.7954ZM34.3621 19.6048V7.74316C32.9303 10.3178 31.5116 12.564 30.1061 14.4818C28.7137 16.3997 27.4067 18.1073 26.1851 19.6048H34.3621ZM60.8833 1.35915L47.2286 34.3038H43.0711L56.6667 1.35915H60.8833ZM80.7644 3.64478C79.5821 5.81219 78.4656 7.9599 77.4147 10.0879C76.3639 12.2028 75.4115 14.3308 74.5577 16.4719C73.7039 18.613 72.9617 20.7739 72.3312 22.9544C71.7006 25.1218 71.2146 27.3418 70.8731 29.6143H66.0851C66.4003 27.5914 66.847 25.575 67.4249 23.5652C68.0161 21.5423 68.7057 19.526 69.4938 17.5162C70.282 15.4933 71.1621 13.4638 72.1341 11.4278C73.1193 9.3917 74.1636 7.33595 75.267 5.26049H61.8882V1.35915H80.7644V3.64478Z" fill="#33A083"/>
</svg>
