<svg width="24" height="24" viewBox="0 0 24 24" fill="none" xmlns="http://www.w3.org/2000/svg">
<path d="M12 1.05176L24 5.85176V7.45175H22.4C22.4 7.66842 22.3146 7.85592 22.1438 8.01425C21.9729 8.17259 21.7708 8.25176 21.5375 8.25176H2.4625C2.22917 8.25176 2.02708 8.17259 1.85625 8.01425C1.68542 7.85592 1.6 7.66842 1.6 7.45175H0V5.85176L12 1.05176ZM3.2 9.05175H6.4V18.6518H8V9.05175H11.2V18.6518H12.8V9.05175H16V18.6518H17.6V9.05175H20.8V18.6518H21.5375C21.7708 18.6518 21.9729 18.7309 22.1438 18.8892C22.3146 19.0476 22.4 19.2351 22.4 19.4517V20.2518H1.6V19.4517C1.6 19.2351 1.68542 19.0476 1.85625 18.8892C2.02708 18.7309 2.22917 18.6518 2.4625 18.6518H3.2V9.05175ZM23.1375 21.0518C23.3708 21.0518 23.5729 21.1309 23.7438 21.2892C23.9146 21.4476 24 21.6351 24 21.8517V23.4518H0V21.8517C0 21.6351 0.0854152 21.4476 0.256246 21.2892C0.427085 21.1309 0.62917 21.0518 0.8625 21.0518H23.1375Z" fill="#33A083"/>
</svg>
