<svg width="800" height="800" viewBox="0 0 970 1021" fill="none" xmlns="http://www.w3.org/2000/svg">
<g filter="url(#filter0_f_479_138)">
<ellipse cx="444.5" cy="510.5" rx="103.5" ry="88.5" fill="#D9D9D9"/>
</g>
<g filter="url(#filter1_d_479_138)">
<path d="M259.326 315.057C260.618 310.862 264.494 308 268.883 308H595.986C600.437 308 604.352 310.941 605.591 315.216L642.925 444.019C643.304 445.326 643.412 446.696 643.242 448.047L604.597 756.244C603.97 761.247 599.716 765 594.675 765H270.255C265.243 765 261.005 761.289 260.343 756.321L219.288 448.171C219.098 446.741 219.219 445.286 219.644 443.907L259.326 315.057Z" fill="#C5C5C5"/>
<path d="M245.946 310.936L259.326 315.057L245.946 310.936L206.264 439.786L219.636 443.905L206.264 439.786C205.244 443.096 204.954 446.587 205.411 450.02L246.465 758.169C248.054 770.094 258.225 779 270.255 779H594.675C606.775 779 616.983 769.992 618.488 757.986L657.134 449.789L643.242 448.047L657.134 449.789C657.54 446.548 657.281 443.258 656.371 440.121L619.037 311.318C616.063 301.059 606.667 294 595.986 294H268.883C258.349 294 249.046 300.869 245.946 310.936Z" stroke="#CDCDCD" stroke-width="28"/>
</g>
<path d="M592.76 320.638L628.999 453L606.499 638L398.499 524.5L268.498 320.639L592.76 320.638Z" fill="#D9D9D9"/>
<path d="M469.339 548.478H464.945V534.273H489.865V548.478H485.471V539.008H469.339V548.478Z" fill="#33A083"/>
<path d="M485.93 529.605H468.88C467.77 529.32 466.756 528.729 465.947 527.895C465.138 527.06 464.565 526.015 464.289 524.87H490.521C490.245 526.015 489.672 527.06 488.863 527.895C488.054 528.729 487.04 529.32 485.93 529.605Z" fill="#33A083"/>
<path d="M395.624 524.944L400.017 524.869L400.389 546.898L386.851 549.903L375.472 547.318L375.1 525.29L379.493 525.216L380.311 541.773L387.519 544.086L395.588 541.744L395.624 524.944Z" fill="#33A083"/>
<path d="M406.094 524.489H411.065L426.339 532.487V524.489H431.31V549H426.339V537.756L411.065 529.805V549H406.094V524.489Z" fill="#33A083"/>
<path d="M437.603 524.489H450.525C452.407 524.489 454.038 524.693 455.418 525.101C456.798 525.509 457.943 526.099 458.852 526.873C459.762 527.636 460.436 528.572 460.875 529.68C461.325 530.788 461.55 532.038 461.55 533.428C461.55 534.735 461.33 535.942 460.891 537.05C460.452 538.159 459.778 539.12 458.868 539.936C457.969 540.741 456.829 541.373 455.449 541.833C454.069 542.283 452.438 542.508 450.557 542.508L442.575 542.492V549H437.603V524.489ZM450.651 538.195C451.592 538.195 452.412 538.085 453.113 537.866C453.824 537.636 454.414 537.317 454.885 536.909C455.366 536.491 455.721 535.989 455.951 535.404C456.192 534.808 456.312 534.149 456.312 533.428C456.312 531.975 455.836 530.846 454.885 530.041C453.944 529.225 452.533 528.818 450.651 528.818H442.575V538.195H450.651Z" fill="#33A083"/>
<path d="M345.625 541.708C346.514 542.21 347.413 542.665 348.322 543.072C349.242 543.47 350.194 543.809 351.177 544.092C352.159 544.363 353.189 544.573 354.266 544.719C355.353 544.865 356.508 544.938 357.732 544.938C359.206 544.938 360.46 544.844 361.495 544.656C362.53 544.458 363.372 544.191 364.02 543.856C364.679 543.511 365.154 543.104 365.447 542.633C365.75 542.163 365.902 541.65 365.902 541.096C365.902 540.208 365.531 539.507 364.788 538.995C364.046 538.472 362.901 538.211 361.354 538.211C360.674 538.211 359.958 538.258 359.206 538.352C358.453 538.436 357.69 538.53 356.916 538.634C356.153 538.739 355.395 538.838 354.642 538.932C353.9 539.016 353.199 539.058 352.541 539.058C351.443 539.058 350.387 538.917 349.373 538.634C348.369 538.352 347.476 537.929 346.692 537.364C345.918 536.8 345.301 536.094 344.841 535.247C344.381 534.4 344.151 533.412 344.151 532.283C344.151 531.614 344.24 530.95 344.418 530.292C344.606 529.633 344.899 529.006 345.296 528.41C345.704 527.803 346.226 527.244 346.864 526.732C347.502 526.209 348.27 525.76 349.169 525.383C350.079 525.007 351.124 524.714 352.306 524.505C353.497 524.285 354.851 524.176 356.367 524.176C357.465 524.176 358.568 524.238 359.676 524.364C360.784 524.479 361.861 524.646 362.907 524.866C363.962 525.085 364.977 525.352 365.949 525.665C366.921 525.969 367.825 526.308 368.662 526.685L366.482 530.699C365.792 530.396 365.05 530.119 364.255 529.868C363.461 529.607 362.629 529.382 361.762 529.194C360.894 529.006 359.995 528.859 359.064 528.755C358.144 528.64 357.204 528.582 356.242 528.582C354.872 528.582 353.743 528.682 352.854 528.88C351.976 529.079 351.276 529.335 350.753 529.649C350.23 529.952 349.864 530.297 349.655 530.684C349.457 531.06 349.357 531.436 349.357 531.813C349.357 532.545 349.687 533.146 350.345 533.616C351.004 534.076 352.008 534.306 353.356 534.306C353.9 534.306 354.522 534.27 355.222 534.196C355.933 534.113 356.676 534.024 357.449 533.93C358.233 533.836 359.028 533.752 359.833 533.679C360.648 533.595 361.438 533.553 362.201 533.553C363.644 533.553 364.919 533.715 366.027 534.04C367.146 534.364 368.081 534.829 368.834 535.435C369.587 536.031 370.157 536.758 370.544 537.615C370.93 538.462 371.124 539.413 371.124 540.469C371.124 541.88 370.794 543.14 370.136 544.248C369.488 545.346 368.557 546.277 367.344 547.04C366.142 547.793 364.689 548.368 362.985 548.765C361.281 549.152 359.383 549.345 357.292 549.345C355.912 549.345 354.564 549.256 353.247 549.078C351.929 548.911 350.664 548.671 349.452 548.357C348.249 548.033 347.099 547.651 346.002 547.212C344.914 546.763 343.905 546.271 342.975 545.738L345.625 541.708Z" fill="#33A083"/>
<path d="M493.824 536.596C493.824 534.85 494.153 533.224 494.812 531.719C495.47 530.203 496.422 528.891 497.666 527.783C498.92 526.664 500.447 525.786 502.245 525.148C504.053 524.51 506.097 524.191 508.376 524.191C510.373 524.191 512.203 524.395 513.865 524.803C515.538 525.2 517.09 525.812 518.522 526.638L516.233 530.401C515.804 530.119 515.308 529.868 514.743 529.649C514.189 529.429 513.593 529.246 512.955 529.1C512.328 528.943 511.675 528.823 510.995 528.739C510.326 528.655 509.662 528.614 509.004 528.614C507.415 528.614 505.998 528.812 504.754 529.21C503.51 529.596 502.459 530.145 501.602 530.856C500.755 531.557 500.107 532.398 499.657 533.381C499.218 534.353 498.999 535.425 498.999 536.596C498.999 537.808 499.229 538.922 499.689 539.936C500.149 540.95 500.812 541.828 501.68 542.57C502.558 543.302 503.625 543.877 504.879 544.295C506.144 544.703 507.571 544.907 509.16 544.907C509.882 544.907 510.598 544.855 511.309 544.75C512.02 544.646 512.705 544.505 513.363 544.327C514.032 544.139 514.675 543.919 515.292 543.668C515.909 543.407 516.484 543.125 517.017 542.821L519.307 546.585C517.968 547.442 516.421 548.117 514.665 548.608C512.908 549.089 511.042 549.329 509.066 549.329C506.547 549.329 504.336 549.005 502.433 548.357C500.53 547.698 498.941 546.799 497.666 545.66C496.39 544.51 495.428 543.161 494.78 541.614C494.142 540.056 493.824 538.383 493.824 536.596Z" fill="#33A083"/>
<defs>
<filter id="filter0_f_479_138" x="-80.782" y="0.218018" width="1050.56" height="1020.56" filterUnits="userSpaceOnUse" color-interpolation-filters="sRGB">
<feFlood flood-opacity="0" result="BackgroundImageFix"/>
<feBlend mode="normal" in="SourceGraphic" in2="BackgroundImageFix" result="shape"/>
<feGaussianBlur stdDeviation="210.891" result="effect1_foregroundBlur_479_138"/>
</filter>
<filter id="filter1_d_479_138" x="191.2" y="280" width="493.52" height="535.4" filterUnits="userSpaceOnUse" color-interpolation-filters="sRGB">
<feFlood flood-opacity="0" result="BackgroundImageFix"/>
<feColorMatrix in="SourceAlpha" type="matrix" values="0 0 0 0 0 0 0 0 0 0 0 0 0 0 0 0 0 0 127 0" result="hardAlpha"/>
<feOffset dx="10" dy="19"/>
<feGaussianBlur stdDeviation="1.7"/>
<feComposite in2="hardAlpha" operator="out"/>
<feColorMatrix type="matrix" values="0 0 0 0 0.698333 0 0 0 0 0.698333 0 0 0 0 0.698333 0 0 0 0.25 0"/>
<feBlend mode="normal" in2="BackgroundImageFix" result="effect1_dropShadow_479_138"/>
<feBlend mode="normal" in="SourceGraphic" in2="effect1_dropShadow_479_138" result="shape"/>
</filter>
</defs>
</svg>
