<svg width="56" height="55" viewBox="0 0 56 55" fill="none" xmlns="http://www.w3.org/2000/svg">
<g filter="url(#filter0_d_522_138)">
<circle cx="28" cy="25" r="25" fill="#F5F5F5"/>
</g>
<path d="M43.6365 19.0619H38.5757L37.4972 12.6183C37.2798 11.6434 36.8026 10.7455 36.116 10.0201C35.4295 9.29456 34.5593 8.76852 33.5978 8.49778C32.6319 8.18702 31.6257 8.01931 30.6111 8H24.4165C23.402 8.01931 22.3957 8.18702 21.4298 8.49778C20.4683 8.76852 19.5981 9.29456 18.9116 10.0201C18.225 10.7455 17.7478 11.6434 17.5305 12.6183L16.4519 19.0619H11.3911C11.1733 19.0606 10.9583 19.1107 10.7635 19.2083C10.5688 19.3058 10.3998 19.448 10.2704 19.6232C10.141 19.7984 10.0549 20.0017 10.0189 20.2165C9.98301 20.4314 9.99835 20.6517 10.0637 20.8594L15.2628 38.2819C15.5275 39.1235 16.0536 39.8589 16.7648 40.3811C17.476 40.9033 18.3351 41.1851 19.2174 41.1856H35.8102C36.6878 41.1792 37.5407 40.8947 38.2463 40.3729C38.952 39.8512 39.4739 39.1191 39.7372 38.2819L44.9363 20.8594C45.0009 20.6539 45.0167 20.436 44.9822 20.2233C44.9477 20.0106 44.864 19.8089 44.7378 19.6343C44.6115 19.4596 44.4462 19.317 44.255 19.2176C44.0638 19.1182 43.852 19.0649 43.6365 19.0619ZM19.2727 19.0619L20.2683 13.0608C20.3774 12.5708 20.6306 12.1247 20.9953 11.7797C21.3599 11.4348 21.8194 11.2067 22.3147 11.125C22.995 10.9093 23.703 10.7904 24.4165 10.7655H30.6111C31.3329 10.7876 32.0492 10.9093 32.7405 11.125C33.2358 11.2067 33.6953 11.4348 34.06 11.7797C34.4247 12.1247 34.6779 12.5708 34.787 13.0608L35.7549 19.0619H19.1621H19.2727Z" fill="#33A083"/>
<defs>
<filter id="filter0_d_522_138" x="0.87234" y="0" width="54.2553" height="54.2553" filterUnits="userSpaceOnUse" color-interpolation-filters="sRGB">
<feFlood flood-opacity="0" result="BackgroundImageFix"/>
<feColorMatrix in="SourceAlpha" type="matrix" values="0 0 0 0 0 0 0 0 0 0 0 0 0 0 0 0 0 0 127 0" result="hardAlpha"/>
<feOffset dy="2.12766"/>
<feGaussianBlur stdDeviation="1.06383"/>
<feComposite in2="hardAlpha" operator="out"/>
<feColorMatrix type="matrix" values="0 0 0 0 0 0 0 0 0 0 0 0 0 0 0 0 0 0 0.25 0"/>
<feBlend mode="normal" in2="BackgroundImageFix" result="effect1_dropShadow_522_138"/>
<feBlend mode="normal" in="SourceGraphic" in2="effect1_dropShadow_522_138" result="shape"/>
</filter>
</defs>
</svg>
