<svg xmlns="http://www.w3.org/2000/svg" data-name="Layer 1" viewBox="0 0 1000 1435"><path fill="#e7b197" fill-rule="evenodd" d="M697.64,1396.94A36.91,36.91,0,0,0,660.73,1360H349.34a36.9,36.9,0,0,0-36.91,36.91h0a36.91,36.91,0,0,0,36.91,36.91H660.73A36.92,36.92,0,0,0,697.64,1397Z"/><path fill="#e6b98a" fill-rule="evenodd" d="M527.63,1071.65c3.57,37.54-69.17,75.13-80.4,34.66-11-39.52-17.3-125.27-16.9-153.83.53-37.56,84-3.32,86.74,3.94C521,966.66,524.94,1043.37,527.63,1071.65Z"/><path fill="#e6b98a" fill-rule="evenodd" d="M663.91,1259.72c-24-24-105.71-64.41-136.15-84.28-14.17-9.25-50.07-32.87-73-56.89-29-30.35,36-70.35,67.79-50.14,23.26,14.78,47.17,35.09,55.6,42.07,5.5,4.54,91.62,80.88,119.53,103.07,14.76,11.73,42.9,21.72,47.94,30,7.77,12.84-16.36,56.72-25.59,71s-25.24,40-36.77,36.74-15.23-18-11.23-31.63C675.92,1306.25,678.17,1274,663.91,1259.72Z"/><path fill="#d72829" fill-rule="evenodd" d="M689.41,1360.43c20-10.77,58.83-60.43,68.06-110.93a5.32,5.32,0,0,0-10.46-1.91c-5.18,28.41-20.32,56.57-35.6,76.76-9.9,13.08-19.77,22.8-27,26.73a5.31,5.31,0,0,0,5,9.35Z"/><path fill="#d72829" fill-rule="evenodd" d="M670.64,1326.47s19.65-10.67,51-3.72a5.31,5.31,0,1,0,2.3-10.37c-26.7-5.93-43.69-1.29-50.91,1.64C670.32,1315.1,668.14,1328,670.64,1326.47Z"/><path fill="#d72829" fill-rule="evenodd" d="M674.27,1307.44c1,.09,23.68-11.25,58.85-3.85a5.31,5.31,0,1,0,2.18-10.4c-39.69-8.34-60.35,3-60.35,3C672.36,1297.55,672.55,1307.28,674.27,1307.44Z"/><path fill="#d72829" fill-rule="evenodd" d="M749.27,1268.19a96.58,96.58,0,0,1-15.61-18.08c-4.49-6.8-8-11.75-8.36-20.24-.12-2.93-11.09-8.73-11-5.81.43,10.42,5,23.55,10.46,31.9a108,108,0,0,0,17.56,20.29,5.31,5.31,0,1,0,6.92-8.06Z"/><path fill="#c22425" fill-rule="evenodd" d="M541.83,1081.7c2.68-15.06,7.26-207.11,7.26-207.11S415.6,859.94,414.84,877c-4.4,99.81,8.57,216,19.94,216.83C488.72,1097.57,526.58,1097.2,541.83,1081.7Z"/><path fill="#ebc8a3" fill-rule="evenodd" d="M427.57,1328.09c12.66-29.87,22.87-115.2,29.41-152.2,7.24-41,34.14-154.12,34.14-154.12L575,1054.12s-37.11,112.79-44.29,137.07c-2,6.89-31.87,114.31-40.89,150.06-5.36,21.28-11.42,54.37-13.22,64.5s-59.46,2.59-76.68-2.64-46.72-16.16-47.47-26.28c-.93-12.66,13.49-21.36,28.52-21.73C401.09,1354.59,420.56,1344.61,427.57,1328.09Z"/><path fill="#d72829" fill-rule="evenodd" d="M347.94,1385.16c16.74,15.29,76.44,35.63,127.16,27.7a5.31,5.31,0,1,0-1.64-10.5c-28.53,4.46-60.11-.54-84.21-8.32-15.61-5-28.05-11.15-34.14-16.73a5.32,5.32,0,0,0-7.17,7.85Z"/><path fill="#d72829" fill-rule="evenodd" d="M373.82,1356.24s16.54,15,20.3,46.9a5.31,5.31,0,1,0,10.55-1.25c-3.21-27.16-13.18-41.68-18.32-47.53C384.44,1352.2,371.55,1354.39,373.82,1356.24Z"/><path fill="#d72829" fill-rule="evenodd" d="M393,1353.4c.24,1,18.42,18.65,23,54.29a5.31,5.31,0,1,0,10.53-1.36c-5.2-40.22-22.71-56-22.71-56C401.69,1348.34,392.57,1351.72,393,1353.4Z"/><path fill="#d72829" fill-rule="evenodd" d="M454.75,1411.28a96.92,96.92,0,0,1,11.92-20.7c4.95-6.47,8.46-11.43,16.36-14.56,2.73-1.08,4.59-13.34,1.87-12.27-9.69,3.84-20.6,12.44-26.67,20.39a108,108,0,0,0-13.37,23.26,5.31,5.31,0,1,0,9.89,3.88Z"/><path fill="#d72829" fill-rule="evenodd" d="M596,1038c14.44-30.41,23.82-49.22,33.9-79.86C644.69,913,634.33,892,634.33,892s-113.72-25-130.74-23.61c-31.2,95.11-36.06,228.14-36.06,228.14s89.31,23.49,99,13C576.47,1098.72,581.09,1069.32,596,1038Z"/><path fill="#ebc8a3" fill-rule="evenodd" d="M315,380.58c.53-7.15,7.61-13.75,14-17.86s3.24-10.31,4.91-16.62,9.5-5.28,11.49.23,0,25.66-2.62,32.64-5.27,14.77-15.22,15.86C320.29,395.62,314.39,387.92,315,380.58Z"/><path fill="#ebc8a3" fill-rule="evenodd" d="M314.92,534C300.94,495,276.83,390.51,276.18,389c-4.73-11.37-11-25.92-13.88-35.07-2.32-7.33,8.08-12.37,11-8.13a160.69,160.69,0,0,1,8.92,15.3s-2.82-7-5.53-15.92c-1.63-5.35,9.1-10.75,11.54-5.91,4.3,8.56,8,14.94,8,14.94s-5.28-11.05-4.21-17.64c.46-2.83,6.88-4.77,9.24-3.41,4.39,2.51,8.67,16.27,8.67,16.27-1.06-4.56-3.55-11.43-3-16.82.32-3.36,7.92-4.76,10.08-1.54,5.81,8.68,8.19,23.93,17.11,48.73,1.59,4.44,40.1,112.84,58.92,156.21,15.24,35.1,57.55,90,66.49,103,9.95,14.43,14.21,48.81,4.48,58.44-10.91,10.79-27.78,18.54-46.31,7.45C382.16,683.53,325.19,562.77,314.92,534Z"/><path fill="#fdd248" fill-rule="evenodd" d="M335,639.24c-7.28-13.44,75.8-82.76,84.23-67.3,18.33,33.59,31.44,54,40.38,67,9.95,14.43,16.31,45.19,9.47,62.5-5.62,14.27-20.53,57.38-48.64,38.87C397.88,725.46,359,683.75,335,639.24Z"/><path fill="#ebc8a3" fill-rule="evenodd" d="M737.9,384.9c-.54-7.16-7.62-13.75-14-17.86s-3.24-10.31-4.91-16.62-9.49-5.28-11.48.23,0,25.66,2.61,32.64,5.27,14.77,15.23,15.86C732.55,399.94,738.45,392.24,737.9,384.9Z"/><path fill="#ebc8a3" fill-rule="evenodd" d="M737.93,538.36c14-39.07,38.09-143.53,38.74-145.09,4.72-11.37,11-25.92,13.88-35.07,2.32-7.33-8.09-12.37-11-8.13a162,162,0,0,0-8.91,15.3s2.82-7,5.53-15.92c1.62-5.35-9.1-10.75-11.54-5.91-4.31,8.56-8,14.94-8,14.94s5.27-11.05,4.2-17.64c-.46-2.83-6.88-4.77-9.24-3.42-4.39,2.52-8.66,16.28-8.66,16.28,1.06-4.56,3.54-11.43,3-16.83-.33-3.35-7.93-4.75-10.08-1.53-5.82,8.68-8.2,23.93-17.11,48.73-1.6,4.44-40.11,112.84-58.93,156.21-15.23,35.1-57.54,90-66.48,103-10,14.43-14.22,48.81-4.48,58.44,10.9,10.79,27.78,18.54,46.31,7.45C670.68,687.85,727.65,567.09,737.93,538.36Z"/><path fill="#fdd248" fill-rule="evenodd" d="M717.89,643.56c7.27-13.44-75.81-82.76-84.24-67.3-18.32,33.59-38.72,53.86-52.7,70.3-11.36,13.35-9.56,42-4,60.3,11.47,37.9,32.86,51,47,40.84C645.75,731.87,693.81,688.07,717.89,643.56Z"/><path fill="#708f8e" fill-rule="evenodd" d="M804.94,41.93,787.08,19.08,210.21,1.15l-15.15,332.5,17.87,22.85,576.86,17.94Z"/><polygon fill="#a9bcbb" fill-rule="evenodd" points="210.21 1.14 787.08 19.08 771.93 351.58 195.06 333.64 210.21 1.14"/><polygon fill="#683117" fill-rule="evenodd" points="237.75 32.1 356.29 35.78 350.56 161.43 232.03 157.75 237.75 32.1"/><polygon fill="#683117" fill-rule="evenodd" points="231.18 176.39 349.71 180.08 343.99 305.73 225.46 302.04 231.18 176.39"/><polygon fill="#683117" fill-rule="evenodd" points="371.25 36.25 489.78 39.93 484.06 165.59 365.52 161.9 371.25 36.25"/><polygon fill="#683117" fill-rule="evenodd" points="364.68 180.54 483.21 184.23 477.49 309.88 358.95 306.19 364.68 180.54"/><polygon fill="#683117" fill-rule="evenodd" points="504.75 40.4 623.29 44.09 617.56 169.74 499.03 166.05 504.75 40.4"/><polygon fill="#683117" fill-rule="evenodd" points="498.18 184.69 616.72 188.38 610.99 314.03 492.46 310.34 498.18 184.69"/><polygon fill="#683117" fill-rule="evenodd" points="638.26 44.55 756.79 48.24 751.07 173.89 632.54 170.2 638.26 44.55"/><polygon fill="#683117" fill-rule="evenodd" points="631.69 188.84 750.22 192.53 744.5 318.18 625.97 314.49 631.69 188.84"/><path fill="#fff" fill-rule="evenodd" d="M553.85,637.91c-19.65-5.25-65.27-8.37-77.66-2.32-6.27,3.06-23.82,13.62-34.86,66.21-8.09,38.54-30.77,148.09-30.66,214.06,40.83,52,177.57,33.8,229.14-2.13-1.16-38-11.63-90.94-19.14-138.62-6.32-40.17-13.68-76.47-24.81-99.34C587.6,658.83,571.09,642.51,553.85,637.91Z"/><path fill="#eb5f61" fill-rule="evenodd" d="M516.64,668.09c-14,1.72-49-3.83-48.49-23s27.53-19.91,44.53-20,42.66.68,43.13,17.62S537.72,665.5,516.64,668.09Z"/><path fill="#e6b98a" fill-rule="evenodd" d="M479.16,605.06s-2.76,19.48-2.37,34.35c.07,2.84,6.19,17,30.21,17.89,27.42,1.08,39.85-10.81,40.33-16.17,1-11.11.23-36.63.23-36.63Z"/><path fill="#fdc71c" fill-rule="evenodd" d="M476.81,641.05c3.72,14.43-.28,91.18-1.42,107-6.06,84-17.14,191.67-27.43,232.69-19.51,8.78-58.49-28.53-57.52-50,1.14-25.26,34.26-198.86,44.17-231.78C451.39,643.22,462.67,647,476.81,641.05Z"/><path fill="#e3ae02" fill-rule="evenodd" d="M450.5,651.87s4.4-17.32,9.87-20.63c5.76-3.48,16.88-5.89,16.88-5.89l-1.59,9,1.86,9.68Z"/><path fill="#fdd248" fill-rule="evenodd" d="M478.2,682.89s.6-34.7-.95-57.54c0,0-15.4,3.89-16.88,5.89C464.49,631,471.71,660.46,478.2,682.89Z"/><path fill="#fdc71c" fill-rule="evenodd" d="M531.48,633.55c18.46-1.73,61,4.3,76.62,50,9.74,28.55,44.33,191.08,43.84,241.93,0,0-80.89,74.9-113.54,56.52-15.54-8.75-29.11-193.28-28.42-228.3C511.21,691.14,507.75,635.78,531.48,633.55Z"/><path fill="#e3ae02" fill-rule="evenodd" d="M511.22,685.54s2.41-45.36,11.93-53c10-2.67,28.5-2.49,25.17-8.25l2.59,4.44.34,5.12C529.35,643.72,522.74,660.46,511.22,685.54Z"/><path fill="#fdd248" fill-rule="evenodd" d="M547.84,623.69c1.23-.21,2.88,1.8,5.36,6.71,1.32,2.61,3.89,4.2,0,8.27s-17.29,13.47-17.29,13.47-5.39-12.42-7.46-16a6.47,6.47,0,0,0-5.27-3.6C533.1,629.82,547.67,629.48,547.84,623.69Z"/><path fill="#e5772c" fill-rule="evenodd" d="M551.57,700.49s-1.07-5.94,3.61-13.52c0,0,6.6,5.33,7.68,11,0,0,3.63-10,8.59-12.12,0,0,5.55,7.65,5.15,13.88,0,0,6.52-6.93,12.23-7.37,0,0,3.5,7.57-.45,14.51,0,0,7.63-1.89,14,3.06,0,0-4,7.88-9.26,9.69,0,0,8.09,2.53,13.11,7.36,0,0-6,4.6-12.13,6.08,0,0,6.74,6.45,9.33,12.65,0,0-12.19,2.68-16.16.65,0,0,8.32,6.33,7,15.7,0,0-12.39,1.18-16.33-5.66,0,0-2,10-6.27,14.82a19.37,19.37,0,0,1-8-14.2,28.18,28.18,0,0,1-10.5,11s-3.3-10.16-2.82-15c0,0-8.55,9.06-15.2,6.6,0,0,.67-11.27,4.35-14.48,0,0-8.68.62-14-3.1,0,0,7.17-8.3,11.86-9.26,0,0-9.91-2.11-12.87-7.67,0,0,6.95-5.61,14.28-4.17,0,0-9.5-5.76-10.58-12.78,0,0,8.4-2.1,13.76.19a28.33,28.33,0,0,1-4.14-14.49S549.34,695.69,551.57,700.49Z"/><path fill="#d72829" fill-rule="evenodd" d="M543,723.43c.05-9,11.63-25.32,32.35-17.87,17,6.14,22.56,41.58-1.57,45.79C550.19,755.48,543,739.89,543,723.43Z"/><path fill="#924521" fill-rule="evenodd" d="M515.19,408.63c41.86.42,100.28,9.49,123,61.92,10.72,24.75,7.87,55.1-7.54,90.51-19.51,44.82-49.31,67.63-118.37,53.79C452.87,603,427,580.49,421,544.44c-5.08-31-4.6-61.78,5.74-83.83C443.26,425.47,482.57,408.3,515.19,408.63Z"/><path fill="#ebc8a3" fill-rule="evenodd" d="M477.33,621.4c-32.57-6.63-62.33-40.72-62-75.25s5.51-117.47,100-105.11,87.32,94.71,80.1,122.47C589,588.22,568.14,639.87,477.33,621.4Z"/><path fill="#eb5f61" fill-rule="evenodd" d="M525.89,571.52s-50.51-10-72.82-10.16c0,0-10,40.51,26.6,47.78C521.4,617.43,525.81,585.91,525.89,571.52Z"/><path fill="#eb5f61" d="M424.55,551.6a2.58,2.58,0,0,1-1.71-4.52L430,540.8a2.59,2.59,0,1,1,3.42,3.88L426.25,551A2.54,2.54,0,0,1,424.55,551.6Z"/><path fill="#eb5f61" d="M434,553.57a2.58,2.58,0,0,1-1.71-4.52l7.12-6.28a2.59,2.59,0,0,1,3.42,3.88l-7.12,6.27A2.59,2.59,0,0,1,434,553.57Z"/><path fill="#eb5f61" d="M443.44,555.54a2.58,2.58,0,0,1-1.71-4.52l7.11-6.28a2.58,2.58,0,1,1,3.42,3.87l-7.12,6.28A2.59,2.59,0,0,1,443.44,555.54Z"/><path fill="#eb5f61" d="M534.64,573.21a2.54,2.54,0,0,1-1.7-.65,2.57,2.57,0,0,1-.23-3.64L539,561.8a2.58,2.58,0,1,1,3.87,3.41l-6.27,7.12A2.57,2.57,0,0,1,534.64,573.21Z"/><path fill="#eb5f61" d="M544.26,574a2.58,2.58,0,0,1-1.94-4.29l6.28-7.12a2.58,2.58,0,0,1,3.87,3.41l-6.27,7.13A2.56,2.56,0,0,1,544.26,574Z"/><path fill="#eb5f61" d="M553.88,574.73a2.58,2.58,0,0,1-1.94-4.28l6.27-7.13a2.59,2.59,0,0,1,3.88,3.42l-6.27,7.12A2.56,2.56,0,0,1,553.88,574.73Z"/><path fill="#ebc8a3" fill-rule="evenodd" d="M591.64,541.93c6.32-10.07,22.54-18.79,30.68-1.52,8.25,17.5-15.88,49.47-34.74,44.75C573.34,581.59,586.41,550.28,591.64,541.93Z"/><path fill="#924521" fill-rule="evenodd" d="M413.2,511.82c.34,2.92,1.21,7.86,6.23,8.19,7.75.5,44.94-15.75,50.44-23.22-4.21,9.13-5.93,19.31-2.23,21.43,7.68,4.41,15.68-9,21.84-21.44,7.89,22.33,33.53,38.56,41.75,40.25s18.94-8.16,11.81-35c1.57,7.8,9.69,20.69,16.92,31.1,8.58,12.35,20.07,29.51,27.71,31,9.29,1.83,14-21.93,16.49-29.68,7-21.69,7.14-47.29-20.58-77.82s-82.64-30.69-121.78-22.92C428.7,440.26,410.3,487.12,413.2,511.82Z"/></svg>