<svg width="140" height="40" viewBox="0 0 181 40" fill="none" xmlns="http://www.w3.org/2000/svg">
<path d="M128.339 31.4778H123.945V17.272H148.865V31.4778H144.471V22.0073H128.339V31.4778Z" fill="white"/>
<path d="M144.93 12.6044H127.88C126.77 12.3197 125.756 11.7285 124.947 10.8942C124.138 10.0599 123.565 9.01413 123.289 7.86914H149.521C149.245 9.01413 148.672 10.0599 147.863 10.8942C147.054 11.7285 146.04 12.3197 144.93 12.6044Z" fill="white"/>
<path d="M54.6257 7.94359L59.0189 7.86945L59.3907 29.8978L45.8534 32.9031L34.4739 30.3183L34.1022 8.28994L38.4954 8.2158L39.3129 24.7733L46.5214 27.0859L54.5895 24.7441L54.6257 7.94359Z" fill="white"/>
<path d="M65.0945 7.48934H70.0657L85.3397 15.4871V7.48934H90.3109V32H85.3397V20.7561L70.0657 12.8055V32H65.0945V7.48934Z" fill="white"/>
<path d="M96.6044 7.48934H109.526C111.408 7.48934 113.039 7.6932 114.419 8.10093C115.799 8.50866 116.944 9.09934 117.853 9.87298C118.763 10.6362 119.437 11.5718 119.876 12.68C120.326 13.7882 120.551 15.0375 120.551 16.428C120.551 17.7348 120.331 18.9423 119.892 20.0505C119.453 21.1586 118.778 22.1205 117.869 22.9359C116.97 23.7409 115.83 24.3734 114.45 24.8334C113.07 25.283 111.439 25.5077 109.558 25.5077L101.576 25.4921V32H96.6044V7.48934ZM109.652 21.1952C110.593 21.1952 111.413 21.0855 112.114 20.8659C112.825 20.6359 113.415 20.3171 113.886 19.9093C114.367 19.4911 114.722 18.9893 114.952 18.4039C115.193 17.808 115.313 17.1493 115.313 16.428C115.313 14.9748 114.837 13.8457 113.886 13.0407C112.945 12.2252 111.533 11.8175 109.652 11.8175H101.576V21.1952H109.652Z" fill="white"/>
<path d="M4.62613 24.708C5.51477 25.2098 6.41386 25.6646 7.3234 26.0723C8.2434 26.4696 9.19476 26.8093 10.1775 27.0916C11.1602 27.3634 12.19 27.5725 13.2668 27.7189C14.3541 27.8652 15.5093 27.9384 16.7325 27.9384C18.2066 27.9384 19.4611 27.8443 20.4961 27.6561C21.5311 27.4575 22.3727 27.1909 23.0209 26.8564C23.6795 26.5114 24.1552 26.1036 24.4479 25.6332C24.7511 25.1627 24.9027 24.6505 24.9027 24.0964C24.9027 23.2077 24.5316 22.5073 23.7893 21.995C23.047 21.4723 21.9023 21.2109 20.355 21.2109C19.6754 21.2109 18.9593 21.258 18.2066 21.3521C17.4538 21.4357 16.6907 21.5298 15.917 21.6343C15.1538 21.7389 14.3959 21.8382 13.6432 21.9323C12.9009 22.0159 12.2004 22.0577 11.5418 22.0577C10.4441 22.0577 9.38817 21.9166 8.37408 21.6343C7.37045 21.3521 6.47658 20.9286 5.69249 20.3641C4.91886 19.7996 4.30204 19.0939 3.84204 18.2471C3.38204 17.4002 3.15204 16.4123 3.15204 15.2832C3.15204 14.6141 3.24091 13.9502 3.41863 13.2916C3.60681 12.633 3.89954 12.0057 4.29681 11.4098C4.70454 10.8034 5.22727 10.2441 5.86499 9.73184C6.50272 9.20911 7.27113 8.75957 8.17022 8.3832C9.07976 8.00684 10.1252 7.71411 11.3066 7.50502C12.4984 7.28548 13.8523 7.17571 15.3682 7.17571C16.4659 7.17571 17.5688 7.23843 18.677 7.36389C19.7852 7.47889 20.862 7.64616 21.9075 7.8657C22.9634 8.08525 23.9775 8.35184 24.9497 8.66548C25.922 8.96866 26.8263 9.30843 27.6627 9.68479L25.4829 13.6993C24.7929 13.3962 24.0507 13.1191 23.2561 12.8682C22.4616 12.6068 21.6304 12.3821 20.7627 12.1939C19.895 12.0057 18.9959 11.8593 18.0654 11.7548C17.1454 11.6398 16.2045 11.5823 15.2427 11.5823C13.8732 11.5823 12.7441 11.6816 11.8554 11.8802C10.9773 12.0789 10.2768 12.335 9.75408 12.6487C9.23135 12.9518 8.86545 13.2968 8.65636 13.6837C8.45772 14.06 8.3584 14.4364 8.3584 14.8127C8.3584 15.5446 8.68772 16.1457 9.34635 16.6162C10.005 17.0762 11.0086 17.3062 12.3573 17.3062C12.9009 17.3062 13.5229 17.2696 14.2234 17.1964C14.9343 17.1127 15.6766 17.0239 16.4502 16.9298C17.2343 16.8357 18.0288 16.7521 18.8338 16.6789C19.6493 16.5952 20.4386 16.5534 21.2018 16.5534C22.6445 16.5534 23.92 16.7155 25.0282 17.0396C26.1468 17.3637 27.0825 17.8289 27.8352 18.4352C28.5879 19.0311 29.1577 19.7577 29.5445 20.615C29.9313 21.4618 30.1247 22.4132 30.1247 23.4691C30.1247 24.8805 29.7954 26.1402 29.1368 27.2484C28.4886 28.3461 27.5582 29.2766 26.3454 30.0398C25.1432 30.7925 23.69 31.3675 21.9859 31.7648C20.2818 32.1516 18.3843 32.345 16.2934 32.345C14.9134 32.345 13.5648 32.2561 12.2475 32.0784C10.9302 31.9111 9.66522 31.6707 8.45249 31.357C7.25022 31.033 6.10022 30.6514 5.0025 30.2123C3.91522 29.7627 2.90636 29.2714 1.97591 28.7382L4.62613 24.708Z" fill="white"/>
<path d="M152.826 19.5957C152.826 17.8498 153.155 16.2241 153.814 14.7187C154.472 13.2027 155.424 11.8907 156.668 10.7825C157.922 9.66388 159.449 8.7857 161.247 8.14798C163.055 7.51025 165.099 7.19139 167.378 7.19139C169.375 7.19139 171.205 7.39525 172.867 7.80298C174.54 8.20025 176.092 8.81184 177.524 9.63775L175.235 13.4014C174.806 13.1191 174.31 12.8682 173.745 12.6487C173.191 12.4291 172.595 12.2462 171.957 12.0998C171.33 11.943 170.677 11.8227 169.997 11.7391C169.328 11.6555 168.664 11.6137 168.006 11.6137C166.416 11.6137 165 11.8123 163.756 12.2096C162.512 12.5964 161.461 13.1452 160.604 13.8562C159.757 14.5566 159.109 15.3982 158.659 16.3809C158.22 17.3532 158.001 18.4248 158.001 19.5957C158.001 20.8084 158.231 21.9218 158.691 22.9359C159.151 23.95 159.814 24.8282 160.682 25.5705C161.56 26.3023 162.627 26.8773 163.881 27.2955C165.146 27.7032 166.573 27.907 168.162 27.907C168.884 27.907 169.6 27.8548 170.311 27.7502C171.022 27.6457 171.706 27.5045 172.365 27.3268C173.034 27.1386 173.677 26.9191 174.294 26.6682C174.911 26.4068 175.486 26.1246 176.019 25.8214L178.309 29.585C176.97 30.4423 175.423 31.1166 173.667 31.608C171.91 32.0889 170.044 32.3293 168.068 32.3293C165.549 32.3293 163.338 32.0052 161.435 31.357C159.532 30.6984 157.943 29.7993 156.668 28.6598C155.392 27.5098 154.43 26.1611 153.782 24.6139C153.144 23.0561 152.826 21.3834 152.826 19.5957Z" fill="white"/>
</svg>
