<svg xmlns="http://www.w3.org/2000/svg" enable-background="new 0 0 850 850" viewBox="0 0 850 850"><circle cx="298.75" cy="212.11" r="53.82" fill="#f3b34e"/><path fill="#d79840" d="M233.87,215.99h-22.54c-1.38,0-2.5-1.12-2.5-2.5s1.12-2.5,2.5-2.5h22.54c1.38,0,2.5,1.12,2.5,2.5
			S235.25,215.99,233.87,215.99z"/><path fill="#d79840" d="M252.5,167.03c-0.63,0-1.26-0.24-1.75-0.72l-16.09-15.79c-0.99-0.97-1-2.55-0.03-3.54
			c0.97-0.99,2.55-1,3.54-0.03l16.09,15.79c0.99,0.97,1,2.55,0.03,3.54C253.79,166.78,253.15,167.03,252.5,167.03z"/><path fill="#d79840" d="M342.98,167.03c-0.65,0-1.29-0.25-1.78-0.75c-0.97-0.99-0.95-2.57,0.03-3.54l16.09-15.79
			c0.98-0.97,2.57-0.95,3.54,0.03c0.97,0.99,0.95,2.57-0.03,3.54l-16.09,15.79C344.24,166.79,343.61,167.03,342.98,167.03z"/><path fill="#d79840" d="M297.95,150.59c-1.37,0-2.49-1.1-2.5-2.48l-0.21-22.54c-0.01-1.38,1.1-2.51,2.48-2.52c0.01,0,0.02,0,0.02,0
			c1.37,0,2.49,1.1,2.5,2.48l0.21,22.54c0.01,1.38-1.1,2.51-2.48,2.52C297.96,150.59,297.95,150.59,297.95,150.59z"/><path fill="#d79840" d="M385.51,215.99h-22.54c-1.38,0-2.5-1.12-2.5-2.5s1.12-2.5,2.5-2.5h22.54c1.38,0,2.5,1.12,2.5,2.5
			S386.9,215.99,385.51,215.99z"/><path fill="#d79840" d="M360.43,277.45c-0.63,0-1.26-0.24-1.75-0.72l-16.09-15.79c-0.99-0.97-1-2.55-0.03-3.54
			c0.97-0.99,2.55-1,3.54-0.03l16.09,15.79c0.99,0.97,1,2.55,0.03,3.54C361.72,277.2,361.08,277.45,360.43,277.45z"/><path fill="#d79840" d="M237.78,277.45c-0.65,0-1.29-0.25-1.78-0.75c-0.97-0.99-0.95-2.57,0.03-3.54l16.09-15.79
			c0.98-0.97,2.57-0.95,3.54,0.03c0.97,0.99,0.95,2.57-0.03,3.54l-16.09,15.79C239.04,277.21,238.41,277.45,237.78,277.45z"/><path fill="#d79840" d="M299.1,300.64c-1.37,0-2.49-1.1-2.5-2.48l-0.21-22.54c-0.01-1.38,1.1-2.51,2.48-2.52
			c1.38,0,2.51,1.1,2.52,2.48l0.21,22.54c0.01,1.38-1.1,2.51-2.48,2.52C299.12,300.64,299.11,300.64,299.1,300.64z"/><rect width="33.85" height="310.82" x="555.85" y="386.31" fill="#c8c9db"/><path fill="#c8c9db" d="M623.5,708.14h-99.02v-12.35c0-8.37,6.79-15.16,15.16-15.16h68.7c8.37,0,15.16,6.79,15.16,15.16V708.14z"/><rect width="9.6" height="251.18" x="358.81" y="453.87" fill="#d8d8e7"/><polygon fill="#d8d8e7" points="356.45 450.46 408.04 354.68 371.05 457.15"/><polygon fill="#d8d8e7" points="367.22 447.94 452.02 519.7 357.08 460.4"/><polygon fill="#d8d8e7" points="360.21 448.26 249.85 461.03 361.75 464.25"/><circle cx="361.58" cy="457.15" r="11.2" fill="#c8c9db"/><path fill="#c8c9db" d="M724.87,672.52c0,0,12.24-37.75,30.13-49.39c4.7-3.06,8.89-6.85,12.12-11.43
				c4.97-7.06,10.04-17.12,7.2-26.22c-1.2-3.85-1.71-7.89-1.19-11.9c0.79-6.12,3.23-14.38,10.17-21.1c0,0,5.25-5.57,8.4-11.37
				c2.65-4.88,0.11-10.97-5.22-12.53c-6.57-1.92-16.92-2.44-27.83,6.81c0,0-3.52,2.71-7.43,0.3c-2.86-1.76-6.28-2.45-9.53-1.6
				c-5.61,1.47-13.01,5.7-16.04,17.59l-3.13,13.64c-0.68,2.97-2.88,5.33-5.76,6.34c-3.66,1.29-7.44,4.42-2.24,11.9
				c1.99,2.87,2.73,6.43,2.13,9.88l-8.1,46.48l-1.59,25.44L724.87,672.52z"/><path fill="#f0f8ff" d="M724.77,661.83c-3.5-43.86,6.34-72.11,15.22-88.08c9.64-17.35,20.28-24.4,20.39-24.47l0.55,0.84
					c-0.1,0.07-10.58,7.03-20.09,24.19c-8.79,15.85-18.54,43.88-15.06,87.45L724.77,661.83z"/><path fill="#f0f8ff" d="M744.08,569.87c-0.29,0-0.58-0.01-0.88-0.03l0.07-1c7.34,0.54,14.55-6.7,14.63-6.78l0.71,0.7
					C758.32,563.07,751.53,569.87,744.08,569.87z"/><path fill="#f0f8ff" d="M729.15,605.04l-0.14-0.99c24.99-3.49,28.73-22.06,28.76-22.25l0.98,0.18
					C758.72,582.18,754.88,601.44,729.15,605.04z"/><path fill="#f0f8ff" d="M754.18,600c-2.25,0-4.7-0.58-6.95-2.36l0.62-0.79c6.01,4.74,13.66,0.17,13.73,0.12l0.52,0.85
					C762.05,597.85,758.48,600,754.18,600z"/><path fill="#f0f8ff" d="M733.95,585.66c-4.39-10.77-1.24-22.46-1.21-22.58l0.96,0.27c-0.03,0.11-3.08,11.5,1.17,21.94
					L733.95,585.66z"/><path fill="#f0f8ff" d="M732.02,577.59c-1.03-5.19-7.56-6.33-7.63-6.34l0.16-0.99c0.3,0.05,7.29,1.27,8.45,7.13L732.02,577.59z"/><rect width="16.43" height="1" x="725.59" y="623.28" fill="#f0f8ff" transform="rotate(-6.557 733.666 623.67)"/><rect width="11.62" height="1" x="732.12" y="617.86" fill="#f0f8ff" transform="rotate(-60.756 737.952 618.394)"/><path fill="#e9e9f2" d="M706.34,675.88c0,0-1.89-39.64,10.73-56.85c3.32-4.52,5.9-9.55,7.3-14.98c2.16-8.36,3.34-19.57-2.53-27.07
				c-2.49-3.18-4.39-6.78-5.32-10.71c-1.43-6-2.06-14.59,2.06-23.33c0,0,2.94-7.07,3.84-13.61c0.76-5.5-3.77-10.3-9.31-9.88
				c-6.82,0.52-16.69,3.7-23.63,16.21c0,0-2.33,3.77-6.84,2.91c-3.3-0.63-6.74-0.07-9.48,1.88c-4.72,3.36-10.15,9.93-8.79,22.12
				l1.9,13.86c0.41,3.02-0.81,6-3.14,7.97c-2.97,2.5-5.4,6.76,2.11,11.93c2.88,1.98,4.83,5.05,5.48,8.49l8.85,46.34l7.5,24.36
				L706.34,675.88z"/><path fill="#f0f8ff" d="M683.93,665.92l-0.9-0.43c18.67-39.57,19.44-69.26,16.81-87.2c-2.85-19.39-10.17-29.55-10.24-29.65
					l0.81-0.59c0.08,0.1,7.54,10.46,10.42,30.1C703.48,596.22,702.7,626.12,683.93,665.92z"/><path fill="#f0f8ff" d="M699.19,573.34c-7.48-2.21-11.74-11.66-11.92-12.06l0.91-0.4c0.04,0.09,4.25,9.43,11.29,11.51
					L699.19,573.34z"/><path fill="#f0f8ff" d="M699.9,611.24c-22.8-12.45-19.58-31.83-19.55-32.03l0.98,0.18c-0.03,0.19-3.1,18.88,19.04,30.97
					L699.9,611.24z"/><path fill="#f0f8ff" d="M682.32,598.44c-6.27,0-10.64-5.53-10.69-5.6l0.79-0.61c0.06,0.07,5.59,7.04,12.89,4.74l0.3,0.95
					C684.46,598.29,683.36,598.44,682.32,598.44z"/><path fill="#f0f8ff" d="M702.26,591.42l-0.73-0.68c7.67-8.27,8.84-19.99,8.85-20.11l1,0.09
					C711.36,570.84,710.17,582.89,702.26,591.42z"/><path fill="#f0f8ff" d="M706.91,584.55l-0.85-0.53c3.16-5.08,10.13-3.74,10.42-3.69l-0.2,0.98
					C716.22,581.3,709.7,580.07,706.91,584.55z"/><rect width="1" height="16.43" x="688.43" y="618.91" fill="#f0f8ff" transform="rotate(-62.723 688.883 627.116)"/><rect width="1" height="11.62" x="686.48" y="614.79" fill="#f0f8ff" transform="rotate(-8.583 687.126 620.654)"/><g><path fill="#e89082" d="M708.88,697.41L708.88,697.41c-19.43,0-35.18-15.75-35.18-35.18v-15.7h70.36v15.7
				C744.06,681.66,728.31,697.41,708.88,697.41z"/></g><g><polygon fill="#e89082" points="122.48 274.78 122.48 318.3 166.89 314.61 166.03 270.68"/></g><g><path fill="#e5959d" d="M168.79,249.4c0.92-1.59,1.83-3.17,2.75-4.76c0.26-0.46,0.54-0.92,0.94-1.26c1.26-1.05,3.4-0.29,4.12,1.18
			c0.73,1.48,0.31,3.3-0.56,4.69c-0.33,0.52-0.72,1.01-0.92,1.6c-0.33,0.98-0.06,2.04,0.06,3.06c0.31,2.45-0.23,5.02-1.6,7.08
			c-1.37,2.06-3.58,3.57-6.01,3.98"/></g><g><path fill="#e5959d" d="M116.69,248.7c-0.02-2-0.55-3.99-1.52-5.74c-0.33-0.6-0.74-1.19-1.35-1.51c-1.38-0.72-3.04,0.29-4.04,1.48
			c-0.31,0.37-0.61,0.78-0.73,1.25c-0.18,0.69,0.04,1.42,0.26,2.09c0.18,0.55,0.35,1.11,0.53,1.66c0.91,2.84,1.82,5.76,1.63,8.73
			c-0.06,0.95-0.23,1.91,0.01,2.83c0.36,1.33,1.56,2.31,2.87,2.74c1.31,0.43,2.72,0.38,4.1,0.25"/></g><g><path fill="#100259" d="M116.46,250.33c-17.59-41.98,6.1-68.24,44.38-55.98c0.9,0.29,1.78,0.65,2.62,1.09
			c17.73,9.22,16.93,34.25,5.72,55.76l-16.33-12.9l-17.48,3.44L116.46,250.33z"/></g><g><path fill="#fba996" d="M120.95,222.56c-3.87,10.33-9.38,31.57-0.05,53.02c0.35,0.81,0.87,1.55,1.52,2.15l11,10.14
			c1.71,1.57,3.94,2.45,6.26,2.45h6.38c2.24,0,4.41-0.81,6.09-2.29l11.72-10.27c2.88-2.52,4.74-6,5.24-9.79
			c1.3-9.77,2.9-29.45-2.37-44.3c-1.61-4.53-5.65-7.77-10.41-8.47c-6.56-0.97-16.57-2.02-24.68-1.06
			C126.8,214.69,122.67,217.96,120.95,222.56z"/></g><g><path fill="#195ecb" d="M191.15,465.22c0,0,15.32,43.55,13.13,52.88l28.45,205.31h-64.56l-21.57-121.65c-0.28-1.57-2.54-1.57-2.81,0
			l-21.58,122.68H63.13V527.03c0-8.6,2-17.08,5.84-24.77l22.61-45.33L191.15,465.22z"/></g><g><path fill="#d79840" d="M166.81,306.3c0,0-28.49,14.88-46-7l-34.7,7.72L74.07,450.36l19.7,22.98h102.85l-5.47-155.37L166.81,306.3z"/></g><g><path fill="#fba996" d="M283.46,364.27l13.82-26.61c0,0,7.66-6.57,1.09,18.6l7.66-8.75c0,0,22.98-30.64,7.66,1.09
			c0,0,31.73-28.45,5.47,4.38c0,0,24.07-16.41,2.19,7.66c0,0,27.35-10.94-2.19,9.85l-22.98,16.41L283.46,364.27z"/></g><g><path fill="#f3b34e" d="M188.26,316.67c0,0,29.14,34.12,49.93,76.79l42.67-36.11l21.88,28.45l-70.03,55.82
			c-3.31,2.64-8.04,2.54-11.22-0.26c-8.51-7.52-24.13-24.11-30.36-49L188.26,316.67z"/></g><g><path fill="#ffc1bb" d="M120.03,477.71c0,0,31.73,16.41,35.01,33.92c0,0,2.19,13.13-9.85-3.28c0,0,8.75,21.88-4.38,8.75
			c0,0,5.47,14.22-6.57,5.47c0,0-4.38,9.85-16.41-5.47l-14.22-13.13L120.03,477.71z"/></g><g><path fill="#f3b34e" d="M104.83,327.93l-24.19,92.88l43.77,54.71l-18.6,35.01c0,0-59.09-55.8-65.65-70.03
			c6.12-44.61,15.66-85.54,29.89-121.39c3-12.19,17.27-17.6,27.6-10.48h0C103.86,312.93,106.73,320.63,104.83,327.93z"/></g><g><path fill="#d6786d" d="M190.27,203.74c-1.36-0.83-3.01-1.66-5-2.49c-2.34-0.97-4.28-2.87-5.57-5.31c-31,10.5-59.95,2.35-70.68-1.51
			c-1.42,2.76-3.52,4.95-6.05,6.23c-1.52,0.77-2.75,1.61-3.76,2.48C109.99,206.71,149.24,217.62,190.27,203.74z"/></g><g><path fill="#eecead" d="M179.67,195.68c-0.58-1.08-1.03-2.28-1.33-3.55c-9.88-42.37-52.72-50.26-68.23-0.21
			c-0.3,0.98-0.68,1.9-1.13,2.78C119.73,198.48,148.73,206.41,179.67,195.68z"/></g><g><path fill="#eecead" d="M190.27,203.4c-40.96,14.18-80.26,3.56-91.05,0.09c-1.14,1-1.98,2.04-2.57,3.08
			c-2.29,3.97-0.76,9.48,2.96,11.32c33.91,16.74,85.61,2.01,85.61,2.01C195.15,214.27,199.08,208.73,190.27,203.4z"/></g><g><ellipse cx="143.57" cy="204.08" fill="#fff" rx="7.93" ry="9.49"/><path fill="#1d1d1b" d="M143.57,214.07c-4.65,0-8.43-4.48-8.43-9.99s3.78-9.99,8.43-9.99c4.65,0,8.43,4.48,8.43,9.99
			S148.22,214.07,143.57,214.07z M143.57,195.08c-4.1,0-7.43,4.04-7.43,8.99s3.33,8.99,7.43,8.99s7.43-4.04,7.43-8.99
			S147.67,195.08,143.57,195.08z"/></g><g><path fill="#c8c9db" d="M708.04,391.14H395.69c-4.22,0-7.05-4.35-5.32-8.21l98.59-220.73c0.94-2.1,3.02-3.45,5.32-3.45h309.74
				c4.2,0,7.02,4.31,5.35,8.16l-95.97,220.73C712.46,389.76,710.36,391.14,708.04,391.14z"/><path fill="#e9e9f2" d="M708.04,392.64H395.69c-2.49,0-4.79-1.25-6.15-3.34c-1.36-2.09-1.56-4.7-0.54-6.98l98.59-220.73
				c1.18-2.64,3.81-4.34,6.69-4.34h309.74c2.48,0,4.77,1.24,6.13,3.31c1.36,2.07,1.58,4.67,0.59,6.94l-95.97,220.73
				C713.6,390.91,710.96,392.64,708.04,392.64z M494.27,160.24c-1.71,0-3.26,1.01-3.96,2.57l-98.59,220.73
				c-0.61,1.37-0.49,2.87,0.32,4.12c0.81,1.25,2.14,1.97,3.63,1.97h312.35c1.73,0,3.28-1.02,3.97-2.6l95.97-220.73
				c0.59-1.36,0.46-2.86-0.35-4.1c-0.82-1.24-2.14-1.96-3.62-1.96H494.27z"/><line x1="536.91" x2="434.59" y1="158.74" y2="391.14" fill="#c8c9db"/><rect width="253.92" height="3" x="358.79" y="273.44" fill="#e9e9f2" transform="rotate(-66.239 485.762 274.952)"/><line x1="594.78" x2="492.46" y1="158.74" y2="391.14" fill="#c8c9db"/><rect width="253.92" height="3" x="416.66" y="273.44" fill="#e9e9f2" transform="rotate(-66.239 543.633 274.953)"/><line x1="652.65" x2="550.33" y1="158.74" y2="391.14" fill="#c8c9db"/><rect width="253.92" height="3" x="474.53" y="273.44" fill="#e9e9f2" transform="rotate(-66.239 601.503 274.953)"/><line x1="710.52" x2="608.2" y1="158.74" y2="391.14" fill="#c8c9db"/><rect width="253.92" height="3" x="532.4" y="273.44" fill="#e9e9f2" transform="rotate(-66.239 659.373 274.954)"/><line x1="768.39" x2="666.07" y1="158.74" y2="391.14" fill="#c8c9db"/><rect width="253.92" height="3" x="590.27" y="273.44" fill="#e9e9f2" transform="rotate(-66.239 717.244 274.955)"/><g><rect width="322.38" height="3" x="474.91" y="192.13" fill="#e9e9f2"/></g><g><rect width="317.79" height="3" x="460.21" y="231.63" fill="#e9e9f2"/></g><g><rect width="328.84" height="3" x="434.46" y="274.8" fill="#e9e9f2"/></g><g><rect width="321.49" height="3" x="422.52" y="316.14" fill="#e9e9f2"/></g><g><rect width="317.79" height="3" x="403.26" y="359.31" fill="#e9e9f2"/></g></g></svg>