<svg xmlns="http://www.w3.org/2000/svg" enable-background="new 0 0 310 310" viewBox="0 0 310 310"><path fill="#bbcaea" d="M173.466 230.078c0-.215.536-.41 1.621-.5h2.758c1.084.09 1.62.285 1.62.505 0 .221-.536.41-1.62.505h-2.758c-1.085-.095-1.621-.284-1.621-.51zM161.466 230.078c0-.215.536-.41 1.621-.5h2.758c1.084.09 1.62.285 1.62.505 0 .221-.536.41-1.62.505h-2.758c-1.085-.095-1.621-.284-1.621-.51zM149.466 230.078c0-.215.536-.41 1.621-.5h2.758c1.084.09 1.62.285 1.62.505 0 .221-.536.41-1.62.505h-2.758c-1.085-.095-1.621-.284-1.621-.51zM137.466 230.078c0-.215.536-.41 1.621-.5h2.758c1.084.09 1.62.285 1.62.505 0 .221-.536.41-1.62.505h-2.758c-1.085-.095-1.621-.284-1.621-.51zM125.466 230.078c0-.215.536-.41 1.621-.5h2.758c1.084.09 1.62.285 1.62.505 0 .221-.536.41-1.62.505h-2.758c-1.085-.095-1.621-.284-1.621-.51zM113.466 230.078c0-.215.536-.41 1.621-.5h2.758c1.084.09 1.62.285 1.62.505 0 .221-.536.41-1.62.505h-2.758c-1.085-.095-1.621-.284-1.621-.51zM101.466 230.078c0-.215.536-.41 1.621-.5h2.758c1.084.09 1.62.285 1.62.505 0 .221-.536.41-1.62.505h-2.758c-1.085-.095-1.621-.284-1.621-.51zM89.466 230.078c0-.215.536-.41 1.621-.5h2.758c1.084.09 1.62.285 1.62.505 0 .221-.536.41-1.62.505h-2.758c-1.085-.095-1.621-.284-1.621-.51zM81.037 226.517c.215 0 .41.537.5 1.622v1.44h.308c1.084.09 1.62.284 1.62.504 0 .221-.536.41-1.62.505h-1.318v-2.449c.095-1.085.284-1.622.51-1.622zM81.037 214.517c.215 0 .41.537.5 1.622v2.758c-.09 1.084-.285 1.62-.505 1.62s-.41-.536-.505-1.62v-2.758c.095-1.085.284-1.622.51-1.622zM81.037 202.517c.215 0 .41.537.5 1.622v2.758c-.09 1.084-.285 1.62-.505 1.62s-.41-.536-.505-1.62v-2.758c.095-1.085.284-1.622.51-1.622zM81.037 190.517c.215 0 .41.537.5 1.622v2.758c-.09 1.084-.285 1.62-.505 1.62s-.41-.536-.505-1.62v-2.758c.095-1.085.284-1.622.51-1.622zM81.037 179.593c.215 0 .41.44.5 1.33v2.264c-.09.89-.285 1.33-.505 1.33s-.41-.44-.505-1.33v-2.263c.095-.89.284-1.331.51-1.331zM115.074 114.348c.215 0 .405.272.486.828l-.023 1.403c-.099.544-.296.792-.515.766-.22-.027-.403-.315-.49-.854l.02-1.351c.102-.528.296-.793.522-.792zM115.084 101.838c.215 0 .41.56.5 1.69l.002 2.874c-.089 1.13-.283 1.69-.504 1.69-.22 0-.41-.56-.505-1.689l-.002-2.874c.094-1.131.283-1.69.509-1.69zM115.057 89.332c.215 0 .411.558.503 1.69l.008 2.874c-.087 1.13-.28 1.69-.5 1.691-.221 0-.412-.558-.51-1.688l-.007-2.875c.092-1.132.28-1.692.506-1.692zM118.022 80.093c0 .215-.537.41-1.622.499h-.872v.183l.003.689c-.086 1.084-.278 1.621-.499 1.622-.22 0-.412-.535-.51-1.618l-.007-1.885h1.885c1.085.095 1.622.284 1.622.51zM130.483 80.093c0 .215-.557.41-1.684.499h-2.864c-1.126-.09-1.683-.284-1.683-.504 0-.221.557-.41 1.683-.505h2.864c1.127.095 1.684.284 1.684.51zM142.944 80.093c0 .215-.557.41-1.684.499h-2.864c-1.125-.09-1.683-.284-1.683-.504 0-.221.558-.41 1.683-.505h2.864c1.127.095 1.684.284 1.684.51zM155.405 80.093c0 .215-.557.41-1.684.499h-2.864c-1.125-.09-1.682-.284-1.682-.504 0-.221.557-.41 1.682-.505h2.864c1.127.095 1.684.284 1.684.51zM167.866 80.093c0 .215-.557.41-1.684.499h-2.863c-1.126-.09-1.683-.284-1.683-.504 0-.221.557-.41 1.683-.505h2.863c1.127.095 1.684.284 1.684.51zM180.327 80.093c0 .215-.557.41-1.684.499h-2.863c-1.126-.09-1.683-.284-1.683-.504 0-.221.557-.41 1.683-.505h2.863c1.127.095 1.684.284 1.684.51zM192.789 80.093c0 .215-.558.41-1.684.499h-2.864c-1.126-.09-1.683-.284-1.683-.504 0-.221.557-.41 1.683-.505h2.864c1.126.095 1.684.284 1.684.51zM205.25 80.093c0 .215-.558.41-1.684.499h-2.864c-1.126-.09-1.683-.284-1.683-.504 0-.221.557-.41 1.683-.505h2.864c1.126.095 1.684.284 1.684.51zM217.71 80.093c0 .215-.556.41-1.683.499h-2.864c-1.125-.09-1.683-.284-1.683-.504 0-.221.558-.41 1.683-.505h2.864c1.127.095 1.684.284 1.684.51zM230.172 80.093c0 .215-.557.41-1.684.499h-2.864c-1.125-.09-1.683-.284-1.683-.504 0-.221.558-.41 1.683-.505h2.864c1.127.095 1.684.284 1.684.51zM242.633 80.093c0 .215-.557.41-1.684.499h-2.863c-1.126-.09-1.683-.284-1.683-.504 0-.221.557-.41 1.683-.505h2.863c1.127.095 1.684.284 1.684.51zM255.094 80.093c0 .215-.557.41-1.684.499h-2.863c-1.126-.09-1.683-.284-1.683-.504 0-.221.557-.41 1.683-.505h2.863c1.127.095 1.684.284 1.684.51zM264.32 83.088c-.216 0-.41-.537-.5-1.622v-.874h-.874c-1.084-.09-1.621-.284-1.621-.504 0-.221.537-.41 1.62-.505h1.884v1.883c-.094 1.085-.283 1.622-.51 1.622zM264.32 95.001c-.216 0-.41-.533-.5-1.61v-2.738c.09-1.076.284-1.609.505-1.609s.41.533.504 1.61v2.737c-.094 1.077-.283 1.61-.51 1.61zM264.32 106.915c-.216 0-.41-.533-.5-1.61v-2.738c.09-1.076.284-1.609.505-1.609s.41.533.504 1.61v2.737c-.094 1.077-.283 1.61-.51 1.61zM264.32 118.829c-.216 0-.41-.533-.5-1.61v-2.738c.09-1.076.284-1.61.505-1.61s.41.534.504 1.61v2.738c-.094 1.077-.283 1.61-.51 1.61zM264.32 130.743c-.216 0-.41-.533-.5-1.61v-2.738c.09-1.077.284-1.61.505-1.61s.41.533.504 1.61v2.738c-.094 1.077-.283 1.61-.51 1.61zM264.32 142.657c-.216 0-.41-.533-.5-1.61v-2.738c.09-1.077.284-1.61.505-1.61s.41.533.504 1.61v2.737c-.094 1.078-.283 1.61-.51 1.61zM264.32 154.57c-.216 0-.41-.532-.5-1.61v-2.737c.09-1.077.284-1.61.505-1.61s.41.533.504 1.61v2.737c-.094 1.078-.283 1.61-.51 1.61zM264.32 166.484c-.216 0-.41-.532-.5-1.61v-2.738c.09-1.076.284-1.609.505-1.609s.41.533.504 1.61v2.737c-.094 1.078-.283 1.61-.51 1.61zM264.32 178.398c-.216 0-.41-.533-.5-1.61v-2.738c.09-1.076.284-1.609.505-1.609s.41.533.504 1.61v2.737c-.094 1.077-.283 1.61-.51 1.61zM264.32 187.355c-.216 0-.41-.268-.5-.811v-1.379c.09-.542.284-.81.505-.81s.41.268.504.81v1.379c-.094.543-.283.81-.51.81z"/><path fill="#f3f6fd" d="M137.007 145.807c0 23.435-14.658 43.45-35.307 51.363a52.662 52.662 0 0 1-3.115 1.104 55.03 55.03 0 0 1-16.582 2.536c-.579 0-1.158-.01-1.738-.033a33.04 33.04 0 0 1-1.486-.065 54.656 54.656 0 0 1-19.512-4.799C40.237 187.256 27 168.073 27 145.807c0-26.354 18.539-48.38 43.275-53.746a55.39 55.39 0 0 1 26.004.612h.01c20.529 5.509 36.313 22.594 39.93 43.82.449 2.646.711 5.346.766 8.1.022.405.022.81.022 1.214z"/><path fill="#003567" d="M102.038 197.108a53.563 53.563 0 0 1-3.168 1.123 55.974 55.974 0 0 1-16.867 2.58c-.589 0-1.178-.012-1.767-.034a33.62 33.62 0 0 1-1.513-.067 55.594 55.594 0 0 1-19.846-4.88l-.222-14.599-.055-4.225-.012-.723 31.865-1.29h.011l10.885-.444.1 3.369.011.156.034 1.39.544 17.644z"/><path fill="#022e4f" d="M102.038 197.108a53.563 53.563 0 0 1-3.168 1.123c-10.418-6.738-21.736-12.03-33.577-15.654-1.635-.501-3.28-.957-4.97-1.19-.545-.067-1.1-.145-1.668-.156l-.055-4.225-.012-.723 31.865-1.29h.011l10.885-.444.1 3.369.011.156.034 1.39.544 17.644zM84.798 200.78c-.477-.011-.944-.032-1.41-.063l.394-5.177 1.016 5.24z"/><path fill="#fec9ac" d="M100.943 148.357s2.84 8.465 2.883 8.556c.042.085 19.175 0 19.175 0l13.403-13.423s3.113.669 5.96-.803c2.845-1.466.936-5.29.936-5.29s4.98-.846 5.114-2.537c.134-1.69-8.361.31-8.361.31s.796-2.578.267-3.297c-.535-.711-6.502 8.37-6.502 8.37l-20.463 6.762-2.818-2.318-.028.014c-2.198 1.29-6.03 2.578-9.56 3.656h-.006z"/><path fill="#a698bb" d="M49.406 145.11c5.2 3.402 13.434 4.677 13.434 4.677l-.035.155s-4.89 26.092-4.565 26.614c4.142 6.678 44.323 5.67 45.323 1.493.007-.028.014-.05.014-.077.254-2.05-.718-9.51-1.74-16.378-.253-1.698-.514-3.368-.753-4.903a787.87 787.87 0 0 0-1.304-7.975v-.007c.38-.112.768-.232 1.163-.352h.007c3.529-1.078 7.361-2.367 9.559-3.656l.028-.014c.55-.331 1-.655 1.31-.98 0 0-.317-1.316-1.148-3.338-2.67-6.586-10.693-20.654-30.446-20.844-19.865-.19-27.867 14.772-30.495 21.668-.788 2.064-1.098 3.403-1.098 3.403.24.176.486.352.746.514z"/><path fill="#fec9ac" d="M87.94 120.368c-.37-.813-.68-1.657-.885-2.552a11.044 11.044 0 0 1-.195-3.86l-10.455-2.242-.206 2.336-.103 1.245c-.175 2.12-.69 2.788-1.708 4.65-2.758 5.074 17.205 8.408 13.552.423z"/><path fill="#ffab90" d="M76.199 114.05c1.708 2.253 4.898 5.155 9.6 4.198a5.027 5.027 0 0 0 1.256-.432 11.044 11.044 0 0 1-.195-3.86l-10.455-2.242-.206 2.336z"/><path fill="#7e6a9d" d="m96.37 141.693 3.41 7.016c.38-.112.768-.232 1.163-.352h.007c3.529-1.078 7.361-2.367 9.559-3.656l.028-.014c.55-.331 1-.655 1.31-.98 0 0-.317-1.316-1.148-3.338-6.375 2.698-14.328 1.324-14.328 1.324zM49.406 145.11c5.2 3.402 13.434 4.677 13.434 4.677l-.035.155 2.867-9.298s-6.375 1.373-15.914.55c-.788 2.063-1.098 3.402-1.098 3.402.24.176.486.352.746.514zM58.24 176.556c4.142 6.678 44.323 5.67 45.323 1.493-23.887-.704-40.758-28.107-40.758-28.107s-4.89 26.092-4.565 26.614z"/><path fill="#4a5258" d="M91.62 178.071h34.528c.697 0 1.303-.486 1.465-1.162l6.551-28.621a1.497 1.497 0 0 0-1.458-1.832H98.179c-.697 0-1.303.48-1.458 1.163l-6.558 28.62a1.5 1.5 0 0 0 1.458 1.832z"/><path fill="#fec9ac" d="M48.04 166.954c2.028 2.367 5.945 3.367 10.609 3.558 12.89.52 31.474-5.178 31.474-5.178s8.319-.923 11.714-3.74c.839-.705 1.374-1.515 1.416-2.459.064-1.57-.88-2.247-2.17-2.444-2.634-.416-6.727 1.155-6.727 1.155l1.064-4.65s-2.656.085-5.896 4.157l-28.02-.377.082-.453 1.099-6.045.12-.536.035-.155s-8.235-1.275-13.434-4.677c0 0-7.255 14.969-1.366 21.844zM74.11 109.642s3.657 8.094 11.067 6.579c6.39-1.296 6.178-13.377 6.002-16.68-.028-.53-.056-.832-.056-.832l-15.639-3.572-.598 10.708s-2.403-3.692-4.262-.88a3.922 3.922 0 0 0-.352.64c-1.416 3.198 3.839 4.037 3.839 4.037z"/><path fill="#2e363a" d="M70.272 105.605c.084-.204.204-.415.352-.64 1.86-2.812 4.262.88 4.262.88s.732.521 1.155-.07c.423-.592 2.663-7.616 4.367-7.658 1.705-.05 4.518 1.323 6.164.176.432-.3 2.381.853 4.607 1.247 2.24.402 4.741.007 6.185-3.508 2.881-7.03-6.114-6.185-7.467-7.96-1.352-1.775-8.488-6.558-15.941-3.12-7.354 3.388-3.776 20.224-3.684 20.653z"/><ellipse cx="80.994" cy="104.706" fill="#4f2d2b" rx=".972" ry="1.351"/><ellipse cx="87.646" cy="104.03" fill="#4f2d2b" rx=".972" ry="1.351"/><path fill="#4f2d2b" d="M83.987 110.315c.01-.04.177-.013.488.015.28.024.858.003.98-.563.167-.99-.546-2.024-.66-3.16-.112-1.355.25-1.979.29-1.955.098.018-.123.656.044 1.913.061.532.243 1.038.419 1.57.157.528.366 1.086.233 1.714-.087.375-.408.635-.678.688-.271.069-.497.03-.66-.01-.327-.09-.463-.18-.456-.212zM84.36 112.397c.024.046-.357.3-1.186.174a2.695 2.695 0 0 1-1.695-1.154c-.421-.724-.325-1.172-.271-1.167.09-.017.131.382.55.981.339.518.88.887 1.486 1.012.712.17 1.1.063 1.116.154z"/><path fill="#2e363a" d="M112.137 166.072c1.827-.21 3.524-1.985 3.795-3.952.271-1.977-.988-3.41-2.816-3.2-1.819.218-3.524 1.984-3.795 3.96-.27 1.968.988 3.402 2.816 3.192z"/><path fill="#4f2d2b" d="M86.233 101.992c-.021-.064.183-.222.678-.378.424-.103.885-.15 1.334-.054.53.15.692.412.648.456-.048.068-.26-.059-.717-.127-.384-.081-.79-.044-1.187.052-.477.088-.731.126-.756.051zM79.521 102.667c-.048-.04.058-.308.501-.641a2.62 2.62 0 0 1 1.326-.433c.567.018.798.22.771.277-.026.078-.278.015-.758.059a2.283 2.283 0 0 0-1.156.38c-.425.245-.623.415-.684.358z"/><path fill="#ffab90" d="M71.872 107.867c-.03.06-.157.09-.35-.023-.185-.11-.439-.386-.475-.86.011-.825.728-1.437 1.463-1.49.865-.001 1.152.53 1.029.591-.064.045-.165.055-.3.048-.163-.004-.395-.025-.666.03-.454.025-.857.423-.853.823-.047.502.234.747.152.881z"/><path fill="#ffab90" d="M71.85 107.888c-.03.06-.156.09-.349-.024-.185-.11-.439-.385-.475-.858.011-.826.728-1.438 1.463-1.491.865-.001 1.152.53 1.029.591-.064.045-.165.055-.3.048-.163-.004-.395-.025-.666.03-.454.025-.857.423-.853.823-.047.502.234.747.152.881z"/><path fill="#fff" d="M62.112 144.781c.049.09-.115.319-.59.564-.469.243-1.262.462-2.308.445a10.47 10.47 0 0 1-4.96-1.61c-1.69-1.226-2.095-2.244-1.946-2.35.192-.166.872.548 2.487 1.498a9.462 9.462 0 0 0 4.475 1.455c1.855.199 2.723-.225 2.842-.002zM91.588 125.484c.07.07-.178.488-.862 1.162-.69.659-1.831 1.594-3.629 2.375-1.534.618-3.19.967-4.86.956a11.476 11.476 0 0 1-4.837-1.14c-1.762-.904-2.783-2.031-3.333-2.82-.545-.807-.664-1.287-.58-1.334.105-.064.403.303 1.042.95.646.63 1.67 1.553 3.31 2.296 1.37.66 2.887 1.022 4.406 1.04 1.526.009 3.051-.31 4.475-.883 1.701-.642 2.858-1.406 3.628-1.907.764-.514 1.155-.782 1.24-.695zM107.788 141.926c.134.13-.27.878-1.67 1.563-1.206.49-2.464.72-3.693.897-.72.068-1.292.042-1.679-.028-.377-.062-.552-.154-.547-.264.006-.11.189-.225.53-.336.171-.056.382-.11.632-.16l.922-.21c1.199-.171 2.379-.395 3.453-.832 1.292-.435 1.887-.82 2.052-.63z"/><path fill="#bbcaea" d="M233.324 218.193h4.243v26.948h-4.243z"/><path fill="#d1dcf8" d="M231.979 218.193h4.243v26.948h-4.243z"/><path fill="#4a5258" d="M256.8 231.78h-62.88l27.06-44.425 58.832.564z"/><path fill="#2e363a" d="M195.323 234.12h62.881l23.012-43.862-1.404-2.34-23.011 43.863H193.92z"/><path fill="#64d3ff" d="m277.831 189.193-.57 1.09-21.09 40.051c-126.812-.033-3.964.048-59.934-.019l.094-.154 25.192-41.492 56.308.524z"/><path fill="#fff" d="M237.662 230.329h-.934c1.727-3.133 4.309-7.822 7.146-12.973.17-.307.343-.619.51-.93l8.039-14.568.49-.887c2.71-4.903 5.095-9.21 6.618-11.95l.873.008c-1.478 2.674-3.83 6.931-6.595 11.943l-.491.892c-2.472 4.49-5.253 9.54-8.014 14.565l-.513.93c-2.488 4.527-4.945 9.001-7.13 12.97zM216.052 230.322h-.943c1.827-3.148 4.557-7.848 7.556-13.018.18-.309.361-.622.539-.935l8.5-14.632.52-.896c2.868-4.928 5.387-9.258 7.001-12.009l.886.008c-1.575 2.69-4.06 6.97-6.984 12.007l-.518.891-8.482 14.634-.54.93c-2.628 4.543-5.225 9.033-7.535 13.02z"/><path fill="#fff" d="m245.304 216.429-.92-.003-20.257-.054a30.379 30.379 0 0 0-.923-.003c-7.515-.02-14.24-.038-18.47-.047l-.57.938c5.597.008 11.99.024 18.5.044.308-.004.618-.003.923-.002 6.926.017 13.956.034 20.287.054l.917.003c7.602.02 14.132.044 18.175.066l.488-.927c-4.115-.023-10.718-.05-18.15-.07zM253.81 200.972c-.296-.002-.595-.004-.897-.001-6.393-.043-13.354-.085-19.786-.124l-.902-.006c-7.336-.044-13.9-.084-18.027-.107l-.545.899c5.461.026 11.696.062 18.05.104.306-.003.604 0 .906.001 6.761.04 13.628.08 19.814.12l.895.006c7.436.044 13.82.09 17.776.124l.467-.888c-4.02-.036-10.481-.083-17.752-.128z"/><path fill="#fff" d="m244.938 188.89-40.771 28.363 5.076-8.36 28.846-20.07z" opacity=".15"/><path fill="#fff" d="m276.498 189.18-59.129 41.14-21.132-.005.094-.154 59.185-41.174z" opacity=".15"/><path fill="#fff" d="m251.193 188.945-51.662 35.948 2.535-4.182 45.707-31.798z" opacity=".15"/><path fill="#fff" d="m272.984 198.395-3.134 5.956-37.333 25.974h-5.422z" opacity=".15"/><path fill="#fff" d="m277.26 190.283-1.539 2.92-53.356 37.122h-2.657z" opacity=".15"/><path fill="#bbcaea" d="M243.333 251.238h-18.465c0-1.687.752-3.208 1.974-4.31 1.223-1.106 2.904-1.787 4.767-1.787h4.983c3.726 0 6.741 2.73 6.741 6.097zM188.64 224.703h3.407v21.639h-3.407z"/><path fill="#d1dcf8" d="M187.559 224.703h3.407v21.639h-3.407z"/><path fill="#4a5258" d="M207.49 235.614h-50.492l21.729-35.673 47.241.453z"/><path fill="#2e363a" d="M158.125 237.492h50.492l18.478-35.22-1.127-1.878-18.477 35.22h-50.493z"/><path fill="#64d3ff" d="M224.378 201.417c-11.2 21.27-16.996 32.28-17.393 33.035-72.482-.022 27.274.005-48.126-.015l.075-.124 20.23-33.317 45.214.421z"/><path fill="#fff" d="M192.122 234.448h-.75l5.739-10.417c.136-.246.275-.497.41-.747l6.454-11.697.394-.713c2.176-3.937 4.091-7.396 5.314-9.595l.701.006a9121.048 9121.048 0 0 0-5.296 9.59l-.394.716c-1.985 3.606-4.218 7.661-6.435 11.696l-.412.747c-1.998 3.635-3.971 7.228-5.725 10.414zM174.77 234.443h-.757c1.467-2.528 3.659-6.302 6.067-10.454.144-.247.29-.499.433-.75l6.825-11.75.418-.719c2.303-3.957 4.326-7.434 5.622-9.643l.71.007c-1.264 2.16-3.259 5.596-5.607 9.641l-.416.715-6.81 11.751-.434.747-6.05 10.455z"/><path fill="#fff" d="m198.259 223.287-.739-.003-16.266-.043a24.405 24.405 0 0 0-.741-.002l-14.832-.038-.457.753c4.494.007 9.628.02 14.856.035.247-.003.496-.002.74-.001 5.562.014 11.207.028 16.29.043l.737.003c6.104.015 11.348.035 14.594.053l.392-.744c-3.304-.019-8.606-.04-14.574-.056zM205.088 210.876c-.236-.002-.477-.004-.72-.002-5.132-.034-10.722-.068-15.887-.099l-.725-.005c-5.89-.036-11.16-.067-14.475-.086l-.438.722c4.386.021 9.392.05 14.495.083.245-.002.484 0 .727.001 5.43.032 10.943.064 15.91.097l.719.004c5.97.035 11.098.072 14.273.1l.376-.713c-3.229-.029-8.417-.067-14.255-.102z"/><path fill="#fff" d="m197.965 201.173-32.739 22.776 4.076-6.713 23.163-16.116z" opacity=".15"/><path fill="#fff" d="m223.307 201.406-47.48 33.035-16.968-.004.075-.124 47.525-33.061z" opacity=".15"/><path fill="#fff" d="m202.988 201.218-41.484 28.865 2.036-3.358 36.702-25.533z" opacity=".15"/><path fill="#fff" d="m220.486 208.806-2.517 4.782-29.978 20.857h-4.354z" opacity=".15"/><path fill="#fff" d="m223.92 202.292-1.237 2.344-42.843 29.809h-2.134z" opacity=".15"/><path fill="#bbcaea" d="M196.676 251.238H181.85c0-1.354.604-2.576 1.585-3.46.982-.889 2.332-1.436 3.828-1.436h4.001c2.992 0 5.413 2.192 5.413 4.896z"/><path fill="#ffcf3d" d="M204.202 82.088c-.407 1.514 3.086 4.478 2.3 5.835-.784 1.355-5.088-.197-6.196.91-1.11 1.108.506 5.55-.918 6.204-1.424.655-4.313-2.713-5.827-2.308-1.514.405-2.33 4.91-3.896 4.909-1.566-.001-2.376-4.503-3.888-4.91-1.512-.406-4.471 3.085-5.827 2.3-1.355-.783.197-5.088-.91-6.195-1.108-1.11-5.42.44-6.204-.918-.783-1.358 2.713-4.314 2.308-5.827-.404-1.514-4.909-2.33-4.908-3.897 0-1.563 4.495-2.377 4.9-3.887.406-1.513-3.085-4.472-2.3-5.827.784-1.355 5.088.197 6.196-.91 1.11-1.108-.44-5.42.918-6.205 1.356-.783 4.314 2.705 5.827 2.3 1.512-.404 2.331-4.9 3.896-4.9 1.564.001 2.378 4.495 3.888 4.9 1.514.407 4.412-2.957 5.836-2.3 1.42.657-.197 5.089.91 6.197 1.107 1.109 5.42-.44 6.204.918.783 1.357-2.714 4.313-2.309 5.827.405 1.513 4.91 2.33 4.909 3.896 0 1.565-4.502 2.376-4.909 3.888z"/><path fill="#ffd964" d="M202.68 78.195c0 7.189-5.823 13.011-13.006 13.011-3.66 0-6.97-1.51-9.333-3.949a12.947 12.947 0 0 1-3.678-9.062c0-7.183 5.822-13.006 13.01-13.006 3.725 0 7.086 1.568 9.455 4.082a12.912 12.912 0 0 1 3.551 8.924z"/><circle cx="116.292" cy="229.346" r="11.622" fill="#7cd194"/><path fill="#fff" d="m121.142 229.35-7.385 8.214c-.155.176-.442.035-.4-.196l1.298-6.971a.231.231 0 0 0-.19-.267l-2.898-.54a.231.231 0 0 1-.12-.387l7.28-7.504c.162-.169.435-.022.393.196l-1.186 6.27a.23.23 0 0 0 .19.266l2.892.54c.175.029.246.246.126.38z"/><path fill="#f3f6fd" d="M276.31 144.205h-26.43a4.227 4.227 0 0 1-4.23-4.23v-12.508a4.227 4.227 0 0 1 4.23-4.23h26.43a4.232 4.232 0 0 1 4.23 4.23v12.508a4.232 4.232 0 0 1-4.23 4.23z"/><path fill="#d1dcf8" d="M274.924 141.14h-2.631a.74.74 0 0 1-.74-.74v-13.357c0-.41.33-.74.74-.74h2.631c.41 0 .74.33.74.74v13.356a.74.74 0 0 1-.74.74z"/><path fill="#fe7b73" d="M267.915 141.14h-2.631a.74.74 0 0 1-.74-.74v-13.357c0-.41.33-.74.74-.74h2.631c.41 0 .74.33.74.74v13.356a.74.74 0 0 1-.74.74zM260.906 141.14h-2.631a.74.74 0 0 1-.74-.74v-13.357c0-.41.33-.74.74-.74h2.631c.41 0 .74.33.74.74v13.356a.74.74 0 0 1-.74.74zM253.897 141.14h-2.631a.74.74 0 0 1-.74-.74v-13.357c0-.41.33-.74.74-.74h2.631c.41 0 .74.33.74.74v13.356a.74.74 0 0 1-.74.74z"/><path fill="#d1dcf8" d="M282.359 138.453h-1.819v-9.463h1.819c.355 0 .641.292.641.648v8.167a.645.645 0 0 1-.641.648z"/></svg>