<svg xmlns="http://www.w3.org/2000/svg" enable-background="new 0 0 850 850" viewBox="0 0 850 850"><circle cx="694.7" cy="229.48" r="53.82" fill="#f3b34e"/><path fill="#d79840" d="M629.82,233.36h-22.54c-1.38,0-2.5-1.12-2.5-2.5s1.12-2.5,2.5-2.5h22.54c1.38,0,2.5,1.12,2.5,2.5
			S631.2,233.36,629.82,233.36z"/><path fill="#d79840" d="M648.45,184.39c-0.63,0-1.26-0.24-1.75-0.72l-16.09-15.79c-0.99-0.97-1-2.55-0.03-3.54
			c0.97-0.99,2.55-1,3.54-0.03l16.09,15.79c0.99,0.97,1,2.55,0.03,3.54C649.74,184.14,649.1,184.39,648.45,184.39z"/><path fill="#d79840" d="M738.92,184.39c-0.65,0-1.29-0.25-1.78-0.75c-0.97-0.99-0.95-2.57,0.03-3.54l16.09-15.79
			c0.99-0.97,2.57-0.95,3.54,0.03c0.97,0.99,0.95,2.57-0.03,3.54l-16.09,15.79C740.19,184.15,739.56,184.39,738.92,184.39z"/><path fill="#d79840" d="M693.9,167.95c-1.37,0-2.49-1.1-2.5-2.48l-0.21-22.54c-0.01-1.38,1.1-2.51,2.48-2.52
			c1.37-0.05,2.51,1.1,2.52,2.48l0.21,22.54c0.01,1.38-1.1,2.51-2.48,2.52C693.91,167.95,693.9,167.95,693.9,167.95z"/><path fill="#d79840" d="M781.46,233.36h-22.54c-1.38,0-2.5-1.12-2.5-2.5s1.12-2.5,2.5-2.5h22.54c1.38,0,2.5,1.12,2.5,2.5
			S782.84,233.36,781.46,233.36z"/><path fill="#d79840" d="M756.38,294.82c-0.63,0-1.26-0.24-1.75-0.72l-16.09-15.79c-0.99-0.97-1-2.55-0.03-3.54
			c0.97-0.99,2.55-1,3.54-0.03l16.09,15.79c0.99,0.97,1,2.55,0.03,3.54C757.67,294.57,757.03,294.82,756.38,294.82z"/><path fill="#d79840" d="M633.73,294.82c-0.65,0-1.29-0.25-1.78-0.75c-0.97-0.99-0.95-2.57,0.03-3.54l16.09-15.79
			c0.99-0.97,2.57-0.95,3.54,0.03c0.97,0.99,0.95,2.57-0.03,3.54l-16.09,15.79C634.99,294.58,634.36,294.82,633.73,294.82z"/><path fill="#d79840" d="M695.05,318c-1.37,0-2.49-1.1-2.5-2.48l-0.21-22.54c-0.01-1.38,1.1-2.51,2.48-2.52c0.01,0,0.02,0,0.02,0
			c1.37,0,2.49,1.1,2.5,2.48l0.21,22.54c0.01,1.38-1.1,2.51-2.48,2.52C695.07,318,695.06,318,695.05,318z"/><rect width="16.48" height="50.02" x="260.75" y="587.71" fill="#c8c9db" transform="rotate(-180 268.984 612.721)"/><path fill="#c8c9db" d="M248.29,639.5h41.38v-4.71c0-2.93-2.38-5.31-5.31-5.31H253.6c-2.93,0-5.31,2.38-5.31,5.31V639.5z"/><rect width="16.48" height="50.02" x="332.49" y="587.71" fill="#c8c9db" transform="rotate(-180 340.732 612.721)"/><path fill="#c8c9db" d="M320.04,639.5h41.38v-4.71c0-2.93-2.38-5.31-5.31-5.31h-30.77c-2.93,0-5.31,2.38-5.31,5.31V639.5z"/><path fill="#c8c9db" d="M229.06,596.19h157.28c2.13,0,3.55-2.19,2.68-4.13l-49.64-111.15c-0.47-1.06-1.52-1.74-2.68-1.74H180.74
				c-2.11,0-3.54,2.17-2.69,4.11l48.32,111.15C226.83,595.49,227.89,596.19,229.06,596.19z"/><path fill="#e9e9f2" d="M386.34,597.69H229.06c-1.77,0-3.36-1.05-4.07-2.67l-48.32-111.15c-0.6-1.38-0.46-2.95,0.36-4.2
				s2.21-2,3.71-2H336.7c1.75,0,3.34,1.03,4.05,2.63l49.64,111.15c0.62,1.38,0.49,2.96-0.33,4.22S387.85,597.69,386.34,597.69z
				 M180.74,480.67c-0.49,0-0.93,0.24-1.2,0.65c-0.27,0.41-0.31,0.91-0.12,1.36l48.32,111.15c0.23,0.52,0.75,0.86,1.32,0.86h157.28
				c0.5,0,0.94-0.24,1.2-0.65c0.27-0.42,0.31-0.92,0.11-1.37l-49.64-111.15c-0.23-0.52-0.75-0.85-1.31-0.85H180.74z"/><line x1="315.23" x2="366.75" y1="479.17" y2="596.19" fill="#c8c9db"/><rect width="3" height="127.86" x="339.49" y="473.75" fill="#e9e9f2" transform="rotate(-23.766 340.948 537.634)"/><line x1="286.09" x2="337.61" y1="479.17" y2="596.19" fill="#c8c9db"/><rect width="3" height="127.86" x="310.35" y="473.75" fill="#e9e9f2" transform="rotate(-23.766 311.812 537.633)"/><line x1="256.95" x2="308.47" y1="479.17" y2="596.19" fill="#c8c9db"/><rect width="3" height="127.86" x="281.21" y="473.75" fill="#e9e9f2" transform="rotate(-23.766 282.675 537.633)"/><line x1="227.81" x2="279.34" y1="479.17" y2="596.19" fill="#c8c9db"/><rect width="3" height="127.86" x="252.07" y="473.75" fill="#e9e9f2" transform="rotate(-23.766 253.539 537.632)"/><line x1="198.67" x2="250.2" y1="479.17" y2="596.19" fill="#c8c9db"/><rect width="3" height="127.86" x="222.93" y="473.75" fill="#e9e9f2" transform="rotate(-23.766 224.403 537.632)"/><line x1="346.45" x2="184.12" y1="496.74" y2="496.74" fill="#c8c9db"/><rect width="162.33" height="3" x="184.12" y="495.24" fill="#e9e9f2"/><line x1="353.85" x2="193.83" y1="516.63" y2="516.63" fill="#c8c9db"/><rect width="160.02" height="3" x="193.83" y="515.13" fill="#e9e9f2"/><line x1="366.82" x2="201.23" y1="538.36" y2="538.36" fill="#c8c9db"/><rect width="165.58" height="3" x="201.23" y="536.86" fill="#e9e9f2"/><line x1="372.83" x2="210.95" y1="559.18" y2="559.18" fill="#c8c9db"/><rect width="161.88" height="3" x="210.95" y="557.68" fill="#e9e9f2"/><line x1="382.53" x2="222.51" y1="580.92" y2="580.92" fill="#c8c9db"/><rect width="160.02" height="3" x="222.51" y="579.42" fill="#e9e9f2"/><path fill="#c8c9db" d="M292.64,299.25l-4.49,2.98c-2.38,1.58-5.37,1.54-7.19-0.09l-3.26-2.91l16.25-10.77l1.41,4.13
				C296.15,294.9,295.02,297.67,292.64,299.25z"/><path fill="#eecead" d="M288.87,296.26l-1.88,1.25c-9.89,6.56-23.23,3.86-29.79-6.03l-10.03-15.12l37.57-24.92l10.11,15.25
				C301.38,276.51,298.69,289.75,288.87,296.26z"/><path fill="#c8c9db" d="M251.99,287.68c-0.99,0-1.93-0.59-2.32-1.57c-0.51-1.28,0.11-2.74,1.39-3.25
				c11.27-4.52,34.17-30.86,34.4-31.13c0.9-1.04,2.48-1.16,3.53-0.25c1.04,0.9,1.16,2.48,0.25,3.53
				c-0.97,1.12-23.92,27.52-36.31,32.49C252.61,287.62,252.29,287.68,251.99,287.68z"/><path fill="#c8c9db" d="M257.04,295.31c-0.99,0-1.93-0.59-2.32-1.57c-0.51-1.28,0.11-2.74,1.39-3.25
				c11.27-4.52,34.17-30.86,34.4-31.13c0.9-1.04,2.48-1.16,3.53-0.25c1.04,0.9,1.16,2.48,0.25,3.53
				c-0.97,1.12-23.92,27.52-36.31,32.49C257.67,295.25,257.35,295.31,257.04,295.31z"/><path fill="#c8c9db" d="M261.86,302.57c-0.99,0-1.93-0.59-2.32-1.57c-0.51-1.28,0.11-2.74,1.39-3.25
				c11.27-4.52,34.17-30.86,34.4-31.13c0.9-1.04,2.48-1.16,3.53-0.25c1.04,0.9,1.16,2.48,0.25,3.53
				c-0.97,1.12-23.92,27.52-36.31,32.49C262.48,302.51,262.17,302.57,261.86,302.57z"/><path fill="#c8c9db" d="M267.14,162.23c-17.63-26.58-53.54-33.75-80.04-15.91c-26.34,17.74-33.26,53.85-15.38,80.09
				c8.26,12.12,20.36,20.1,33.59,23.39c9.42,2.35,17.63,8.13,23,16.23l2.86,4.31c5.43,8.19,16.47,10.42,24.66,4.99l25.62-16.99
				c7.34-4.87,9.34-14.76,4.48-22.1l-3.87-5.84c-5.42-8.17-7.43-18.07-5.96-27.77C278.14,189.01,275.35,174.61,267.14,162.23z"/><path fill="#ecf7fd" d="M203.6,215.64c-0.06,0-0.11,0-0.17,0c-1.38-0.09-2.42-1.28-2.33-2.66l1.37-20.87l21.01,12.71l-1.91-23.39
				l11.1,12.1l5.29-7.51c0.8-1.13,2.36-1.4,3.48-0.6c1.13,0.8,1.4,2.36,0.6,3.48l-8.87,12.58l-5.44-5.93l1.52,18.61l-22.34-13.51
				l-0.83,12.66C206,214.62,204.9,215.64,203.6,215.64z"/><rect width="3" height="80.4" x="255.74" y="175.16" fill="#fff" transform="rotate(-22.452 257.2 215.34)"/><rect width="3" height="80.4" x="219.32" y="199.3" fill="#fff" transform="rotate(-44.651 220.842 239.507)"/><rect width="217.78" height="137.57" x="401.17" y="329.64" fill="#e9e9f2"/><path fill="#fff" d="M553.63,447.22h-86.17c-1.55,0-2.81-1.26-2.81-2.81v-2.6c0-1.55,1.26-2.81,2.81-2.81h86.17
			c1.55,0,2.81,1.26,2.81,2.81v2.6C556.45,445.96,555.19,447.22,553.63,447.22z"/><path fill="#c8c9db" d="M440.76,453.42h-23.51v-110h23.51V453.42z M420.25,450.42h17.51v-104h-17.51V450.42z"/><rect width="20.51" height="3" x="418.75" y="353.56" fill="#c8c9db"/><rect width="20.51" height="3" x="418.75" y="361.65" fill="#c8c9db"/><rect width="20.51" height="3" x="418.75" y="369.74" fill="#c8c9db"/><rect width="20.51" height="3" x="418.75" y="377.83" fill="#c8c9db"/><g><rect width="20.51" height="3" x="418.75" y="385.92" fill="#c8c9db"/></g><g><rect width="20.51" height="3" x="418.75" y="394.01" fill="#c8c9db"/></g><g><rect width="20.51" height="3" x="418.75" y="402.1" fill="#c8c9db"/></g><g><rect width="20.51" height="3" x="418.75" y="410.19" fill="#c8c9db"/></g><g><rect width="20.51" height="3" x="418.75" y="418.28" fill="#c8c9db"/></g><g><rect width="20.51" height="3" x="418.75" y="426.37" fill="#c8c9db"/></g><g><rect width="20.51" height="3" x="418.75" y="434.46" fill="#c8c9db"/></g><g><rect width="20.51" height="3" x="418.75" y="442.55" fill="#c8c9db"/></g><g><path fill="#c8c9db" d="M602.87,453.42h-23.51v-110h23.51V453.42z M582.36,450.42h17.51v-104h-17.51V450.42z"/></g><g><rect width="20.51" height="3" x="580.86" y="353.56" fill="#c8c9db"/></g><g><rect width="20.51" height="3" x="580.86" y="361.65" fill="#c8c9db"/></g><g><rect width="20.51" height="3" x="580.86" y="369.74" fill="#c8c9db"/></g><g><rect width="20.51" height="3" x="580.86" y="377.83" fill="#c8c9db"/></g><g><rect width="20.51" height="3" x="580.86" y="385.92" fill="#c8c9db"/></g><g><rect width="20.51" height="3" x="580.86" y="394.01" fill="#c8c9db"/></g><g><rect width="20.51" height="3" x="580.86" y="402.1" fill="#c8c9db"/></g><g><rect width="20.51" height="3" x="580.86" y="410.19" fill="#c8c9db"/></g><g><rect width="20.51" height="3" x="580.86" y="418.28" fill="#c8c9db"/></g><g><rect width="20.51" height="3" x="580.86" y="426.37" fill="#c8c9db"/></g><g><rect width="20.51" height="3" x="580.86" y="434.46" fill="#c8c9db"/></g><g><rect width="20.51" height="3" x="580.86" y="442.55" fill="#c8c9db"/></g><g><rect width="228.52" height="9.41" x="395.8" y="325.53" fill="#eecead"/></g><g><rect width="228.52" height="9.41" x="395.8" y="463.09" fill="#eecead"/></g><g><path fill="#fff" d="M538.43,354.31c-6.66,5.18-13.56,9.94-20.51,14.6c-3.49,2.31-6.99,4.59-10.52,6.84
			c-3.53,2.24-7.07,4.45-10.64,6.62l-0.58-7.29c3.05,0.99,6.09,1.99,9.11,3.04c3.03,1.04,6.05,2.1,9.05,3.21
			c3.01,1.07,6,2.23,8.99,3.35c2.99,1.15,5.96,2.32,8.93,3.52l6.85,2.77l-5.56,4.46c-3.08,2.47-6.19,4.89-9.32,7.29
			c-3.15,2.38-6.31,4.74-9.53,7.04c-3.21,2.31-6.47,4.56-9.77,6.76c-3.3,2.2-6.67,4.33-10.14,6.33c2.53-3.11,5.17-6.09,7.86-9
			c2.7-2.91,5.43-5.78,8.23-8.57c2.78-2.81,5.62-5.56,8.47-8.29c2.87-2.71,5.76-5.4,8.68-8.04l1.28,7.24
			c-3.03-1.02-6.05-2.08-9.07-3.15c-3.01-1.1-6.02-2.17-9.01-3.31c-3-1.12-5.98-2.28-8.95-3.46c-2.98-1.17-5.94-2.4-8.89-3.63
			l-8.12-3.38l7.54-3.9c3.71-1.92,7.44-3.8,11.18-5.66c3.75-1.84,7.52-3.66,11.31-5.43C522.9,360.73,530.55,357.31,538.43,354.31z"/></g><g><path fill="#fba996" d="M269.75,638.13h145.31c0,0,24.98,7.92,18.74,26.65l-144.68,19.78c0,0-31.23-3.12-73.9-22.9
			c0,0-22.9-7.29-45.8-4.16l-6.25-60.37c0,0,46.84-14.57,65.58,1.04c0,0,23.94,9.37,34.35,6.25h55.17c9.2,0,16.65,7.46,16.65,16.65
			v0c0,9.2-7.46,16.65-16.65,16.65h-79.11"/></g><g><polygon fill="#195ecb" points="157 586.81 26.2 631.17 26.2 713.5 161.08 670"/></g><g><path fill="#eecead" d="M176.03,681.09l-11.05,1.59c-2.61,0.37-5.03-1.44-5.4-4.04l-12.67-88.17c-0.37-2.61,1.44-5.03,4.04-5.4
			l11.05-1.59c2.61-0.37,5.03,1.44,5.4,4.04l12.67,88.17C180.45,678.29,178.64,680.71,176.03,681.09z"/></g><g><path fill="#fba996" d="M580.25,467.13H434.94c0,0-24.98,7.92-18.74,26.65l144.68,19.78c0,0,31.23-3.12,73.9-22.9
			c0,0,22.9-7.29,45.8-4.16l6.25-60.37c0,0-46.84-14.57-65.58,1.04c0,0-23.94,9.37-34.35,6.25h-55.17c-9.2,0-16.65,7.46-16.65,16.65
			v0c0,9.2,7.46,16.65,16.65,16.65h79.11"/></g><g><polygon fill="#195ecb" points="693 415.81 823.8 460.17 823.8 542.5 688.92 499"/></g><g><path fill="#eecead" d="M673.97,510.09l11.05,1.59c2.61,0.37,5.03-1.44,5.4-4.04l12.67-88.17c0.37-2.61-1.44-5.03-4.04-5.4
			l-11.05-1.59c-2.61-0.37-5.03,1.44-5.4,4.04l-12.67,88.17C669.55,507.29,671.36,509.71,673.97,510.09z"/></g><g><path fill="#fba996" d="M215.4,303.95h112.88c0,0,19.41,6.15,14.55,20.7l-112.4,15.36c0,0-24.26-2.43-57.41-17.79
			c0,0-17.79-5.66-35.58-3.23l-4.85-46.9c0,0,36.39-11.32,50.94,0.81c0,0,18.6,7.28,26.68,4.85h42.86c7.15,0,12.94,5.79,12.94,12.94
			v0c0,7.15-5.79,12.94-12.94,12.94h-61.45"/></g><g><polygon fill="#195ecb" points="127.81 264.08 26.2 298.54 26.2 362.5 130.98 328.71"/></g><g><path fill="#eecead" d="M141.54,337.47l-6.47,0.93c-2.61,0.37-5.03-1.44-5.4-4.04l-9.54-66.39c-0.37-2.61,1.44-5.03,4.04-5.4
			l6.47-0.93c2.61-0.37,5.03,1.44,5.4,4.04l9.54,66.39C145.96,334.68,144.15,337.1,141.54,337.47z"/></g></svg>