<svg xmlns="http://www.w3.org/2000/svg" enable-background="new 0 0 850 850" viewBox="0 0 850 850"><rect width="22.58" height="68.56" x="159.26" y="605.78" fill="#c8c9db" transform="rotate(-180 170.547 640.058)"/><path fill="#c8c9db" d="M142.19,676.76h56.72v-8.42c0-2.93-2.38-5.31-5.31-5.31h-46.11c-2.93,0-5.31,2.38-5.31,5.31V676.76z"/><rect width="22.58" height="68.56" x="257.6" y="605.78" fill="#c8c9db" transform="rotate(-180 268.894 640.058)"/><path fill="#c8c9db" d="M240.53,676.76h56.72v-8.42c0-2.93-2.38-5.31-5.31-5.31h-46.11c-2.93,0-5.31,2.38-5.31,5.31V676.76z"/><path fill="#c8c9db" d="M115.83,617.4h215.59c2.92,0,4.86-3,3.68-5.67l-68.05-152.35c-0.65-1.45-2.09-2.38-3.68-2.38H49.59
				c-2.9,0-4.85,2.97-3.69,5.63l66.24,152.35C112.77,616.44,114.22,617.4,115.83,617.4z"/><path fill="#e9e9f2" d="M331.41,618.9H115.83c-2.2,0-4.19-1.3-5.07-3.32L44.52,463.22c-0.75-1.71-0.58-3.67,0.45-5.23
				c1.02-1.56,2.75-2.5,4.62-2.5h213.78c2.18,0,4.16,1.28,5.04,3.27l68.05,152.35c0.77,1.72,0.61,3.68-0.41,5.26
				C335.03,617.95,333.29,618.9,331.41,618.9z M49.59,458.5c-0.87,0-1.64,0.42-2.11,1.14s-0.55,1.6-0.2,2.39l66.24,152.35
				c0.4,0.92,1.31,1.52,2.32,1.52h215.59c0.87,0,1.64-0.42,2.12-1.15c0.47-0.73,0.54-1.61,0.19-2.4l-68.05-152.35
				c-0.41-0.91-1.31-1.5-2.31-1.5H49.59z"/><line x1="233.94" x2="304.56" y1="457" y2="617.4" fill="#c8c9db"/><rect width="3" height="175.26" x="267.75" y="449.57" fill="#e9e9f2" transform="rotate(-23.766 269.213 537.152)"/><line x1="194" x2="264.62" y1="457" y2="617.4" fill="#c8c9db"/><rect width="3" height="175.26" x="227.81" y="449.57" fill="#e9e9f2" transform="rotate(-23.766 229.276 537.151)"/><line x1="154.05" x2="224.68" y1="457" y2="617.4" fill="#c8c9db"/><rect width="3" height="175.26" x="187.87" y="449.57" fill="#e9e9f2" transform="rotate(-23.766 189.34 537.153)"/><line x1="114.11" x2="184.74" y1="457" y2="617.4" fill="#c8c9db"/><rect width="3" height="175.26" x="147.92" y="449.57" fill="#e9e9f2" transform="rotate(-23.766 149.402 537.153)"/><line x1="74.17" x2="144.79" y1="457" y2="617.4" fill="#c8c9db"/><rect width="3" height="175.26" x="107.98" y="449.57" fill="#e9e9f2" transform="rotate(-23.766 109.463 537.149)"/><g><line x1="276.73" x2="54.23" y1="481.08" y2="481.08" fill="#c8c9db"/><rect width="222.51" height="3" x="54.23" y="479.58" fill="#e9e9f2"/></g><g><line x1="286.88" x2="67.54" y1="508.34" y2="508.34" fill="#c8c9db"/><rect width="219.34" height="3" x="67.54" y="506.84" fill="#e9e9f2"/></g><g><line x1="304.65" x2="77.68" y1="538.14" y2="538.14" fill="#c8c9db"/><rect width="226.97" height="3" x="77.68" y="536.64" fill="#e9e9f2"/></g><g><line x1="312.89" x2="91" y1="566.67" y2="566.67" fill="#c8c9db"/><rect width="221.9" height="3" x="91" y="565.17" fill="#e9e9f2"/></g><g><line x1="326.18" x2="106.85" y1="596.46" y2="596.46" fill="#c8c9db"/><rect width="219.34" height="3" x="106.85" y="594.96" fill="#e9e9f2"/></g><g><rect width="22.58" height="68.56" x="628.26" y="613.78" fill="#c8c9db" transform="rotate(-180 639.547 648.058)"/><path fill="#c8c9db" d="M611.19,684.76h56.72v-8.42c0-2.93-2.38-5.31-5.31-5.31h-46.11c-2.93,0-5.31,2.38-5.31,5.31V684.76z"/><rect width="22.58" height="68.56" x="726.6" y="613.78" fill="#c8c9db" transform="rotate(-180 737.894 648.058)"/><path fill="#c8c9db" d="M709.53,684.76h56.72v-8.42c0-2.93-2.38-5.31-5.31-5.31h-46.11c-2.93,0-5.31,2.38-5.31,5.31V684.76z"/><path fill="#c8c9db" d="M584.83,625.4h215.59c2.92,0,4.86-3,3.67-5.67l-68.05-152.35c-0.65-1.45-2.09-2.38-3.67-2.38H518.59
				c-2.9,0-4.85,2.97-3.69,5.63l66.24,152.35C581.77,624.44,583.22,625.4,584.83,625.4z"/><path fill="#e9e9f2" d="M800.41,626.9H584.83c-2.2,0-4.19-1.3-5.07-3.32l-66.24-152.35c-0.75-1.71-0.58-3.67,0.45-5.23
				c1.02-1.56,2.75-2.5,4.62-2.5h213.78c2.18,0,4.16,1.28,5.04,3.27l68.05,152.35c0.77,1.72,0.61,3.68-0.41,5.26
				C804.03,625.95,802.29,626.9,800.41,626.9z M518.59,466.5c-0.87,0-1.64,0.42-2.11,1.14s-0.55,1.6-0.2,2.39l66.24,152.35
				c0.4,0.92,1.31,1.52,2.32,1.52h215.59c0.87,0,1.64-0.42,2.12-1.15c0.47-0.73,0.54-1.61,0.19-2.4l-68.05-152.35
				c-0.41-0.91-1.31-1.5-2.31-1.5H518.59z"/><line x1="702.94" x2="773.56" y1="465" y2="625.4" fill="#c8c9db"/><rect width="3" height="175.26" x="736.75" y="457.57" fill="#e9e9f2" transform="rotate(-23.766 738.17 545.16)"/><line x1="663" x2="733.62" y1="465" y2="625.4" fill="#c8c9db"/><rect width="3" height="175.26" x="696.81" y="457.57" fill="#e9e9f2" transform="rotate(-23.766 698.233 545.16)"/><line x1="623.05" x2="693.68" y1="465" y2="625.4" fill="#c8c9db"/><rect width="3" height="175.26" x="656.87" y="457.57" fill="#e9e9f2" transform="rotate(-23.766 658.3 545.161)"/><line x1="583.11" x2="653.74" y1="465" y2="625.4" fill="#c8c9db"/><rect width="3" height="175.26" x="616.92" y="457.57" fill="#e9e9f2" transform="rotate(-23.766 618.362 545.16)"/><line x1="543.17" x2="613.79" y1="465" y2="625.4" fill="#c8c9db"/><rect width="3" height="175.26" x="576.98" y="457.57" fill="#e9e9f2" transform="rotate(-23.766 578.42 545.157)"/><g><line x1="745.73" x2="523.23" y1="489.08" y2="489.08" fill="#c8c9db"/><rect width="222.51" height="3" x="523.23" y="487.58" fill="#e9e9f2"/></g><g><line x1="755.88" x2="536.54" y1="516.34" y2="516.34" fill="#c8c9db"/><rect width="219.34" height="3" x="536.54" y="514.84" fill="#e9e9f2"/></g><g><line x1="773.65" x2="546.68" y1="546.14" y2="546.14" fill="#c8c9db"/><rect width="226.97" height="3" x="546.68" y="544.64" fill="#e9e9f2"/></g><g><line x1="781.89" x2="560" y1="574.67" y2="574.67" fill="#c8c9db"/><rect width="221.9" height="3" x="560" y="573.17" fill="#e9e9f2"/></g><g><line x1="795.18" x2="575.85" y1="604.46" y2="604.46" fill="#c8c9db"/><rect width="219.34" height="3" x="575.85" y="602.96" fill="#e9e9f2"/></g></g><g><path fill="#c8c9db" d="M713.54,327.34l-4.88,1.55c-2.58,0.82-5.31,0.01-6.55-1.96l-2.22-3.51l17.65-5.61l0.21,4.15
				C717.88,324.28,716.13,326.52,713.54,327.34z"/><path fill="#eecead" d="M709.86,323.95L709.86,323.95c-11.31,3.59-23.4-2.67-26.99-13.98l-4.89-15.41l40.82-12.96l4.94,15.55
				C727.31,308.38,721.09,320.38,709.86,323.95z"/><path fill="#c8c9db" d="M680.07,306.38c-1.27,0-2.35-0.96-2.48-2.24c-0.14-1.37,0.86-2.6,2.23-2.74
				c11.45-1.19,39.21-19.26,39.48-19.45c1.16-0.75,2.71-0.43,3.46,0.72c0.76,1.16,0.43,2.71-0.72,3.46
				c-1.18,0.77-29.06,18.92-41.7,20.23C680.24,306.38,680.15,306.38,680.07,306.38z"/><path fill="#c8c9db" d="M682.7,314.67c-1.26,0-2.35-0.96-2.48-2.24c-0.14-1.37,0.85-2.6,2.23-2.75
				c11.45-1.19,39.21-19.26,39.48-19.45c1.16-0.75,2.71-0.43,3.46,0.72c0.76,1.16,0.43,2.71-0.72,3.46
				c-1.18,0.77-29.06,18.92-41.7,20.23C682.87,314.66,682.78,314.67,682.7,314.67z"/><path fill="#c8c9db" d="M685.2,322.56c-1.26,0-2.35-0.96-2.48-2.24c-0.14-1.37,0.85-2.6,2.23-2.75
				c11.45-1.19,39.21-19.26,39.48-19.45c1.16-0.75,2.71-0.43,3.46,0.72c0.76,1.16,0.43,2.71-0.72,3.46
				c-1.18,0.77-29.06,18.92-41.7,20.23C685.38,322.55,685.29,322.56,685.2,322.56z"/><path fill="#c8c9db" d="M725.98,195.51c-9.17-28.88-40.11-44.8-68.97-35.41c-28.69,9.33-44.43,40.52-34.94,69.15
				c4.39,13.22,13.36,23.67,24.58,30.13c8,4.6,13.98,12.03,16.78,20.82l1.49,4.68c2.83,8.9,12.33,13.82,21.22,10.99l27.83-8.84
				c7.97-2.53,12.38-11.05,9.85-19.02l-2.02-6.35c-2.82-8.88-2.08-18.45,1.8-26.92C729.04,222.85,730.25,208.97,725.98,195.51z"/><path fill="#ecf7fd" d="M677.9,233.34l-16.91-18.2L657,226.29c-0.47,1.3-1.9,1.98-3.2,1.51c-1.3-0.46-1.98-1.9-1.51-3.2l6.76-18.9
				l15.85,17.06l4.38-21.99l7.08,14.14l6.67-5.38c1.07-0.87,2.65-0.7,3.52,0.38c0.87,1.08,0.7,2.65-0.38,3.52l-11.5,9.27l-3.33-6.65
				L677.9,233.34z"/><rect width="3" height="76.38" x="701.57" y="203.28" fill="#fff" transform="rotate(-6.517 703.038 241.458)"/><rect width="3" height="76.38" x="662.02" y="215.84" fill="#fff" transform="rotate(-28.723 663.46 254.015)"/></g><g><path fill="#fba996" d="M421.19,291.9c53.46,23.34,92.47,27.03,89.95-25.7c0,0-5.84-30.37,7.01-14.02c0,0,19.06,53.71-6.98,80.56
			c-6.27,6.47-14.67,10.45-23.59,11.76c-13.8,2.03-43.79,5.02-57.05-4.71L421.19,291.9z"/></g><g><path fill="#e89082" d="M358.89,258.96l6.68,30.07c-9.73,9.32-22.49,10.28-33.85,9.69c0,0,0.69-23.73-6.09-30.68L358.89,258.96z"/></g><g><path fill="#fba996" d="M334.94,241.79c0.89,0.03,1.45-0.93,0.98-1.68c-7.97-12.83-10.32-22.91,4.99-22.96
			c-0.01,0.15-0.01,0.3-0.03,0.46c0,0,8.42,2.49,13.31,11.79l10.25,3.57l-2.04,4.73l2.8,3.01l-0.42,1.97l1.69,1.74l-0.82,2.23
			c8.23,6.58-0.11,8.58-6.01,15.24l-24.78,6.89C325.12,255.36,312.48,240.94,334.94,241.79z"/></g><g><path fill="#100259" d="M299.14,233.51c0.18-0.45,0.34-0.9,0.49-1.35c6.28-19.68,42.62-36.01,41.28-15.01
			c-15.31,0.05-12.96,10.13-4.99,22.96c0.47,0.75-0.09,1.72-0.98,1.68c-22.46-0.85-9.82,13.57-0.07,26.98l-7.42,2.06
			C308.14,259.36,293.56,247.42,299.14,233.51z"/></g><g><path fill="#d79840" d="M342.93,673.9l-0.72,6.45c-0.27,2.44,1.01,4.79,3.2,5.89l4.49,2.25c0.73,0.37,1.2,1.12,1.2,1.94v0
			c0,1.2-0.97,2.17-2.17,2.17h-17.97c-3.56,0-5.83-3.81-4.13-6.94l7.25-13.33L342.93,673.9z"/></g><g><path fill="#d79840" d="M471.43,673.9l-0.72,6.45c-0.27,2.44,1.01,4.79,3.2,5.89l4.49,2.25c0.73,0.37,1.2,1.12,1.2,1.94v0
			c0,1.2-0.97,2.17-2.17,2.17h-17.97c-3.56,0-5.83-3.81-4.13-6.94l7.25-13.33L471.43,673.9z"/></g><g><path fill="#195ecb" d="M342.93,447.27c7.01,45.56,45.56,157.7-10.51,226.63l18.69,7.01c0,0,81.77-98.13,85.28-164.71
			c0,0,80.6,51.4,23.36,158.87l18.69,4.67c69.66-83.18,80-168.34-17.34-257.09L342.93,447.27z"/></g><g><path fill="#d79840" d="M362.19,283.52c-2.69,6.65-6.83,16.51-31.03,8.64c0,0-47.23,26.03-42.55,103.13c0,0,17.52-8.18,45.56,1.17
			l4.09-16.94l1.03,73.02l0.14,9.92c0,0,78.27,19.86,125-35.05c0,0-38.55-84.11-42.05-85.28h15.19L424.7,284.9l-55.4-5.7
			C366.22,278.88,363.35,280.65,362.19,283.52z"/></g><g><path fill="#fff" d="M394.91,335.63c-5.11,0-9.26-4.16-9.26-9.26s4.15-9.26,9.26-9.26c5.11,0,9.26,4.16,9.26,9.26
			S400.02,335.63,394.91,335.63z M394.91,318.1c-4.56,0-8.26,3.71-8.26,8.26s3.71,8.26,8.26,8.26c4.56,0,8.26-3.71,8.26-8.26
			S399.47,318.1,394.91,318.1z"/></g><g><path fill="#fff" d="M377.39,349.65c-5.11,0-9.26-4.15-9.26-9.26s4.15-9.26,9.26-9.26c5.11,0,9.26,4.16,9.26,9.26
			S382.49,349.65,377.39,349.65z M377.39,332.12c-4.56,0-8.26,3.71-8.26,8.26c0,4.55,3.71,8.26,8.26,8.26
			c4.56,0,8.26-3.71,8.26-8.26C385.65,335.83,381.94,332.12,377.39,332.12z"/></g><g><path fill="#fff" d="M356.36,360.16c-5.11,0-9.26-4.15-9.26-9.26s4.15-9.26,9.26-9.26c5.11,0,9.26,4.16,9.26,9.26
			S361.47,360.16,356.36,360.16z M356.36,342.64c-4.56,0-8.26,3.71-8.26,8.26c0,4.55,3.71,8.26,8.26,8.26
			c4.56,0,8.26-3.71,8.26-8.26C364.62,346.34,360.92,342.64,356.36,342.64z"/></g><g><path fill="#c8c9db" d="M542.68,323.51L417.8,530.78c-1.69,2.8-4.81,4.14-5.88,2.52l-61.52-92.64c-0.59-0.88-0.37-2.43,0.55-3.96
				l123.84-205.53c1.68-2.79,4.78-4.13,5.87-2.54l62.57,90.9C543.82,320.4,543.61,321.97,542.68,323.51z"/><path fill="#e9e9f2" d="M413.32,535.5c-1.12,0-2.06-0.48-2.65-1.37l-61.52-92.64c-0.92-1.38-0.72-3.51,0.51-5.56L473.5,230.39
				c1.38-2.3,3.65-3.88,5.65-3.94c1.18-0.04,2.13,0.44,2.74,1.33l62.57,90.9c0.95,1.38,0.76,3.53-0.49,5.61L419.08,531.55
				c-1.39,2.32-3.68,3.9-5.68,3.94C413.38,535.5,413.35,535.5,413.32,535.5z M479.25,229.44c-0.57,0-2.09,0.68-3.18,2.5
				L352.23,437.47c-0.72,1.2-0.74,2.13-0.58,2.36l61.52,92.64c0.35,0.19,2.12-0.42,3.35-2.46L541.4,322.73
				c0.73-1.21,0.74-2.13,0.58-2.36l-62.57-90.9C479.38,229.45,479.32,229.44,479.25,229.44z"/><line x1="368" x2="433.35" y1="408.4" y2="504.96" fill="#c8c9db"/><rect width="3" height="116.6" x="399.18" y="398.38" fill="#e9e9f2" transform="rotate(-34.092 400.716 456.716)"/><line x1="391.13" x2="456.49" y1="370" y2="466.56" fill="#c8c9db"/><rect width="3" height="116.6" x="422.31" y="359.98" fill="#e9e9f2" transform="rotate(-34.096 423.773 418.249)"/><line x1="414.27" x2="479.63" y1="331.6" y2="428.16" fill="#c8c9db"/><rect width="3" height="116.6" x="445.45" y="321.58" fill="#e9e9f2" transform="rotate(-34.096 446.905 379.85)"/><line x1="437.4" x2="502.76" y1="293.2" y2="389.76" fill="#c8c9db"/><rect width="3" height="116.6" x="468.58" y="283.18" fill="#e9e9f2" transform="rotate(-34.096 470.042 341.455)"/><line x1="460.54" x2="525.9" y1="254.8" y2="351.36" fill="#c8c9db"/><rect width="3" height="116.6" x="491.72" y="244.78" fill="#e9e9f2" transform="rotate(-34.092 493.268 303.101)"/><g><line x1="359.16" x2="488.05" y1="453.85" y2="239.93" fill="#c8c9db"/><rect width="249.75" height="3" x="298.73" y="345.39" fill="#e9e9f2" transform="rotate(-58.916 423.628 346.898)"/></g><g><line x1="371.34" x2="498.4" y1="468.47" y2="257.6" fill="#c8c9db"/><rect width="246.19" height="3" x="311.78" y="361.54" fill="#e9e9f2" transform="rotate(-58.916 434.896 363.045)"/></g><g><line x1="380.79" x2="512.26" y1="490.89" y2="272.68" fill="#c8c9db"/><rect width="254.76" height="3" x="319.15" y="380.28" fill="#e9e9f2" transform="rotate(-58.916 446.553 381.79)"/></g><g><line x1="394.92" x2="523.45" y1="503.91" y2="290.57" fill="#c8c9db"/><rect width="249.06" height="3" x="334.65" y="395.74" fill="#e9e9f2" transform="rotate(-58.916 459.212 397.25)"/></g><g><line x1="406.96" x2="534.01" y1="522.01" y2="311.14" fill="#c8c9db"/><rect width="246.19" height="3" x="347.39" y="415.07" fill="#e9e9f2" transform="rotate(-58.916 470.514 416.583)"/></g></g><g><path fill="#fba996" d="M331.92,394.99c0,0,15.03,52.83,76.67,40.25c0,0,0-20.13,12.58-7.55c0,0,10.06-7.55,5.03,3.77
			c0,0-1.26,12.58-13.84,16.35c0,0-97.7,42.79-121.82-52.83C290.55,394.99,309.34,386.19,331.92,394.99z"/></g></svg>