<?xml version="1.0" encoding="UTF-8"?>
<svg version="1.1" xmlns="http://www.w3.org/2000/svg" width="313" height="313">
<path d="M0 0 C3.0625 0.375 3.0625 0.375 4.8125 2 C6.24031657 4.71285148 7.12081659 7.46216572 8.0625 10.375 C9.80897324 10.38379936 9.80897324 10.38379936 11.59072876 10.39277649 C22.56723954 10.45000764 33.54355228 10.52277153 44.51986122 10.61071491 C50.16280309 10.65542832 55.8056726 10.69468249 61.44873047 10.72143555 C66.89534648 10.74745857 72.34168418 10.78785433 77.7881279 10.83818626 C79.86528434 10.85486166 81.94248892 10.86637174 84.01970291 10.87261391 C86.93091203 10.88224749 89.84140802 10.91029847 92.75244141 10.94262695 C94.03853806 10.94047432 94.03853806 10.94047432 95.35061646 10.9382782 C100.32650466 11.01634389 103.73201981 11.65843096 108.0625 14.375 C109.68310547 16.09472656 109.68310547 16.09472656 110.9296875 18.015625 C111.4148584 18.74531494 111.9000293 19.47500488 112.39990234 20.22680664 C112.90730957 21.01821045 113.4147168 21.80961426 113.9375 22.625 C115.07157387 24.33812926 116.20705653 26.05032652 117.34375 27.76171875 C117.941875 28.66970215 118.54 29.57768555 119.15625 30.51318359 C122.50570933 35.54166236 125.97653481 40.48542151 129.4375 45.4375 C133.32097916 51.01323753 133.32097916 51.01323753 135.19433594 53.75830078 C137.01736188 56.39195277 137.01736188 56.39195277 139.09472656 58.75341797 C145.78521382 66.90062358 144.0625 69.04936989 144.0625 81.375 C118.9825 81.705 93.9025 82.035 68.0625 82.375 C69.0525 95.74 69.0525 95.74 70.0625 109.375 C70.0625 112.015 70.0625 114.655 70.0625 117.375 C71.3825 117.375 72.7025 117.375 74.0625 117.375 C74.0625 118.035 74.0625 118.695 74.0625 119.375 C77.6925 119.375 81.3225 119.375 85.0625 119.375 C85.0625 123.335 85.0625 127.295 85.0625 131.375 C66.9125 131.375 48.7625 131.375 30.0625 131.375 C30.0625 127.415 30.0625 123.455 30.0625 119.375 C33.3625 119.375 36.6625 119.375 40.0625 119.375 C38.22679124 110.52988631 38.22679124 110.52988631 33.0625 103.375 C31.28536468 102.11804733 31.28536468 102.11804733 29.0625 102.375 C20.43638315 105.99796908 14.28712086 113.72151506 8.3125 120.6875 C3.47134755 126.28472987 -1.46299029 130.88009806 -8.9375 132.375 C-15.61281773 132.63698264 -20.53946958 131.2615819 -25.9375 127.375 C-28.85710198 124.08695876 -30.74289165 121.00929972 -32.375 116.9375 C-32.79007812 115.90238281 -33.20515625 114.86726563 -33.6328125 113.80078125 C-35.83211403 108.02596856 -37.90843608 102.21179663 -39.9375 96.375 C-40.9275 96.375 -41.9175 96.375 -42.9375 96.375 C-47.25304803 101.18717205 -49.07554361 107.29274802 -50.8125 113.375 C-52.94437772 120.33146679 -55.28375811 125.53116053 -60.9375 130.375 C-61.2675 130.705 -61.5975 131.035 -61.9375 131.375 C-63.58394288 131.47889938 -65.23481732 131.51352583 -66.88452148 131.52026367 C-67.93909042 131.52664352 -68.99365936 131.53302338 -70.08018494 131.53959656 C-71.22805984 131.54070938 -72.37593475 131.5418222 -73.55859375 131.54296875 C-74.72882584 131.54629715 -75.89905792 131.54962555 -77.10475159 131.55305481 C-79.58553676 131.55812909 -82.06632878 131.56046298 -84.54711914 131.56030273 C-88.35509419 131.56248857 -92.16277943 131.58063751 -95.97070312 131.59960938 C-98.374999 131.60254324 -100.77929627 131.60452808 -103.18359375 131.60546875 C-104.90236977 131.61624702 -104.90236977 131.61624702 -106.65586853 131.62724304 C-107.71358963 131.62416641 -108.77131073 131.62108978 -109.86108398 131.61791992 C-110.79516586 131.61934494 -111.72924774 131.62076996 -112.69163513 131.62223816 C-114.9375 131.375 -114.9375 131.375 -116.9375 129.375 C-117.14145961 126.52948593 -117.22065967 123.78089759 -117.2121582 120.93383789 C-117.21726913 120.06054337 -117.22238007 119.18724884 -117.22764587 118.28749084 C-117.24158505 115.39081026 -117.24058185 112.49436645 -117.23828125 109.59765625 C-117.24216585 107.58987845 -117.24650003 105.58210147 -117.25126648 103.57432556 C-117.25873803 99.36177916 -117.25843068 95.14931655 -117.25317383 90.93676758 C-117.24737845 85.53151143 -117.26430738 80.12659784 -117.2875185 74.72139835 C-117.30223208 70.57362351 -117.30313078 66.42593161 -117.30000877 62.2781353 C-117.3005232 60.28498087 -117.30578355 58.29182193 -117.31582069 56.2986927 C-117.32812161 53.51408595 -117.32143169 50.73015217 -117.30981445 47.94555664 C-117.31745819 47.11791809 -117.32510193 46.29027954 -117.33297729 45.43756104 C-117.2808537 39.80106579 -117.2808537 39.80106579 -115.53911114 37.63974667 C-113.9375 36.375 -113.9375 36.375 -111.9375 36.375 C-111.9375 35.715 -111.9375 35.055 -111.9375 34.375 C-110.2875 34.375 -108.6375 34.375 -106.9375 34.375 C-106.81375 33.42625 -106.69 32.4775 -106.5625 31.5 C-105.9375 28.375 -105.9375 28.375 -103.9375 26.375 C-99.53748663 25.97551529 -95.12291838 26.04598439 -90.70678711 26.05932617 C-88.51170079 26.06248317 -86.31796615 26.03904239 -84.12304688 26.01367188 C-82.72916837 26.01139857 -81.33528623 26.01069553 -79.94140625 26.01171875 C-78.03597046 26.00724731 -78.03597046 26.00724731 -76.09204102 26.00268555 C-72.9375 26.375 -72.9375 26.375 -71.01147461 27.72973633 C-69.53363701 29.9936935 -69.72320692 31.73205198 -69.9375 34.375 C-68.2875 34.375 -66.6375 34.375 -64.9375 34.375 C-64.9375 35.035 -64.9375 35.695 -64.9375 36.375 C-64.31875 36.478125 -63.7 36.58125 -63.0625 36.6875 C-60.9375 37.375 -60.9375 37.375 -58.9375 40.375 C-58.6590271 43.27934265 -58.6590271 43.27934265 -58.61865234 46.8659668 C-58.60860672 47.5198941 -58.5985611 48.17382141 -58.58821106 48.8475647 C-58.55734986 51.00644054 -58.54033619 53.16519221 -58.5234375 55.32421875 C-58.50472817 56.8220985 -58.48515493 58.31996768 -58.4647522 59.81782532 C-58.41339999 63.7583697 -58.37379095 67.69894827 -58.33660889 71.63964844 C-58.29658851 75.66154457 -58.24548722 79.68329813 -58.1953125 83.70507812 C-58.09851669 91.59495473 -58.01412374 99.48490183 -57.9375 107.375 C-57.45156372 106.14849731 -57.45156372 106.14849731 -56.95581055 104.8972168 C-56.52051025 103.82125244 -56.08520996 102.74528809 -55.63671875 101.63671875 C-55.20963623 100.57155029 -54.78255371 99.50638184 -54.3425293 98.40893555 C-52.26857084 93.9305547 -49.47567489 89.64408745 -44.9375 87.375 C-40.99579049 87.00314061 -38.73241809 86.85673273 -35.3671875 89.05078125 C-32.71540725 91.58745207 -31.68758569 93.47233883 -30.375 96.875 C-29.9625 97.92945313 -29.55 98.98390625 -29.125 100.0703125 C-27.97226945 103.27824028 -26.91148361 106.5028912 -25.875 109.75 C-24.18315993 114.94102737 -22.60337676 119.28038254 -18.1875 122.75 C-13.20818346 124.13314348 -9.41779158 124.1302508 -4.875 121.8125 C0.0309986 117.74156499 4.31035215 113.28904331 8.4375 108.4375 C19.68946405 95.40757324 19.68946405 95.40757324 27.359375 93.93359375 C32.48058167 93.68079533 35.50163842 94.15201886 39.5 97.5 C42.86893909 100.66497409 43.83129704 102.91259408 46.0625 107.375 C46.7225 98.795 47.3825 90.215 48.0625 81.375 C45.64429932 81.38023682 43.22609863 81.38547363 40.73461914 81.39086914 C32.76381651 81.40740505 24.79301313 81.41847123 16.82219791 81.42681217 C11.98733173 81.43204097 7.15248306 81.43913854 2.31762695 81.45043945 C-2.3442712 81.46126847 -7.00615246 81.46727686 -11.66806221 81.46987724 C-13.45074288 81.47173147 -15.23342259 81.47535203 -17.01609612 81.48073006 C-19.5041596 81.48794069 -21.99215243 81.48899093 -24.48022461 81.48852539 C-25.59692032 81.4939183 -25.59692032 81.4939183 -26.73617554 81.49942017 C-31.82344784 81.48905216 -31.82344784 81.48905216 -32.9375 80.375 C-34.27975054 71.33131196 -32.67915418 65.54220501 -27.44995117 58.15356445 C-26.68271729 57.13351318 -25.9154834 56.11346191 -25.125 55.0625 C-24.34116106 53.97505355 -23.56034129 52.88542486 -22.7824707 51.79370117 C-21.23883883 49.63473632 -19.67967146 47.49064181 -18.109375 45.35058594 C-15.19295464 41.35493269 -12.40458602 37.27883397 -9.625 33.1875 C-8.79633231 31.98515335 -7.96695977 30.78329203 -7.13671875 29.58203125 C-6.04810547 27.99455078 -6.04810547 27.99455078 -4.9375 26.375 C-4.15632813 25.34246094 -3.37515625 24.30992187 -2.5703125 23.24609375 C-0.68107856 20.56165908 -0.68107856 20.56165908 -1.16796875 17.890625 C-1.48378906 17.14296875 -1.79960937 16.3953125 -2.125 15.625 C-2.57939453 14.48804688 -2.57939453 14.48804688 -3.04296875 13.328125 C-3.6514265 11.99961462 -4.28402304 10.68195391 -4.9375 9.375 C-5.125 5.875 -5.125 5.875 -4.9375 2.375 C-2.9375 0.375 -2.9375 0.375 0 0 Z " fill="#AB8C1A" transform="translate(142.9375,139.625)"/>
<path d="M0 0 C3.0625 0.375 3.0625 0.375 4.8125 2 C6.24031657 4.71285148 7.12081659 7.46216572 8.0625 10.375 C9.80897324 10.38379936 9.80897324 10.38379936 11.59072876 10.39277649 C22.56723954 10.45000764 33.54355228 10.52277153 44.51986122 10.61071491 C50.16280309 10.65542832 55.8056726 10.69468249 61.44873047 10.72143555 C66.89534648 10.74745857 72.34168418 10.78785433 77.7881279 10.83818626 C79.86528434 10.85486166 81.94248892 10.86637174 84.01970291 10.87261391 C86.93091203 10.88224749 89.84140802 10.91029847 92.75244141 10.94262695 C94.03853806 10.94047432 94.03853806 10.94047432 95.35061646 10.9382782 C100.3121279 11.01611833 103.77825759 11.60131775 108.0625 14.375 C111.96264734 19.46685902 112.74321362 24.19690436 113.47265625 30.5078125 C114.1205942 33.65739168 115.34520866 35.68504229 117.0625 38.375 C117.0625 39.035 117.0625 39.695 117.0625 40.375 C116.42441406 40.43558594 115.78632813 40.49617188 115.12890625 40.55859375 C114.30261719 40.64238281 113.47632813 40.72617188 112.625 40.8125 C111.80128906 40.89371094 110.97757813 40.97492188 110.12890625 41.05859375 C108.07587975 41.16430815 108.07587975 41.16430815 107.0625 42.375 C107.93132812 42.34277344 108.80015625 42.31054688 109.6953125 42.27734375 C118.95804435 42.37059273 118.95804435 42.37059273 122.26171875 45.375 C126.0625 51.11758475 126.0625 51.11758475 126.0625 54.375 C116.1625 54.375 106.2625 54.375 96.0625 54.375 C95.5675 52.395 95.5675 52.395 95.0625 50.375 C93.0825 50.705 91.1025 51.035 89.0625 51.375 C89.0625 52.365 89.0625 53.355 89.0625 54.375 C84.6075 54.87 84.6075 54.87 80.0625 55.375 C83.3625 55.705 86.6625 56.035 90.0625 56.375 C93.0625 63.875 93.0625 63.875 93.0625 68.375 C81.8425 68.375 70.6225 68.375 59.0625 68.375 C59.0625 65.735 59.0625 63.095 59.0625 60.375 C57.0825 60.705 55.1025 61.035 53.0625 61.375 C52.7325 63.685 52.4025 65.995 52.0625 68.375 C40.8425 68.375 29.6225 68.375 18.0625 68.375 C18.0625 67.385 18.0625 66.395 18.0625 65.375 C15.7525 65.375 13.4425 65.375 11.0625 65.375 C10.5675 66.86 10.5675 66.86 10.0625 68.375 C-0.8275 68.375 -11.7175 68.375 -22.9375 68.375 C-20.75351511 62.91503778 -18.89266427 58.67844285 -13.9375 55.375 C-14.2675 54.715 -14.5975 54.055 -14.9375 53.375 C-13.57421875 50.80859375 -13.57421875 50.80859375 -11.625 47.8125 C-10.98949219 46.82121094 -10.35398438 45.82992187 -9.69921875 44.80859375 C-7.9375 42.375 -7.9375 42.375 -5.9375 41.375 C-5.5649803 40.05207976 -5.23808526 38.71609559 -4.9375 37.375 C-3.726162 34.23128081 -2.36654368 31.73583867 0.0625 29.375 C3.67268645 28.25390698 7.11812689 28.29930746 10.875 28.375 C12.34356445 28.35759766 12.34356445 28.35759766 13.84179688 28.33984375 C16.24861191 28.31636263 18.65581124 28.34095312 21.0625 28.375 C14.7925 28.045 8.5225 27.715 2.0625 27.375 C4.0625 22.375 4.0625 22.375 6.0625 19.375 C4.0825 19.375 2.1025 19.375 0.0625 19.375 C-5.87874948 8.82928217 -5.87874948 8.82928217 -4.9375 2.375 C-2.9375 0.375 -2.9375 0.375 0 0 Z " fill="#7CB630" transform="translate(142.9375,139.625)"/>
<path d="M0 0 C0.886875 0.144375 1.77375 0.28875 2.6875 0.4375 C1.56298273 3.4094385 0.46456209 5.77190687 -1.3125 8.4375 C-0.74740723 8.42702637 -0.18231445 8.41655273 0.39990234 8.40576172 C2.95405653 8.36425212 5.50813982 8.3381904 8.0625 8.3125 C8.95195312 8.29574219 9.84140625 8.27898437 10.7578125 8.26171875 C11.60859375 8.25527344 12.459375 8.24882812 13.3359375 8.2421875 C14.51422119 8.22647705 14.51422119 8.22647705 15.71630859 8.21044922 C17.6875 8.4375 17.6875 8.4375 19.6875 10.4375 C19.0169458 10.42589844 18.3463916 10.41429687 17.65551758 10.40234375 C14.60246717 10.37277681 11.55298919 10.40453431 8.5 10.4375 C7.44490234 10.41816406 6.38980469 10.39882812 5.30273438 10.37890625 C-0.42140145 10.36393849 -0.42140145 10.36393849 -5.16650391 13.14453125 C-7.59912825 16.84452285 -8.3125 18.92440339 -8.3125 23.4375 C-9.3025 23.7675 -10.2925 24.0975 -11.3125 24.4375 C-12.99999704 26.98422255 -12.99999704 26.98422255 -14.5 30 C-15.02980469 31.01191406 -15.55960938 32.02382812 -16.10546875 33.06640625 C-16.50378906 33.84886719 -16.90210938 34.63132813 -17.3125 35.4375 C-15.9925 36.0975 -14.6725 36.7575 -13.3125 37.4375 C-14.34375 37.56125 -15.375 37.685 -16.4375 37.8125 C-21.74461082 39.58864009 -21.74461082 39.58864009 -26.3125 49.4375 C-15.4225 49.1075 -4.5325 48.7775 6.6875 48.4375 C7.1825 47.4475 7.1825 47.4475 7.6875 46.4375 C9.9975 46.4375 12.3075 46.4375 14.6875 46.4375 C14.6875 47.4275 14.6875 48.4175 14.6875 49.4375 C25.9075 49.4375 37.1275 49.4375 48.6875 49.4375 C48.6875 47.1275 48.6875 44.8175 48.6875 42.4375 C49.6875 41.4375 49.6875 41.4375 52.75 41.375 C53.719375 41.395625 54.68875 41.41625 55.6875 41.4375 C55.6875 44.0775 55.6875 46.7175 55.6875 49.4375 C66.9075 49.4375 78.1275 49.4375 89.6875 49.4375 C88.6975 46.4675 87.7075 43.4975 86.6875 40.4375 C86.6875 39.4475 86.6875 38.4575 86.6875 37.4375 C82.3975 37.4375 78.1075 37.4375 73.6875 37.4375 C76.89130017 35.30163322 77.70689967 35.20617825 81.375 35.3125 C82.18324219 35.33054688 82.99148437 35.34859375 83.82421875 35.3671875 C84.43910156 35.39039063 85.05398437 35.41359375 85.6875 35.4375 C85.6875 34.4475 85.6875 33.4575 85.6875 32.4375 C87.6675 32.1075 89.6475 31.7775 91.6875 31.4375 C92.0175 32.7575 92.3475 34.0775 92.6875 35.4375 C102.5875 35.4375 112.4875 35.4375 122.6875 35.4375 C118.20533529 25.49394703 118.20533529 25.49394703 113.0390625 24.2421875 C111.80929687 24.26539063 110.57953125 24.28859375 109.3125 24.3125 C107.44464844 24.30863281 107.44464844 24.30863281 105.5390625 24.3046875 C104.59804687 24.34851563 103.65703125 24.39234375 102.6875 24.4375 C103.6775 22.9525 103.6775 22.9525 104.6875 21.4375 C106.8515625 21.14453125 106.8515625 21.14453125 109.3125 21.25 C110.53839844 21.29060547 110.53839844 21.29060547 111.7890625 21.33203125 C112.72878906 21.38423828 112.72878906 21.38423828 113.6875 21.4375 C113.06875 20.53 112.45 19.6225 111.8125 18.6875 C108.88922135 13.65987538 108.39741206 8.1261374 107.6875 2.4375 C108.3475 2.4375 109.0075 2.4375 109.6875 2.4375 C111.0703125 4.25390625 111.0703125 4.25390625 112.8125 7 C116.99888655 13.44473086 121.35227957 19.76017933 125.75 26.0625 C126.42240723 27.02744385 127.09481445 27.9923877 127.78759766 28.98657227 C128.44679199 29.93201904 129.10598633 30.87746582 129.78515625 31.8515625 C130.42984863 32.79418945 131.07454102 33.73681641 131.73876953 34.70800781 C133.63144623 37.44161917 133.63144623 37.44161917 135.74169922 39.84667969 C139.92538179 44.94031584 141.12121857 48.70042947 140.87524414 55.26416016 C140.85491497 56.30193352 140.85491497 56.30193352 140.83417511 57.360672 C140.79905496 59.0532898 140.7451869 60.74550098 140.6875 62.4375 C117.75722277 62.46082651 94.82694748 62.47847795 71.8966608 62.48931217 C61.25052049 62.49447566 50.60438754 62.50151935 39.95825195 62.51293945 C30.68263079 62.52288469 21.40701495 62.52935304 12.1313886 62.53158849 C7.21682319 62.53289588 2.30227302 62.53598345 -2.61228752 62.54323006 C-7.23244348 62.54998775 -11.85257783 62.55211748 -16.47273827 62.55060768 C-18.17356737 62.55088412 -19.87439716 62.55289073 -21.57522202 62.55670547 C-23.88704337 62.56163881 -26.19878181 62.56049964 -28.51060486 62.55775452 C-29.80756759 62.55867631 -31.10453032 62.5595981 -32.44079494 62.56054783 C-35.3125 62.4375 -35.3125 62.4375 -36.3125 61.4375 C-37.65472908 52.39395655 -36.05419524 46.60490682 -30.82519531 39.21630859 C-30.05788086 38.19617676 -29.29056641 37.17604492 -28.5 36.125 C-27.71543951 35.03681386 -26.93388761 33.94645263 -26.15527344 32.85400391 C-24.61081505 30.69438704 -23.05092945 28.54951704 -21.47998047 26.40869141 C-18.58274892 22.43715413 -15.81869703 18.3824399 -13.0625 14.3125 C-11.87154397 12.57368114 -10.67651733 10.83829206 -9.46948242 9.1105957 C-8.63859692 7.90906409 -7.82567561 6.69503512 -7.0246582 5.47338867 C-3.67387654 0.48522898 -3.67387654 0.48522898 0 0 Z " fill="#6A9F27" transform="translate(146.3125,158.5625)"/>
<path d="M0 0 C1.08003296 0.00326294 1.08003296 0.00326294 2.18188477 0.0065918 C4.37697108 0.0097488 6.57070573 -0.01369198 8.765625 -0.0390625 C10.15950351 -0.04133581 11.55338564 -0.04203884 12.94726562 -0.04101562 C14.85270142 -0.04548706 14.85270142 -0.04548706 16.79663086 -0.05004883 C19.95117188 0.32226562 19.95117188 0.32226562 21.87719727 1.67700195 C23.35503487 3.94095912 23.16546496 5.67931761 22.95117188 8.32226562 C24.60117188 8.32226562 26.25117187 8.32226562 27.95117188 8.32226562 C27.95117188 8.98226562 27.95117188 9.64226562 27.95117188 10.32226562 C28.91023438 10.53882813 28.91023438 10.53882813 29.88867188 10.75976562 C31.95117188 11.32226562 31.95117188 11.32226562 32.95117188 12.32226562 C33.34274046 16.37736033 32.53831678 18.62662371 30.45117188 22.07617188 C29.90211182 22.99833496 29.35305176 23.92049805 28.78735352 24.87060547 C27.8784436 26.36261475 27.8784436 26.36261475 26.95117188 27.88476562 C25.65680873 30.05450732 24.36389703 32.22511538 23.07226562 34.39648438 C22.73496933 34.96059021 22.39767303 35.52469604 22.05015564 36.105896 C18.62479222 41.84062108 15.31105137 47.63820441 12.00994873 53.44509888 C10.34120901 56.37993595 8.66759796 59.31199178 6.99414062 62.24414062 C6.66210632 62.82607681 6.33007202 63.408013 5.98797607 64.00758362 C2.28370913 70.49689182 -1.44214992 76.97368999 -5.17382812 83.44726562 C-5.77702881 84.4951123 -6.38022949 85.54295898 -7.00170898 86.62255859 C-10.62057401 92.89485233 -14.30055584 99.12642111 -18.04882812 105.32226562 C-22.92382812 104.44726562 -22.92382812 104.44726562 -24.04882812 103.32226562 C-24.15999639 100.53849333 -24.20622516 97.77930019 -24.20996094 94.99462891 C-24.21492584 94.12148041 -24.21989075 93.24833191 -24.2250061 92.34872437 C-24.23966745 89.44666774 -24.24643633 86.54466577 -24.25195312 83.64257812 C-24.25770134 81.63337196 -24.26345911 79.62416583 -24.26922607 77.61495972 C-24.2797474 73.39646142 -24.28558264 69.17798224 -24.2890625 64.95947266 C-24.29454938 59.54636377 -24.31857682 54.13350617 -24.34703445 48.72047615 C-24.36563199 44.56842301 -24.37086489 40.41643073 -24.37239838 36.26433945 C-24.37543201 34.26838685 -24.38348429 32.2724355 -24.39658356 30.27652359 C-24.4135838 27.48705024 -24.41177862 24.69819512 -24.40527344 21.90869141 C-24.41448822 21.07948181 -24.423703 20.25027222 -24.43319702 19.39593506 C-24.39180805 13.74809882 -24.39180805 13.74809882 -22.65085983 11.58659172 C-21.04882812 10.32226562 -21.04882812 10.32226562 -19.04882812 10.32226562 C-19.04882812 9.66226563 -19.04882812 9.00226563 -19.04882812 8.32226562 C-17.39882813 8.32226562 -15.74882813 8.32226562 -14.04882812 8.32226562 C-13.92507812 7.37351563 -13.80132812 6.42476562 -13.67382812 5.44726562 C-12.22292686 -1.80724068 -6.06101437 0.02426689 0 0 Z " fill="#4B4B48" transform="translate(50.048828125,165.677734375)"/>
<path d="M0 0 C7.18584152 5.96365946 12.57602375 12.69130428 13.6875 22.25 C14.65552436 32.87890743 11.64668648 42.00821565 4.8203125 50.23828125 C-3.29151684 57.88954885 -12.03128075 59.62749324 -22.76953125 59.52734375 C-31.37770566 58.85349548 -39.01290286 53.89579846 -44.81640625 47.625 C-50.86960082 39.81908938 -52.42705433 30.94662267 -51.3125 21.25 C-48.97249114 11.70125416 -45.20279954 4.96654585 -37.0625 -0.5625 C-25.58636978 -7.44200817 -11.21481194 -8.03513346 0 0 Z M-13.875 11.484375 C-15.396631 13.35333482 -16.18056399 14.92863143 -17 17.1875 C-17.25136719 17.85652344 -17.50273438 18.52554688 -17.76171875 19.21484375 C-18.48665711 21.54212182 -18.48665711 21.54212182 -18.3125 25.25 C-15.3425 25.25 -12.3725 25.25 -9.3125 25.25 C-10.3025 28.22 -11.2925 31.19 -12.3125 34.25 C-8.76292716 33.06680905 -7.85631212 31.83320083 -5.5625 28.9375 C-4.92828125 28.15761719 -4.2940625 27.37773438 -3.640625 26.57421875 C-2.06402605 24.35788196 -2.06402605 24.35788196 -2.609375 21.95703125 C-2.84140625 21.39371094 -3.0734375 20.83039063 -3.3125 20.25 C-5.6225 20.25 -7.9325 20.25 -10.3125 20.25 C-9.3225 17.28 -8.3325 14.31 -7.3125 11.25 C-10.78524774 10.04478759 -10.78524774 10.04478759 -13.875 11.484375 Z M-31.5 21.75 C-33.5178369 25.64651264 -34.42684764 28.9693469 -35.3125 33.25 C-33.02544169 34.39352916 -31.71985238 34.35334439 -29.1875 34.3125 C-27.90875 34.291875 -26.63 34.27125 -25.3125 34.25 C-26.0859375 35.6421875 -26.0859375 35.6421875 -26.875 37.0625 C-28.71346246 40.17757947 -28.71346246 40.17757947 -27.3125 43.25 C-25.967369 41.67667714 -24.63674946 40.09093859 -23.3125 38.5 C-22.57 37.61828125 -21.8275 36.7365625 -21.0625 35.828125 C-18.93808397 33.21773221 -18.93808397 33.21773221 -19.3125 29.25 C-21.6225 28.92 -23.9325 28.59 -26.3125 28.25 C-25.6525 25.28 -24.9925 22.31 -24.3125 19.25 C-28.05966476 18.62547254 -28.93897966 18.82311961 -31.5 21.75 Z " fill="#DA9B02" transform="translate(144.3125,73.75)"/>
<path d="M0 0 C0.99 0.495 0.99 0.495 2 1 C2 5.95 2 10.9 2 16 C-20.93027756 16.02311652 -43.86055234 16.04097795 -66.7908392 16.05181217 C-77.43697951 16.05697566 -88.08311246 16.06401935 -98.72924805 16.07543945 C-108.00486921 16.08538469 -117.28048505 16.09185304 -126.5561114 16.09408849 C-131.47067681 16.09539588 -136.38522698 16.09848345 -141.29978752 16.10573006 C-145.91994348 16.11248775 -150.54007783 16.11461748 -155.16023827 16.11310768 C-156.86106737 16.11338412 -158.56189716 16.11539073 -160.26272202 16.11920547 C-162.57454337 16.12413881 -164.88628181 16.12299964 -167.19810486 16.12025452 C-168.49506759 16.12117631 -169.79203032 16.1220981 -171.12829494 16.12304783 C-174 16 -174 16 -175 15 C-175.07244053 12.98035801 -175.08377188 10.95832876 -175.0625 8.9375 C-175.05347656 7.83277344 -175.04445313 6.72804687 -175.03515625 5.58984375 C-175.02355469 4.73519531 -175.01195312 3.88054687 -175 3 C-174.67 3.66 -174.34 4.32 -174 5 C-116.25 5 -58.5 5 1 5 C0.67 3.35 0.34 1.7 0 0 Z " fill="#58851E" transform="translate(285,205)"/>
<path d="M0 0 C6.27 0 12.54 0 19 0 C20.31859467 2.63718935 20.31894262 4.8758155 20.53515625 7.8203125 C20.66567383 9.58375 20.66567383 9.58375 20.79882812 11.3828125 C20.9293457 13.23519531 20.9293457 13.23519531 21.0625 15.125 C21.15337891 16.33671875 21.24425781 17.5484375 21.33789062 18.796875 C21.7786194 24.8809203 22.11408683 30.9001577 22 37 C23.32 37 24.64 37 26 37 C26 37.66 26 38.32 26 39 C29.63 39 33.26 39 37 39 C37 42.96 37 46.92 37 51 C18.85 51 0.7 51 -18 51 C-18 47.04 -18 43.08 -18 39 C-10.08 38.505 -10.08 38.505 -2 38 C-2.020625 36.65164063 -2.04125 35.30328125 -2.0625 33.9140625 C-2.0625 27.0434449 -1.52183773 20.22235729 -1 13.375 C-0.85691406 11.43947266 -0.85691406 11.43947266 -0.7109375 9.46484375 C-0.47721963 6.30965256 -0.23906397 3.15479063 0 0 Z " fill="#919291" transform="translate(191,220)"/>
<path d="M0 0 C4.04262561 2.66628132 5.83130884 5.01217344 7.5625 9.5 C7.975 10.55445313 8.3875 11.60890625 8.8125 12.6953125 C9.96523055 15.90324028 11.02601639 19.1278912 12.0625 22.375 C13.75434007 27.56602737 15.33412324 31.90538254 19.75 35.375 C24.72931654 36.75814348 28.51970842 36.7552508 33.0625 34.4375 C37.9684986 30.36656499 42.24785215 25.91404331 46.375 21.0625 C57.62696405 8.03257324 57.62696405 8.03257324 65.296875 6.55859375 C70.41808167 6.30579533 73.43913842 6.77701886 77.4375 10.125 C82.34512391 15.10202465 84.14260046 18.85271168 84.1875 25.875 C84.13965342 27.58380652 84.08203325 29.29249317 84 31 C82.02 31.33 80.04 31.66 78 32 C77.82984375 31.26394531 77.6596875 30.52789062 77.484375 29.76953125 C75.68590404 22.1299999 75.68590404 22.1299999 71 16 C69.22286468 14.74304733 69.22286468 14.74304733 67 15 C58.37388315 18.62296908 52.22462086 26.34651506 46.25 33.3125 C41.40884755 38.90972987 36.47450971 43.50509806 29 45 C22.32468227 45.26198264 17.39803042 43.8865819 12 40 C9.08039802 36.71195876 7.19460835 33.63429972 5.5625 29.5625 C5.14742187 28.52738281 4.73234375 27.49226563 4.3046875 26.42578125 C2.10538597 20.65096856 0.02906392 14.83679663 -2 9 C-2.99 9 -3.98 9 -5 9 C-9.87780901 14.44106211 -11.70444925 21.6131692 -13.671875 28.46484375 C-15.27454834 33.69133959 -17.17407576 37.06080827 -21 41 C-21.33 41 -21.66 41 -22 41 C-22.97735349 28.31612359 -20.4100473 14.04974206 -12 4 C-8.17987709 -0.02118201 -5.50579066 -0.78654152 0 0 Z " fill="#333230" transform="translate(105,227)"/>
<path d="M0 0 C1.89453125 0.828125 1.89453125 0.828125 4.51953125 2.328125 C4.51953125 2.988125 4.51953125 3.648125 4.51953125 4.328125 C5.46828125 4.616875 6.41703125 4.905625 7.39453125 5.203125 C10.51953125 6.328125 10.51953125 6.328125 12.51953125 8.328125 C12.79659899 14.56874598 10.68499416 20.5671765 8.51953125 26.328125 C8.02453125 24.348125 8.02453125 24.348125 7.51953125 22.328125 C5.53953125 21.998125 3.55953125 21.668125 1.51953125 21.328125 C1.84953125 18.358125 2.17953125 15.388125 2.51953125 12.328125 C-0.78046875 12.658125 -4.08046875 12.988125 -7.48046875 13.328125 C-7.98683482 15.07629358 -8.48531494 16.82674763 -8.98046875 18.578125 C-9.25890625 19.55265625 -9.53734375 20.5271875 -9.82421875 21.53125 C-10.63275741 24.49835913 -10.63275741 24.49835913 -10.48046875 28.328125 C-7.84046875 28.658125 -5.20046875 28.988125 -2.48046875 29.328125 C-2.97546875 34.278125 -2.97546875 34.278125 -3.48046875 39.328125 C-8.10546875 41.453125 -8.10546875 41.453125 -11.48046875 40.328125 C-11.15046875 39.750625 -10.82046875 39.173125 -10.48046875 38.578125 C-9.20970977 36.12928638 -9.20970977 36.12928638 -9.48046875 32.328125 C-10.14046875 31.998125 -10.80046875 31.668125 -11.48046875 31.328125 C-11.48046875 30.668125 -11.48046875 30.008125 -11.48046875 29.328125 C-12.80046875 29.328125 -14.12046875 29.328125 -15.48046875 29.328125 C-15.15046875 26.358125 -14.82046875 23.388125 -14.48046875 20.328125 C-18.6516222 20.8553265 -18.6516222 20.8553265 -22.48046875 22.328125 C-24.06785236 24.86173401 -24.83184181 27.42281683 -25.48046875 30.328125 C-26.14046875 30.328125 -26.80046875 30.328125 -27.48046875 30.328125 C-27.48046875 33.298125 -27.48046875 36.268125 -27.48046875 39.328125 C-24.84046875 39.328125 -22.20046875 39.328125 -19.48046875 39.328125 C-19.81046875 40.648125 -20.14046875 41.968125 -20.48046875 43.328125 C-21.08375 43.43769531 -21.68703125 43.54726562 -22.30859375 43.66015625 C-26.76781852 44.54480891 -29.98913806 45.255754 -33.48046875 48.328125 C-34.14046875 48.328125 -34.80046875 48.328125 -35.48046875 48.328125 C-36.29799178 46.74737936 -37.10928872 45.16341277 -37.91796875 43.578125 C-38.37042969 42.69640625 -38.82289062 41.8146875 -39.2890625 40.90625 C-42.21491072 34.57490631 -42.58022043 27.72064137 -40.16796875 21.140625 C-39.6226603 19.86232054 -39.06099088 18.59082752 -38.48046875 17.328125 C-38.02671875 16.27625 -37.57296875 15.224375 -37.10546875 14.140625 C-35.27717026 10.97626222 -33.15757417 8.79929924 -30.48046875 6.328125 C-29.82046875 5.668125 -29.16046875 5.008125 -28.48046875 4.328125 C-26.83491601 3.59151778 -25.1645151 2.90938109 -23.48046875 2.265625 C-15.72946315 -0.71986408 -8.36558571 -2.26595393 0 0 Z " fill="#E7A404" transform="translate(135.48046875,70.671875)"/>
<path d="M0 0 C0.66 0 1.32 0 2 0 C3.3828125 1.81640625 3.3828125 1.81640625 5.125 4.5625 C9.99862828 12.07488834 15.13106647 19.39617225 20.27587891 26.72485352 C31.53717251 42.8289668 31.53717251 42.8289668 32 49 C29.23547967 50.38226016 26.9538637 50.09525387 23.875 50.0625 C22.77929688 50.05347656 21.68359375 50.04445312 20.5546875 50.03515625 C19.71164062 50.02355469 18.86859375 50.01195312 18 50 C18 49.34 18 48.68 18 48 C9.09 48 0.18 48 -9 48 C-13 39 -13 39 -14 33 C-4.43 33 5.14 33 15 33 C10.51783529 23.05644703 10.51783529 23.05644703 5.3515625 21.8046875 C4.12179687 21.82789063 2.89203125 21.85109375 1.625 21.875 C-0.24285156 21.87113281 -0.24285156 21.87113281 -2.1484375 21.8671875 C-3.08945313 21.91101563 -4.03046875 21.95484375 -5 22 C-4.34 21.01 -3.68 20.02 -3 19 C-0.8359375 18.70703125 -0.8359375 18.70703125 1.625 18.8125 C2.85089844 18.85310547 2.85089844 18.85310547 4.1015625 18.89453125 C4.72804688 18.92933594 5.35453125 18.96414062 6 19 C5.38125 18.0925 4.7625 17.185 4.125 16.25 C1.20172135 11.22237538 0.70991206 5.6886374 0 0 Z " fill="#6C9F2A" transform="translate(254,161)"/>
<path d="M0 0 C0.33 0 0.66 0 1 0 C2.23662863 21.61810044 -5.19434736 42.93523897 -19.375 59.1875 C-26.54091317 66.83841575 -33.80065154 72.92979542 -43 78 C-43.33 77.34 -43.66 76.68 -44 76 C-42.97460938 73.79882812 -42.97460938 73.79882812 -41.34375 71.03125 C-40.74103271 69.9985498 -40.13831543 68.96584961 -39.51733398 67.90185547 C-38.85161377 66.77924316 -38.18589355 65.65663086 -37.5 64.5 C-36.81174027 63.32617636 -36.12433386 62.15185201 -35.43774414 60.97705078 C-34.00750373 58.53126572 -32.57357751 56.08769735 -31.13720703 53.64550781 C-27.86667928 48.07688603 -24.65645936 42.47352298 -21.4375 36.875 C-19.58938132 33.67240807 -17.73949208 30.47084488 -15.88916016 27.26953125 C-14.59093467 25.02271868 -13.29363627 22.7753938 -11.99755859 20.52734375 C-10.04454674 17.14061425 -8.08504586 13.75766386 -6.125 10.375 C-5.52357178 9.33069824 -4.92214355 8.28639648 -4.30249023 7.21044922 C-3.75149658 6.26186035 -3.20050293 5.31327148 -2.6328125 4.3359375 C-2.14699707 3.49595215 -1.66118164 2.6559668 -1.16064453 1.79052734 C-0.58612549 0.90421631 -0.58612549 0.90421631 0 0 Z " fill="#DAB223" transform="translate(82,183)"/>
<path d="M0 0 C18.15 0 36.3 0 55 0 C55 3.96 55 7.92 55 12 C36.85 12 18.7 12 0 12 C0 8.04 0 4.08 0 0 Z " fill="#929292" transform="translate(173,259)"/>
<path d="M0 0 C3.0625 0.375 3.0625 0.375 4.75 1.875 C7.01955475 6.19796142 9.0625 10.44330898 9.0625 15.375 C15.6625 15.375 22.2625 15.375 29.0625 15.375 C27.72916667 19.375 26.39583333 23.375 25.0625 27.375 C17.4725 27.375 9.8825 27.375 2.0625 27.375 C4.0625 22.375 4.0625 22.375 6.0625 19.375 C4.0825 19.375 2.1025 19.375 0.0625 19.375 C-5.87874948 8.82928217 -5.87874948 8.82928217 -4.9375 2.375 C-2.9375 0.375 -2.9375 0.375 0 0 Z " fill="#AACD6E" transform="translate(142.9375,139.625)"/>
<path d="M0 0 C0.86625 0.165 1.7325 0.33 2.625 0.5 C1.50048273 3.4719385 0.40206209 5.83440687 -1.375 8.5 C-0.80990723 8.48952637 -0.24481445 8.47905273 0.33740234 8.46826172 C2.89155653 8.42675212 5.44563982 8.4006904 8 8.375 C8.88945312 8.35824219 9.77890625 8.34148437 10.6953125 8.32421875 C11.54609375 8.31777344 12.396875 8.31132812 13.2734375 8.3046875 C14.45172119 8.28897705 14.45172119 8.28897705 15.65380859 8.27294922 C17.625 8.5 17.625 8.5 19.625 10.5 C18.9544458 10.48839844 18.2838916 10.47679687 17.59301758 10.46484375 C14.53996717 10.43527681 11.49048919 10.46703431 8.4375 10.5 C7.38240234 10.48066406 6.32730469 10.46132812 5.24023438 10.44140625 C-0.48390145 10.42643849 -0.48390145 10.42643849 -5.22900391 13.20703125 C-7.66162825 16.90702285 -8.375 18.98690339 -8.375 23.5 C-9.365 23.83 -10.355 24.16 -11.375 24.5 C-13.06249704 27.04672255 -13.06249704 27.04672255 -14.5625 30.0625 C-15.09230469 31.07441406 -15.62210938 32.08632812 -16.16796875 33.12890625 C-16.56628906 33.91136719 -16.96460938 34.69382813 -17.375 35.5 C-16.055 36.16 -14.735 36.82 -13.375 37.5 C-14.40625 37.62375 -15.4375 37.7475 -16.5 37.875 C-20.48946361 38.94752382 -21.75698137 41.15171314 -23.8125 44.625 C-24.68789957 46.23866083 -25.54916096 47.86042213 -26.375 49.5 C-29.345 49.17 -32.315 48.84 -35.375 48.5 C-34.00568938 44.63526116 -32.22855673 41.71159954 -29.7578125 38.44921875 C-25.36962266 32.54051617 -21.29567637 26.45896594 -17.25 20.3125 C-9.77561559 8.95855416 -9.77561559 8.95855416 -6.09375 3.79296875 C-5.64708984 3.16285889 -5.20042969 2.53274902 -4.74023438 1.88354492 C-3.375 0.5 -3.375 0.5 0 0 Z " fill="#7AB52C" transform="translate(146.375,158.5)"/>
<path d="M0 0 C1.08003296 0.00326294 1.08003296 0.00326294 2.18188477 0.0065918 C4.37697108 0.0097488 6.57070573 -0.01369198 8.765625 -0.0390625 C10.15950351 -0.04133581 11.55338564 -0.04203884 12.94726562 -0.04101562 C14.85270142 -0.04548706 14.85270142 -0.04548706 16.79663086 -0.05004883 C19.95117188 0.32226562 19.95117188 0.32226562 21.87719727 1.67700195 C23.35503487 3.94095912 23.16546496 5.67931761 22.95117188 8.32226562 C24.60117188 8.32226562 26.25117187 8.32226562 27.95117188 8.32226562 C27.95117188 8.98226562 27.95117188 9.64226562 27.95117188 10.32226562 C12.44117187 10.32226562 -3.06882813 10.32226562 -19.04882812 10.32226562 C-19.04882812 9.66226563 -19.04882812 9.00226563 -19.04882812 8.32226562 C-17.39882813 8.32226562 -15.74882813 8.32226562 -14.04882812 8.32226562 C-13.86320312 6.89914063 -13.86320312 6.89914063 -13.67382812 5.44726562 C-12.22292686 -1.80724068 -6.06101437 0.02426689 0 0 Z " fill="#BBB191" transform="translate(50.048828125,165.677734375)"/>
<path d="M0 0 C9.24815898 0.02289148 18.43266974 0.51422508 27.65625 1.1328125 C30.65625 7.6328125 30.65625 7.6328125 30.65625 12.1328125 C19.43625 12.1328125 8.21625 12.1328125 -3.34375 12.1328125 C-3.34375 0.18947917 -3.34375 0.18947917 0 0 Z " fill="#96B463" transform="translate(205.34375,195.8671875)"/>
<path d="M0 0 C1.23556641 0.01740234 1.23556641 0.01740234 2.49609375 0.03515625 C3.32238281 0.04417969 4.14867187 0.05320313 5 0.0625 C5.63808594 0.07410156 6.27617188 0.08570313 6.93359375 0.09765625 C6.38253466 4.04691305 5.54424004 7.44685799 3.93359375 11.09765625 C4.57167969 11.15824219 5.20976563 11.21882812 5.8671875 11.28125 C6.69347656 11.36503906 7.51976563 11.44882813 8.37109375 11.53515625 C9.60666016 11.65697266 9.60666016 11.65697266 10.8671875 11.78125 C12.93359375 12.09765625 12.93359375 12.09765625 13.93359375 13.09765625 C14.17572276 18.787688 12.25011969 21.23015165 8.43359375 25.41015625 C7.61890625 26.25191406 6.80421875 27.09367187 5.96484375 27.9609375 C3.89656271 29.92827815 3.89656271 29.92827815 2.93359375 32.09765625 C1.94359375 32.09765625 0.95359375 32.09765625 -0.06640625 32.09765625 C0.42719384 27.81978877 0.9814294 25.00198494 2.93359375 21.09765625 C-0.69640625 20.76765625 -4.32640625 20.43765625 -8.06640625 20.09765625 C-9.13692418 14.74506661 -8.3726249 12.52031131 -6.19140625 7.84765625 C-5.76794922 6.89246094 -5.76794922 6.89246094 -5.3359375 5.91796875 C-2.73722088 0.12935826 -2.73722088 0.12935826 0 0 Z " fill="#D9B127" transform="translate(43.06640625,181.90234375)"/>
<path d="M0 0 C1.29349365 0.00523682 2.5869873 0.01047363 3.91967773 0.01586914 C4.9496714 0.01799156 4.9496714 0.01799156 6.00047302 0.02015686 C8.20144949 0.0257706 10.40232557 0.03832532 12.60327148 0.05102539 C14.09220231 0.05603863 15.58113473 0.06060184 17.07006836 0.06469727 C20.72700223 0.07574446 24.38387707 0.09301826 28.04077148 0.11352539 C28.04077148 3.74352539 28.04077148 7.37352539 28.04077148 11.11352539 C16.82077148 11.11352539 5.60077148 11.11352539 -5.95922852 11.11352539 C-3.76541408 0.14445323 -3.76541408 0.14445323 0 0 Z " fill="#ADCE73" transform="translate(166.959228515625,196.886474609375)"/>
<path d="M0 0 C10.23 0 20.46 0 31 0 C32.98 3.63 34.96 7.26 37 11 C25.78 11 14.56 11 3 11 C0 3 0 3 0 0 Z " fill="#96B364" transform="translate(241,197)"/>
<path d="M0 0 C1.2777832 0.0314209 2.55556641 0.0628418 3.87207031 0.09521484 C4.89569672 0.10794937 4.89569672 0.10794937 5.94000244 0.12094116 C8.11169911 0.15443177 10.27962915 0.22967993 12.45019531 0.30615234 C13.92540194 0.3362586 15.40066702 0.36363329 16.87597656 0.38818359 C20.48526575 0.45420149 24.09236273 0.55768317 27.70019531 0.68115234 C27.22493651 2.32811838 26.7448764 3.97369962 26.26269531 5.61865234 C25.99585938 6.53517578 25.72902344 7.45169922 25.45410156 8.39599609 C24.70019531 10.68115234 24.70019531 10.68115234 23.70019531 11.68115234 C21.25189105 11.76959027 18.83198932 11.79643986 16.38378906 11.77880859 C15.65273453 11.77739365 14.92167999 11.7759787 14.16847229 11.77452087 C11.82483899 11.76890643 9.48129992 11.75635156 7.13769531 11.74365234 C5.55241023 11.7386392 3.96712366 11.73407597 2.38183594 11.72998047 C-1.51208079 11.71893231 -5.40592674 11.70165806 -9.29980469 11.68115234 C-5.58385591 1.15263081 -5.58385591 1.15263081 0 0 Z " fill="#A9CA70" transform="translate(129.2998046875,196.31884765625)"/>
<path d="M0 0 C8.91 0 17.82 0 27 0 C30 7 30 7 30 11 C20.1 11 10.2 11 0 11 C0 7.37 0 3.74 0 0 Z " fill="#ACCE72" transform="translate(202,183)"/>
<path d="M0 0 C9.24 0 18.48 0 28 0 C25 10 25 10 24 11 C21.78144736 11.08783542 19.56011504 11.10694609 17.33984375 11.09765625 C16.34314415 11.09553383 16.34314415 11.09553383 15.3263092 11.09336853 C13.19666101 11.08775518 11.06711661 11.07520054 8.9375 11.0625 C7.49674631 11.05748671 6.05599097 11.05292351 4.61523438 11.04882812 C1.07678898 11.03778145 -2.46159539 11.02050792 -6 11 C-4.02 7.37 -2.04 3.74 0 0 Z " fill="#ACCF72" transform="translate(134,183)"/>
<path d="M0 0 C4.37385799 -0.26210888 8.74569809 -0.42144886 13.125 -0.5625 C14.3625 -0.63791016 15.6 -0.71332031 16.875 -0.79101562 C25.87224318 -1.00869086 25.87224318 -1.00869086 29.20605469 1.97314453 C33 7.53915895 33 7.53915895 33 11 C23.1 11 13.2 11 3 11 C0 3 0 3 0 0 Z " fill="#96B364" transform="translate(236,183)"/>
<path d="M0 0 C8.91 0 17.82 0 27 0 C27 3.63 27 7.26 27 11 C17.1 11 7.2 11 -3 11 C-1 2 -1 2 0 0 Z " fill="#ADCF72" transform="translate(168,183)"/>
<path d="M0 0 C7.92 0 15.84 0 24 0 C27 8 27 8 27 11 C18.09 11 9.18 11 0 11 C0 7.37 0 3.74 0 0 Z " fill="#ACCE71" transform="translate(201,169)"/>
<path d="M0 0 C7.92 0 15.84 0 24 0 C24 3.63 24 7.26 24 11 C15.09 11 6.18 11 -3 11 C-2.01 7.37 -1.02 3.74 0 0 Z " fill="#ACCF72" transform="translate(172,169)"/>
<path d="M0 0 C2.20388685 0.03982928 4.40738085 0.11131131 6.609375 0.2109375 C8.29933594 0.25154297 8.29933594 0.25154297 10.0234375 0.29296875 C12.80401737 0.36366146 15.58072859 0.4622871 18.359375 0.5859375 C17.88206662 2.0448801 17.40246458 3.50307246 16.921875 4.9609375 C16.65503906 5.77304688 16.38820312 6.58515625 16.11328125 7.421875 C15.359375 9.5859375 15.359375 9.5859375 14.359375 11.5859375 C5.779375 11.5859375 -2.800625 11.5859375 -11.640625 11.5859375 C-7.10851121 0.25565301 -7.10851121 0.25565301 0 0 Z " fill="#ACCF72" transform="translate(148.640625,168.4140625)"/>
<path d="M0 0 C3.70697705 -0.26260373 7.41156358 -0.42156838 11.125 -0.5625 C12.17171875 -0.63791016 13.2184375 -0.71332031 14.296875 -0.79101562 C17.43403517 -0.88036512 19.97127714 -0.83945265 23 0 C25.78671602 2.64221479 27.52489157 5.46593636 29 9 C29 9.66 29 10.32 29 11 C20.42 11 11.84 11 3 11 C0 3 0 3 0 0 Z " fill="#ADCF72" transform="translate(231,169)"/>
<path d="M0 0 C6.27 0 12.54 0 19 0 C23.426719 8.853438 21.10761673 24.23079252 21 34 C19.20924675 31.31387012 18.15126474 28.86684956 17.04663086 25.85864258 C13.52005738 16.32974018 9.19629746 9.26775688 1 3 C0.67 2.01 0.34 1.02 0 0 Z " fill="#7F807E" transform="translate(191,220)"/>
<path d="M0 0 C-0.26953125 1.88671875 -0.26953125 1.88671875 -1 4 C-2.63671875 5.01953125 -2.63671875 5.01953125 -4.6875 5.8125 C-10.1040414 8.28252067 -13.54164823 12.01881151 -16.1484375 17.34765625 C-17.11571677 20.36042059 -17.26612283 22.83992558 -17.25 26 C-17.25515625 27.010625 -17.2603125 28.02125 -17.265625 29.0625 C-16.99234412 32.08466508 -16.19339313 34.23264348 -15 37 C-14.875 39.8125 -14.875 39.8125 -15 42 C-16.8125 41.8125 -16.8125 41.8125 -19 41 C-23.92539109 33.88554621 -23.81549113 26.3978236 -23 18 C-22.14373329 14.87276505 -20.92454161 12.58926815 -19 10 C-18.278125 8.948125 -17.55625 7.89625 -16.8125 6.8125 C-11.93365224 1.93365224 -7.03024979 -1.99272925 0 0 Z " fill="#EDB531" transform="translate(121,74)"/>
<path d="M0 0 C6.6 0 13.2 0 20 0 C23 9 23 9 23 12 C15.41 12 7.82 12 0 12 C0 8.04 0 4.08 0 0 Z " fill="#AACE6F" transform="translate(201,155)"/>
<path d="M0 0 C6.6 0 13.2 0 20 0 C20 3.96 20 7.92 20 12 C12.41 12 4.82 12 -3 12 C-1 3 -1 3 0 0 Z " fill="#AACE6F" transform="translate(176,155)"/>
<path d="M0 0 C17.00071899 -1.52853617 17.00071899 -1.52853617 21.8203125 2.15625 C26 8.24215481 26 8.24215481 26 12 C18.74 12 11.48 12 4 12 C0 3 0 3 0 0 Z " fill="#AACE6F" transform="translate(226,155)"/>
<path d="M0 0 C2.5625 0.3125 2.5625 0.3125 4.4375 1.375 C6.29293095 4.57046442 5.42609251 6.80055711 4.5625 10.3125 C2.99880935 14.07895487 1.46185836 17.41314164 -1.4375 20.3125 C-4.23594834 20.67127543 -5.840808 20.65062547 -8.3125 19.25 C-10.16793095 16.05453558 -9.30109251 13.82444289 -8.4375 10.3125 C-4.38978784 0.56279331 -4.38978784 0.56279331 0 0 Z " fill="#EEB94C" transform="translate(148.4375,41.6875)"/>
<path d="M0 0 C1.875 1.125 1.875 1.125 3 3 C3.3125 5.875 3.3125 5.875 2 9 C-3.2215058 12.80466457 -8.56547636 14.93836803 -15 14 C-17 12 -17 12 -17.5 9.125 C-17 6 -17 6 -14.375 3.75 C-9.70659522 1.32934567 -5.34905662 -0.72284549 0 0 Z " fill="#EEB84C" transform="translate(182,74)"/>
<path d="M0 0 C4.36363636 2.36363636 4.36363636 2.36363636 6 4 C5.71269945 6.33944736 5.38063221 8.6739143 5 11 C-1.09011502 12.72111946 -4.36260358 11.26409089 -9.86328125 8.32421875 C-12 7 -12 7 -14 5 C-13.875 2 -13.875 2 -13 -1 C-8.43626225 -4.23975229 -4.70448142 -2.00422649 0 0 Z " fill="#EEB94C" transform="translate(178,117)"/>
<path d="M0 0 C2 3 2 3 1.9375 5.5 C0.67584312 8.86441835 -0.80111308 9.47325851 -4 11 C-4.78375 11.391875 -5.5675 11.78375 -6.375 12.1875 C-9.71284791 13.2206434 -12.5266358 13.26214069 -16 13 C-18 11 -18 11 -18.4375 8.0625 C-18 5 -18 5 -15.9375 3.3125 C-14.968125 2.879375 -13.99875 2.44625 -13 2 C-11.865625 1.4225 -10.73125 0.845 -9.5625 0.25 C-5.71963536 -1.09837356 -3.84416811 -1.25158962 0 0 Z " fill="#EEB84C" transform="translate(84,114)"/>
<path d="M0 0 C10.17409822 3.48020001 10.17409822 3.48020001 12.59765625 5.7421875 C13.03515625 9.3046875 13.03515625 9.3046875 12.59765625 12.7421875 C11.93765625 13.4021875 11.27765625 14.0621875 10.59765625 14.7421875 C4.63196634 14.53647405 -1.99684903 13.14768222 -6.40234375 8.7421875 C-6.71484375 5.8671875 -6.71484375 5.8671875 -6.40234375 2.7421875 C-4.20084964 0.470326 -3.19924722 -0.34333385 0 0 Z " fill="#EEB94C" transform="translate(73.40234375,72.2578125)"/>
<path d="M0 0 C3.0625 0.125 3.0625 0.125 5.0625 1.125 C5.53657856 7.64358013 4.45232147 12.47117369 1.0625 18.125 C-1.70000036 19.50625018 -3.88481099 19.31579306 -6.9375 19.125 C-8.9375 17.125 -8.9375 17.125 -9.375 14.625 C-8.69985492 9.22383935 -6.18245573 0.26308322 0 0 Z " fill="#EEB94C" transform="translate(105.9375,139.875)"/>
<path d="M0 0 C4.23686049 2.85988083 5.86142956 7.04067182 7.0390625 11.921875 C7.375 14.0625 7.375 14.0625 7.5 17.6875 C5.5 19.6875 5.5 19.6875 1.875 19.8125 C0.76125 19.77125 -0.3525 19.73 -1.5 19.6875 C-4.57863424 14.22540699 -7.04608516 9.11050159 -6.5 2.6875 C-4.41016063 -0.12574531 -3.45210789 -0.43151349 0 0 Z " fill="#EEB94C" transform="translate(105.5,41.3125)"/>
<path d="M0 0 C3.0625 0.375 3.0625 0.375 4.75 1.875 C9.41479358 10.7603211 9.41479358 10.7603211 8.3125 15.8125 C7.0625 18.375 7.0625 18.375 6.0625 19.375 C4.06291636 19.41580783 2.06204746 19.41754356 0.0625 19.375 C-5.87874948 8.82928217 -5.87874948 8.82928217 -4.9375 2.375 C-2.9375 0.375 -2.9375 0.375 0 0 Z " fill="#EEB94C" transform="translate(142.9375,139.625)"/>
<path d="M0 0 C0 2.31 0 4.62 0 7 C-11.22 7 -22.44 7 -34 7 C-33.67 5.02 -33.34 3.04 -33 1 C-32.67 1.66 -32.34 2.32 -32 3 C-28.41620061 2.69270217 -24.83306316 2.37825744 -21.25 2.0625 C-20.23421875 1.97548828 -19.2184375 1.88847656 -18.171875 1.79882812 C-17.1921875 1.71181641 -16.2125 1.62480469 -15.203125 1.53515625 C-14.30239258 1.456604 -13.40166016 1.37805176 -12.47363281 1.29711914 C-1.40816583 -0.03200377 -1.40816583 -0.03200377 0 0 Z " fill="#96B464" transform="translate(195,201)"/>
<path d="M0 0 C4.72288382 1.60399828 7.88937452 4.75872917 10.3125 9.125 C10.00390625 11.890625 10.00390625 11.890625 9.3125 14.125 C6.75 15 6.75 15 3.3125 15.125 C0.42658913 13.5881938 -1.68338097 11.70172447 -3.6875 9.125 C-4.75 5.375 -4.75 5.375 -4.6875 2.125 C-2.6875 0.125 -2.6875 0.125 0 0 Z " fill="#DA9B03" transform="translate(91.6875,61.875)"/>
<path d="M0 0 C4.29559438 1.52732245 7.09238118 4.38590955 9.8125 8 C10.375 10.8125 10.375 10.8125 9.8125 13 C7.8125 15 7.8125 15 4.5625 15.0625 C0.21576222 13.83092429 -1.44390819 12.41660114 -4.15625 8.91796875 C-5.1875 7 -5.1875 7 -5.1875 3.625 C-3.96701178 0.42121842 -3.38495703 0 0 0 Z " fill="#E8A404" transform="translate(154.1875,124)"/>
<path d="M0 0 C2.5625 1.0625 2.5625 1.0625 3.5625 2.0625 C3.96959121 5.2486672 3.85940621 6.64034799 1.98828125 9.30078125 C1.29089844 9.98527344 0.59351563 10.66976562 -0.125 11.375 C-0.80949219 12.07238281 -1.49398437 12.76976563 -2.19921875 13.48828125 C-4.87941149 15.37330337 -6.22673028 15.54704402 -9.4375 15.0625 C-11.4375 13.0625 -11.4375 13.0625 -11.7890625 10.7109375 C-11.22047874 6.4276065 -8.6501304 4.48049645 -5.61328125 1.60546875 C-3.4375 0.0625 -3.4375 0.0625 0 0 Z " fill="#DA9B02" transform="translate(160.4375,61.9375)"/>
<path d="M0 0 C2.35546875 0.8515625 2.35546875 0.8515625 4.35546875 2.8515625 C4.46884704 6.8198025 2.68813878 8.88445685 0.10546875 11.6640625 C-2.25259293 13.89138975 -3.23042066 14.76874038 -6.45703125 15.4140625 C-8.64453125 14.8515625 -8.64453125 14.8515625 -10.64453125 12.8515625 C-11.1313554 9.63103349 -10.94093062 8.27961321 -9.0703125 5.578125 C-8.37292969 4.88460937 -7.67554687 4.19109375 -6.95703125 3.4765625 C-6.27253906 2.76757812 -5.58804688 2.05859375 -4.8828125 1.328125 C-2.64453125 -0.1484375 -2.64453125 -0.1484375 0 0 Z " fill="#E7A404" transform="translate(97.64453125,124.1484375)"/>
<path d="M0 0 C3.0625 0.25 3.0625 0.25 6 1 C7.34769977 3.69539954 7.28022191 5.93011831 7.375 8.9375 C7.42398438 9.99839844 7.47296875 11.05929688 7.5234375 12.15234375 C7 15 7 15 4.7265625 17.00390625 C2 18 2 18 -0.3125 17.1875 C-0.869375 16.795625 -1.42625 16.40375 -2 16 C-2.05384521 13.70858714 -2.09272087 11.41681812 -2.125 9.125 C-2.14820312 7.84882812 -2.17140625 6.57265625 -2.1953125 5.2578125 C-2 2 -2 2 0 0 Z " fill="#DA9A02" transform="translate(123,48)"/>
<path d="M0 0 C2.5 0.25 2.5 0.25 4.5 2.25 C4.765625 5.21875 4.765625 5.21875 4.75 8.75 C4.75515625 9.9153125 4.7603125 11.080625 4.765625 12.28125 C4.5 15.25 4.5 15.25 2.5 17.25 C0 17.5 0 17.5 -2.5 17.25 C-4.5 15.25 -4.5 15.25 -4.765625 12.28125 C-4.76046875 11.1159375 -4.7553125 9.950625 -4.75 8.75 C-4.75515625 7.5846875 -4.7603125 6.419375 -4.765625 5.21875 C-4.4304537 1.47271785 -3.81517574 0.38151757 0 0 Z " fill="#DA9A02" transform="translate(125.5,135.75)"/>
<path d="M0 0 C1.1653125 0.00515625 2.330625 0.0103125 3.53125 0.015625 C4.6965625 0.01046875 5.861875 0.0053125 7.0625 0 C10.03125 0.265625 10.03125 0.265625 12.03125 2.265625 C12.28125 4.765625 12.28125 4.765625 12.03125 7.265625 C10.03125 9.265625 10.03125 9.265625 7.0625 9.53125 C5.8971875 9.52609375 4.731875 9.5209375 3.53125 9.515625 C2.3659375 9.52078125 1.200625 9.5259375 0 9.53125 C-2.96875 9.265625 -2.96875 9.265625 -4.96875 7.265625 C-5.21875 4.765625 -5.21875 4.765625 -4.96875 2.265625 C-2.96875 0.265625 -2.96875 0.265625 0 0 Z " fill="#DA9B02" transform="translate(165.96875,95.734375)"/>
<path d="M0 0 C1.59134766 -0.02513672 1.59134766 -0.02513672 3.21484375 -0.05078125 C6.0625 0.3125 6.0625 0.3125 7.95703125 1.66796875 C9.0625 3.3125 9.0625 3.3125 8.8125 5.9375 C8.0625 8.3125 8.0625 8.3125 7.0625 9.3125 C4.73089945 9.41159302 2.39620058 9.44220504 0.0625 9.4375 C-1.21625 9.44007812 -2.495 9.44265625 -3.8125 9.4453125 C-6.9375 9.3125 -6.9375 9.3125 -7.9375 8.3125 C-8.125 5.375 -8.125 5.375 -7.9375 2.3125 C-5.24648766 -0.37851234 -3.74674054 0.01362451 0 0 Z " fill="#DA9A02" transform="translate(80.9375,95.6875)"/>
<path d="M0 0 C4.29559438 1.52732245 7.09238118 4.38590955 9.8125 8 C10.375 10.8125 10.375 10.8125 9.8125 13 C7.8125 15 7.8125 15 4.5625 15.0625 C0.21576222 13.83092429 -1.44390819 12.41660114 -4.15625 8.91796875 C-5.1875 7 -5.1875 7 -5.1875 3.625 C-3.96701178 0.42121842 -3.38495703 0 0 0 Z M-3.1875 3 C-3.77713678 5.24224658 -3.77713678 5.24224658 -3.1875 8 C-1.15949909 10.4358358 1.0180956 12.48920412 3.8125 14 C6.00530078 13.74988687 6.00530078 13.74988687 7.8125 13 C7.50279053 9.59319587 7.12483339 7.43958033 5.125 4.625 C2.18800387 2.56116488 0.32637796 2.68055655 -3.1875 3 Z " fill="#DA9B02" transform="translate(154.1875,124)"/>
<path d="M0 0 C0 0.99 0 1.98 0 3 C-10.89 3 -21.78 3 -33 3 C-32.67 2.34 -32.34 1.68 -32 1 C-27.41670862 0.83216619 -22.83336053 0.6659338 -18.25 0.5 C-16.94804687 0.45230469 -15.64609375 0.40460938 -14.3046875 0.35546875 C-12.42910156 0.28779297 -12.42910156 0.28779297 -10.515625 0.21875 C-9.36352539 0.17685547 -8.21142578 0.13496094 -7.02441406 0.09179688 C-4.68382066 0.02075529 -2.34167128 0 0 0 Z " fill="#80A84A" transform="translate(217,257)"/>
<path d="M0 0 C1.32 0.66 2.64 1.32 4 2 C2.32127275 5.96790076 -0.08277074 8.86931494 -3 12 C-3.99 12 -4.98 12 -6 12 C-6.75 9.8125 -6.75 9.8125 -7 7 C-4.93629409 3.83073735 -3.15582724 2.10388482 0 0 Z " fill="#E7A403" transform="translate(158,64)"/>
<path d="M0 0 C1.32 0.66 2.64 1.32 4 2 C4 5.96 4 9.92 4 14 C2.35 14 0.7 14 -1 14 C-1.02685938 11.85423363 -1.04633088 9.70837355 -1.0625 7.5625 C-1.07410156 6.36753906 -1.08570312 5.17257813 -1.09765625 3.94140625 C-1 1 -1 1 0 0 Z " fill="#E8A403" transform="translate(124,137)"/>
<path d="M0 0 C2.35546875 0.8515625 2.35546875 0.8515625 4.35546875 2.8515625 C4.46884704 6.8198025 2.68813878 8.88445685 0.10546875 11.6640625 C-2.25259293 13.89138975 -3.23042066 14.76874038 -6.45703125 15.4140625 C-8.64453125 14.8515625 -8.64453125 14.8515625 -10.64453125 12.8515625 C-11.1313554 9.63103349 -10.94093062 8.27961321 -9.0703125 5.578125 C-8.37292969 4.88460937 -7.67554687 4.19109375 -6.95703125 3.4765625 C-6.27253906 2.76757812 -5.58804688 2.05859375 -4.8828125 1.328125 C-2.64453125 -0.1484375 -2.64453125 -0.1484375 0 0 Z M-7.19140625 6.18359375 C-8.90744157 7.85251328 -8.90744157 7.85251328 -9.08203125 10.7265625 C-8.93765625 11.4278125 -8.79328125 12.1290625 -8.64453125 12.8515625 C-6.91976214 13.80658408 -6.91976214 13.80658408 -4.64453125 13.8515625 C-1.95709619 11.58082641 -1.95709619 11.58082641 0.35546875 8.8515625 C1.01546875 8.1915625 1.67546875 7.5315625 2.35546875 6.8515625 C2.03505478 4.24875682 2.03505478 4.24875682 1.35546875 1.8515625 C-2.74385583 1.8515625 -4.20997988 3.54665992 -7.19140625 6.18359375 Z " fill="#DA9B02" transform="translate(97.64453125,124.1484375)"/>
<path d="M0 0 C4.26474248 0.47386028 6.35752899 2.77031321 9 6 C9.3125 8.8125 9.3125 8.8125 9 11 C5 11 5 11 3.26171875 9.609375 C2.74222656 8.99578125 2.22273438 8.3821875 1.6875 7.75 C0.88892578 6.84507813 0.88892578 6.84507813 0.07421875 5.921875 C-1 4 -1 4 -0.66796875 1.765625 C-0.33732422 0.89164062 -0.33732422 0.89164062 0 0 Z " fill="#E8A403" transform="translate(90,64)"/>
<path d="M0 0 C2.475 0.495 2.475 0.495 5 1 C5 4.96 5 8.92 5 13 C3.35 13 1.7 13 0 13 C0 8.71 0 4.42 0 0 Z " fill="#E8A503" transform="translate(123,50)"/>
<path d="M0 0 C3.63 0 7.26 0 11 0 C11.33 1.65 11.66 3.3 12 5 C7.71 5 3.42 5 -1 5 C-0.67 3.35 -0.34 1.7 0 0 Z " fill="#E8A403" transform="translate(164,98)"/>
<path d="M0 0 C3.63 0 7.26 0 11 0 C11.33 1.32 11.66 2.64 12 4 C11 5 11 5 8.27734375 5.09765625 C6.62412109 5.08025391 6.62412109 5.08025391 4.9375 5.0625 C3.83277344 5.05347656 2.72804688 5.04445313 1.58984375 5.03515625 C0.30787109 5.01775391 0.30787109 5.01775391 -1 5 C-0.67 3.35 -0.34 1.7 0 0 Z " fill="#E8A503" transform="translate(76,98)"/>
<path d="M0 0 C0.66 0 1.32 0 2 0 C2 1.98 2 3.96 2 6 C3.98 6 5.96 6 8 6 C8 6.66 8 7.32 8 8 C6.02 8 4.04 8 2 8 C2 9.98 2 11.96 2 14 C1.34 14 0.68 14 0 14 C0 12.02 0 10.04 0 8 C-1.98 8 -3.96 8 -6 8 C-6 7.34 -6 6.68 -6 6 C-4.02 6 -2.04 6 0 6 C0 4.02 0 2.04 0 0 Z " fill="#3C392E" transform="translate(71,253)"/>
<path d="M0 0 C5.28 0 10.56 0 16 0 C15.01 1.485 15.01 1.485 14 3 C10.9609375 3.29296875 10.9609375 3.29296875 7.375 3.1875 C6.18648437 3.16042969 4.99796875 3.13335937 3.7734375 3.10546875 C2.85820312 3.07066406 1.94296875 3.03585938 1 3 C0.67 3.66 0.34 4.32 0 5 C0 3.35 0 1.7 0 0 Z " fill="#84B93B" transform="translate(235,180)"/>
<path d="M0 0 C3.96 0 7.92 0 12 0 C4.6 6 4.6 6 1 6 C0.67 4.02 0.34 2.04 0 0 Z " fill="#ACCE71" transform="translate(236,183)"/>
<path d="M0 0 C4.42857143 5.14285714 4.42857143 5.14285714 5 9 C2.36 9 -0.28 9 -3 9 C-2.01 6.03 -1.02 3.06 0 0 Z " fill="#95B461" transform="translate(255,171)"/>
<path d="M0 0 C-0.25 2.375 -0.25 2.375 -1 5 C-3.0625 6.3125 -3.0625 6.3125 -5 7 C-5.99 6.34 -6.98 5.68 -8 5 C-7.67 4.01 -7.34 3.02 -7 2 C-4.56723614 0.81480735 -2.71982714 0 0 0 Z " fill="#3C3B37" transform="translate(35,263)"/>
</svg>
