<?xml version="1.0" encoding="UTF-8"?>
<svg version="1.1" xmlns="http://www.w3.org/2000/svg" width="1024" height="1024">
<path d="M0 0 C4.18313216 1.07832903 8.23757511 1.8397888 12.52612305 2.31274414 C54.38005499 7.03694135 98.0906751 29.00397248 132.9609375 51.94140625 C134.14514282 52.71677734 134.14514282 52.71677734 135.35327148 53.5078125 C136.07200439 53.99121094 136.7907373 54.47460938 137.53125 54.97265625 C138.17078613 55.40126953 138.81032227 55.82988281 139.46923828 56.27148438 C139.92024902 56.65755859 140.37125977 57.04363281 140.8359375 57.44140625 C140.8359375 58.10140625 140.8359375 58.76140625 140.8359375 59.44140625 C141.54105469 59.69921875 142.24617187 59.95703125 142.97265625 60.22265625 C146.07863065 61.54470811 148.79571815 63.13888479 151.6484375 64.94140625 C152.62425781 65.54984375 153.60007812 66.15828125 154.60546875 66.78515625 C155.70955078 67.605 155.70955078 67.605 156.8359375 68.44140625 C156.8359375 69.10140625 156.8359375 69.76140625 156.8359375 70.44140625 C157.56941406 70.69535156 158.30289063 70.94929688 159.05859375 71.2109375 C162.00211339 72.51502848 163.86716831 74.00621818 166.2734375 76.12890625 C171.4414029 80.4018174 176.80937667 83.1533479 182.83203125 85.99609375 C185.8359375 87.44140625 185.8359375 87.44140625 188.8359375 89.44140625 C189.2071875 88.78140625 189.5784375 88.12140625 189.9609375 87.44140625 C191.8359375 85.44140625 191.8359375 85.44140625 194.8359375 85.06640625 C197.8359375 85.44140625 197.8359375 85.44140625 200.8359375 87.44140625 C200.6915625 87.97765625 200.5471875 88.51390625 200.3984375 89.06640625 C200.2128125 89.85015625 200.0271875 90.63390625 199.8359375 91.44140625 C199.5059375 92.34890625 199.1759375 93.25640625 198.8359375 94.19140625 C198.8359375 98.70304243 200.81827549 100.18635723 203.84375 103.3515625 C205.79816239 105.40177942 207.55027531 107.50719956 209.2734375 109.75390625 C209.76714844 110.38941406 210.26085937 111.02492188 210.76953125 111.6796875 C211.8359375 113.44140625 211.8359375 113.44140625 211.8359375 116.44140625 C212.6196875 116.48265625 213.4034375 116.52390625 214.2109375 116.56640625 C218.62370451 117.63155691 221.71028344 119.67598105 225.46875 122.1640625 C227.97433327 123.75799228 227.97433327 123.75799228 231.8359375 123.44140625 C232.4959375 122.12140625 233.1559375 120.80140625 233.8359375 119.44140625 C235.8359375 121.44140625 235.8359375 121.44140625 236.1484375 123.69140625 C235.76238083 127.08870497 234.49116877 129.47578356 232.8359375 132.44140625 C233.57457031 132.71210938 234.31320312 132.9828125 235.07421875 133.26171875 C248.71315023 139.08768382 257.19978486 153.64537783 265.10644531 165.50292969 C270.80772768 175.19995769 270.80772768 175.19995769 278.8359375 182.44140625 C279.1659375 181.45140625 279.4959375 180.46140625 279.8359375 179.44140625 C282.1459375 179.44140625 284.4559375 179.44140625 286.8359375 179.44140625 C286.5059375 185.38140625 286.1759375 191.32140625 285.8359375 197.44140625 C288.8059375 197.44140625 291.7759375 197.44140625 294.8359375 197.44140625 C295.4959375 198.76140625 296.1559375 200.08140625 296.8359375 201.44140625 C298.4859375 201.44140625 300.1359375 201.44140625 301.8359375 201.44140625 C302.320625 202.55515625 302.8053125 203.66890625 303.3046875 204.81640625 C303.98155783 206.35816645 304.65865377 207.89982761 305.3359375 209.44140625 C305.65046875 210.16585937 305.965 210.8903125 306.2890625 211.63671875 C310.72454464 221.7018513 315.78849135 231.47351826 320.8187561 241.25102234 C336.08598535 270.93171349 351.87314941 302.73651804 346.796875 337.12109375 C346.58821922 339.52439131 346.58821922 339.52439131 348.3125 341.13671875 C348.81523438 341.56726563 349.31796875 341.9978125 349.8359375 342.44140625 C349.8359375 343.10140625 349.8359375 343.76140625 349.8359375 344.44140625 C352.8059375 344.44140625 355.7759375 344.44140625 358.8359375 344.44140625 C357.02945803 355.06888655 357.02945803 355.06888655 355.7109375 359.31640625 C354.87364558 362.30673452 354.43245111 364.37490971 354.8359375 367.44140625 C355.5165625 368.49328125 355.5165625 368.49328125 356.2109375 369.56640625 C358.66342066 373.90541492 359.10845182 378.5544142 359.8359375 383.44140625 C365.05730672 384.73360607 365.05730672 384.73360607 370.078125 383.39453125 C371.46682526 382.48907833 372.83356948 381.54871514 374.171875 380.5703125 C375.8359375 379.44140625 375.8359375 379.44140625 377.8359375 379.44140625 C378.82456891 383.57344177 378.97908869 387.46402929 379.00390625 391.70703125 C379.01032639 392.75931412 379.01032639 392.75931412 379.01687622 393.83285522 C379.02690018 396.11910335 379.02691586 398.40514016 379.0234375 400.69140625 C379.02250092 401.4782782 379.02156433 402.26515015 379.02059937 403.0758667 C378.82831797 477.75493116 357.04043488 552.56507117 314.8359375 614.44140625 C314.36188477 615.14072266 313.88783203 615.84003906 313.39941406 616.56054688 C304.10174024 630.21204125 293.96926565 643.13917867 282.7890625 655.3046875 C281.04697637 657.21052972 279.37638937 659.15643927 277.7109375 661.12890625 C273.99841207 665.36803103 270.08447927 669.4109333 266.1484375 673.44140625 C265.49407715 674.12549561 264.8397168 674.80958496 264.16552734 675.5144043 C263.53727051 676.15031494 262.90901367 676.78622559 262.26171875 677.44140625 C261.41734253 678.30765625 261.41734253 678.30765625 260.5559082 679.19140625 C258.8359375 680.44140625 258.8359375 680.44140625 254.8359375 680.44140625 C254.805 681.49328125 254.805 681.49328125 254.7734375 682.56640625 C253.40648794 686.75838489 250.44524162 689.01575382 246.8359375 691.44140625 C246.1759375 691.44140625 245.5159375 691.44140625 244.8359375 691.44140625 C244.8359375 692.10140625 244.8359375 692.76140625 244.8359375 693.44140625 C242.75390625 695.3515625 242.75390625 695.3515625 240.0234375 697.50390625 C239.13011719 698.21675781 238.23679687 698.92960938 237.31640625 699.6640625 C234.8359375 701.44140625 234.8359375 701.44140625 231.8359375 702.44140625 C232.25287059 697.57718685 234.16342442 695.54263952 237.8359375 692.44140625 C241.1484375 690.62890625 241.1484375 690.62890625 243.8359375 689.44140625 C242.56652253 685.52737676 241.32426056 683.65067752 237.8359375 681.44140625 C237.5884375 682.36953125 237.3409375 683.29765625 237.0859375 684.25390625 C235.73171673 687.70716921 235.06429778 688.73754943 231.8359375 690.44140625 C228.5859375 691.12890625 228.5859375 691.12890625 225.8359375 691.44140625 C225.51811433 692.91943829 225.20704885 694.39892337 224.8984375 695.87890625 C224.72441406 696.70261719 224.55039062 697.52632812 224.37109375 698.375 C223.78256385 701.27635002 223.78256385 701.27635002 223.80126953 703.59521484 C223.60239313 709.50097937 223.60239313 709.50097937 221.50219727 712.07788086 C219.60472192 713.61206072 217.66086729 714.90717979 215.5859375 716.19140625 C214.83449463 716.68672852 214.08305176 717.18205078 213.30883789 717.69238281 C210.83674056 719.30695797 208.33848856 720.87452569 205.8359375 722.44140625 C204.08924351 723.56547409 202.34315658 724.69048574 200.59765625 725.81640625 C190.30989 732.37872117 179.8582669 738.21962593 168.8359375 743.44140625 C167.76472656 743.993125 166.69351563 744.54484375 165.58984375 745.11328125 C162.61954774 746.54576443 160.09149801 747.01676792 156.8359375 747.44140625 C156.0934375 747.66828125 155.3509375 747.89515625 154.5859375 748.12890625 C153.7196875 748.28359375 153.7196875 748.28359375 152.8359375 748.44140625 C152.1759375 747.78140625 151.5159375 747.12140625 150.8359375 746.44140625 C151.18892757 742.99975304 151.88175442 741.37268087 153.8359375 738.44140625 C153.8359375 737.12140625 153.8359375 735.80140625 153.8359375 734.44140625 C159.88189948 724.92490506 166.90178158 718.26792275 177.8359375 715.44140625 C178.5578125 716.28703125 179.2796875 717.13265625 180.0234375 718.00390625 C182.54625668 720.72793836 182.54625668 720.72793836 185.4609375 720.44140625 C187.88774157 719.41959401 189.17170988 718.45599758 190.8359375 716.44140625 C188.1959375 716.11140625 185.5559375 715.78140625 182.8359375 715.44140625 C182.5059375 714.45140625 182.1759375 713.46140625 181.8359375 712.44140625 C183.14492434 709.87070974 184.49427031 707.49991963 186.0234375 705.06640625 C186.42369141 704.40640625 186.82394531 703.74640625 187.23632812 703.06640625 C193.29117429 693.21378785 193.29117429 693.21378785 196.8359375 691.44140625 C195.5159375 691.11140625 194.1959375 690.78140625 192.8359375 690.44140625 C192.72572266 691.31732422 192.72572266 691.31732422 192.61328125 692.2109375 C191.56086083 695.2306966 189.95089796 696.24621142 187.3984375 698.12890625 C186.59535156 698.73089844 185.79226563 699.33289063 184.96484375 699.953125 C182.8359375 701.44140625 182.8359375 701.44140625 180.8359375 702.44140625 C180.8359375 704.09140625 180.8359375 705.74140625 180.8359375 707.44140625 C179.83626953 707.42400391 179.83626953 707.42400391 178.81640625 707.40625 C172.09362805 707.34043259 165.5184985 707.71756986 158.8359375 708.44140625 C158.5059375 709.43140625 158.1759375 710.42140625 157.8359375 711.44140625 C155.7734375 712.12890625 155.7734375 712.12890625 153.8359375 712.44140625 C153.8359375 713.10140625 153.8359375 713.76140625 153.8359375 714.44140625 C155.4859375 714.77140625 157.1359375 715.10140625 158.8359375 715.44140625 C158.58562781 719.34396186 158.13580724 721.10229182 155.5078125 724.07421875 C154.54359375 724.89664063 153.579375 725.7190625 152.5859375 726.56640625 C151.63203125 727.39398437 150.678125 728.2215625 149.6953125 729.07421875 C148.75171875 729.85539063 147.808125 730.6365625 146.8359375 731.44140625 C145.95421875 732.20195313 145.0725 732.9625 144.1640625 733.74609375 C141.8359375 735.44140625 141.8359375 735.44140625 138.8359375 735.44140625 C138.5059375 734.78140625 138.1759375 734.12140625 137.8359375 733.44140625 C137.1759375 734.43140625 136.5159375 735.42140625 135.8359375 736.44140625 C132.82376638 735.79691018 130.31937914 734.79118443 127.5859375 733.37890625 C126.87953125 733.01667969 126.173125 732.65445313 125.4453125 732.28125 C124.91421875 732.00410156 124.383125 731.72695313 123.8359375 731.44140625 C123.8359375 730.12140625 123.8359375 728.80140625 123.8359375 727.44140625 C123.29710937 727.76753906 122.75828125 728.09367188 122.203125 728.4296875 C119.31188044 729.66538443 117.09966474 729.60933813 113.9609375 729.62890625 C105.92198814 730.10285791 99.57082078 733.22723795 92.8359375 737.44140625 C92.5059375 738.10140625 92.1759375 738.76140625 91.8359375 739.44140625 C85.14434067 742.72310891 77.96615352 744.79647812 70.69140625 746.3046875 C65.10493046 747.53842674 59.79582833 749.41188632 54.41015625 751.31835938 C46.07622253 754.19435543 37.40364838 755.84468079 28.7734375 753.37890625 C24.06341782 752.067489 20.10562295 752.91763268 15.3984375 754.00390625 C11.01708343 754.75194231 6.64437485 755.09058889 2.3984375 753.56640625 C0.8359375 752.44140625 0.8359375 752.44140625 -0.1640625 750.44140625 C-7.47235498 749.96362442 -13.56595522 751.75475646 -20.5390625 753.81640625 C-29.14550438 756.26638872 -37.43521456 758.26414092 -46.38037109 758.82177734 C-50.72546907 759.11874062 -54.11547979 760.08135944 -58.09326172 761.69287109 C-61.68680434 762.9918338 -65.40123626 763.53220157 -69.1640625 764.12890625 C-69.93878906 764.25845703 -70.71351563 764.38800781 -71.51171875 764.52148438 C-73.39465051 764.83530634 -75.27919955 765.1393998 -77.1640625 765.44140625 C-76.59816406 765.87710938 -76.03226562 766.3128125 -75.44921875 766.76171875 C-74.71574219 767.35726562 -73.98226563 767.9528125 -73.2265625 768.56640625 C-72.49566406 769.14648438 -71.76476562 769.7265625 -71.01171875 770.32421875 C-68.69813812 772.97529846 -68.47213924 774.98899074 -68.1640625 778.44140625 C-75.5714205 777.36522132 -82.8805536 776.1660987 -90.1640625 774.44140625 C-91.85107478 774.06421821 -93.53856981 773.68918224 -95.2265625 773.31640625 C-96.5390625 773.02473958 -97.8515625 772.73307292 -99.1640625 772.44140625 C-98.8340625 770.13140625 -98.5040625 767.82140625 -98.1640625 765.44140625 C-100.4740625 765.44140625 -102.7840625 765.44140625 -105.1640625 765.44140625 C-104.8340625 764.45140625 -104.5040625 763.46140625 -104.1640625 762.44140625 C-102.3515625 761.78125 -102.3515625 761.78125 -100.1640625 761.37890625 C-98.02350953 761.01439752 -98.02350953 761.01439752 -96.1640625 760.44140625 C-95.8340625 759.78140625 -95.5040625 759.12140625 -95.1640625 758.44140625 C-96.1540625 758.77140625 -97.1440625 759.10140625 -98.1640625 759.44140625 C-101.1759276 759.20226595 -104.13766061 758.89183137 -107.1328125 758.515625 C-108.98925779 758.29484033 -110.84570311 758.07405583 -112.70214844 757.85327148 C-113.67567261 757.73490936 -114.64919678 757.61654724 -115.65222168 757.49459839 C-129.39128821 755.82642636 -143.09689612 754.22547453 -156.9140625 753.37890625 C-181.94576239 751.74965807 -206.77432789 746.60272345 -230.1640625 737.44140625 C-230.1640625 736.78140625 -230.1640625 736.12140625 -230.1640625 735.44140625 C-228.5140625 735.44140625 -226.8640625 735.44140625 -225.1640625 735.44140625 C-225.1640625 733.79140625 -225.1640625 732.14140625 -225.1640625 730.44140625 C-225.96585938 730.31765625 -226.76765625 730.19390625 -227.59375 730.06640625 C-242.11226505 727.43266202 -254.72673072 720.81657905 -267.7265625 714.06640625 C-268.55438232 713.6377124 -269.38220215 713.20901855 -270.23510742 712.76733398 C-270.99670166 712.36329346 -271.7582959 711.95925293 -272.54296875 711.54296875 C-273.2191626 711.18541504 -273.89535645 710.82786133 -274.59204102 710.45947266 C-276.1640625 709.44140625 -276.1640625 709.44140625 -277.1640625 707.44140625 C-278.77562988 706.65154714 -280.3917301 705.86977736 -282.02783203 705.13208008 C-292.98875715 700.16004753 -301.93870766 693.07561199 -311.1640625 685.44140625 C-311.71803711 684.99200684 -312.27201172 684.54260742 -312.84277344 684.07958984 C-316.15326118 681.37570836 -319.16477204 678.48307287 -322.1640625 675.44140625 C-324.0924044 673.6380741 -326.02624865 671.84548532 -327.9765625 670.06640625 C-328.50282227 669.58526367 -329.02908203 669.10412109 -329.57128906 668.60839844 C-334.44790155 664.16128576 -339.38358733 659.78563445 -344.4296875 655.53125 C-345.16703125 654.90347656 -345.904375 654.27570312 -346.6640625 653.62890625 C-347.334375 653.06558594 -348.0046875 652.50226562 -348.6953125 651.921875 C-350.1640625 650.44140625 -350.1640625 650.44140625 -350.1640625 648.44140625 C-350.75469482 648.18053223 -351.34532715 647.9196582 -351.95385742 647.65087891 C-354.303066 646.36534049 -355.71635917 645.05123883 -357.52734375 643.08984375 C-358.16003174 642.41074951 -358.79271973 641.73165527 -359.44458008 641.03198242 C-360.11513428 640.30084229 -360.78568848 639.56970215 -361.4765625 638.81640625 C-362.90355751 637.27856387 -364.33064316 635.7408056 -365.7578125 634.203125 C-366.48484375 633.41599121 -367.211875 632.62885742 -367.9609375 631.81787109 C-370.11016316 629.49954634 -372.27418468 627.19624783 -374.4453125 624.8984375 C-375.12295654 624.18059082 -375.80060059 623.46274414 -376.4987793 622.72314453 C-377.79103243 621.35480144 -379.08412805 619.98725337 -380.37817383 618.62060547 C-383.15271855 615.67081429 -385.84080352 612.77113122 -388.1640625 609.44140625 C-387.5040625 609.11140625 -386.8440625 608.78140625 -386.1640625 608.44140625 C-386.81366943 607.82322021 -387.46327637 607.20503418 -388.13256836 606.56811523 C-417.72638806 578.22129264 -417.72638806 578.22129264 -418.35546875 567.0390625 C-418.29230469 566.18183594 -418.22914063 565.32460938 -418.1640625 564.44140625 C-416.5140625 563.78140625 -414.8640625 563.12140625 -413.1640625 562.44140625 C-414.4840625 560.13140625 -415.8040625 557.82140625 -417.1640625 555.44140625 C-418.8140625 555.44140625 -420.4640625 555.44140625 -422.1640625 555.44140625 C-423.57184173 551.24283329 -424.97762819 547.04359996 -426.3815918 542.84375 C-426.85923766 541.41583346 -427.33742248 539.98809708 -427.81616211 538.56054688 C-428.50517115 536.50568293 -429.19222362 534.45017361 -429.87890625 532.39453125 C-430.29261475 531.15864258 -430.70632324 529.92275391 -431.13256836 528.64941406 C-432.1640625 525.44140625 -432.1640625 525.44140625 -432.66625977 523.13964844 C-433.09472326 521.14894391 -433.09472326 521.14894391 -435.4140625 519.31640625 C-438.97448348 515.59414795 -443.1640625 509.82243539 -443.1640625 504.44140625 C-441.8440625 504.44140625 -440.5240625 504.44140625 -439.1640625 504.44140625 C-439.99550781 502.68763672 -439.99550781 502.68763672 -440.84375 500.8984375 C-441.57559823 499.350297 -442.30736477 497.80211788 -443.0390625 496.25390625 C-443.58626953 495.10051758 -443.58626953 495.10051758 -444.14453125 493.92382812 C-449.1640625 483.2915483 -449.1640625 483.2915483 -449.1640625 479.44140625 C-448.5040625 479.44140625 -447.8440625 479.44140625 -447.1640625 479.44140625 C-448.52261418 468.92461797 -450.09813637 458.43311494 -453.109375 448.2421875 C-454.5003816 443.22941185 -455.5091133 438.16376831 -456.5390625 433.06640625 C-458.04317265 425.69940474 -459.62378043 418.36904888 -461.4140625 411.06640625 C-463.82236598 401.0762766 -464.32266645 391.69779501 -464.1640625 381.44140625 C-463.5040625 381.11140625 -462.8440625 380.78140625 -462.1640625 380.44140625 C-461.8340625 381.76140625 -461.5040625 383.08140625 -461.1640625 384.44140625 C-460.5040625 384.44140625 -459.8440625 384.44140625 -459.1640625 384.44140625 C-457.8044684 377.53013626 -458.49940016 372.17865195 -460.1015625 365.44140625 C-464.39621536 346.53277377 -462.08544288 327.11813238 -457.1640625 308.44140625 C-456.5040625 307.78140625 -455.8440625 307.12140625 -455.1640625 306.44140625 C-454.8340625 319.31140625 -454.5040625 332.18140625 -454.1640625 345.44140625 C-453.5040625 341.15140625 -452.8440625 336.86140625 -452.1640625 332.44140625 C-451.1740625 332.11140625 -450.1840625 331.78140625 -449.1640625 331.44140625 C-448.8340625 328.47140625 -448.5040625 325.50140625 -448.1640625 322.44140625 C-448.8240625 322.44140625 -449.4840625 322.44140625 -450.1640625 322.44140625 C-457.13733018 308.4948709 -448.38041657 281.3323682 -444.1640625 267.50390625 C-443.9273584 266.71129395 -443.6906543 265.91868164 -443.44677734 265.10205078 C-441.70615319 259.8140936 -441.70615319 259.8140936 -438.9765625 257.9375 C-438.3784375 257.77378906 -437.7803125 257.61007812 -437.1640625 257.44140625 C-436.8340625 258.10140625 -436.5040625 258.76140625 -436.1640625 259.44140625 C-435.69226563 257.97380859 -435.69226563 257.97380859 -435.2109375 256.4765625 C-432.86871164 249.2734599 -430.41247083 242.29915716 -427.1640625 235.44140625 C-426.5040625 235.44140625 -425.8440625 235.44140625 -425.1640625 235.44140625 C-425.01710938 234.80976563 -424.87015625 234.178125 -424.71875 233.52734375 C-420.48320721 216.63385699 -412.40189124 202.58225412 -401.1640625 189.44140625 C-404.1340625 189.44140625 -407.1040625 189.44140625 -410.1640625 189.44140625 C-409.59339086 185.66471885 -408.55440109 183.04899283 -406.51171875 179.83203125 C-405.71797852 178.57712891 -405.71797852 178.57712891 -404.90820312 177.296875 C-404.35326172 176.43707031 -403.79832031 175.57726562 -403.2265625 174.69140625 C-402.67548828 173.81613281 -402.12441406 172.94085938 -401.55664062 172.0390625 C-397.43333363 165.57604181 -397.43333363 165.57604181 -395.1640625 164.44140625 C-394.47356122 163.23676549 -393.83735942 162.00085393 -393.2265625 160.75390625 C-390.74200629 156.13546693 -387.75467425 152.06537695 -384.5390625 147.94140625 C-384.05961182 147.31790283 -383.58016113 146.69439941 -383.08618164 146.05200195 C-379.53390484 141.56468703 -379.53390484 141.56468703 -376.1640625 140.44140625 C-375.8340625 141.76140625 -375.5040625 143.08140625 -375.1640625 144.44140625 C-370.16662158 140.7549823 -366.73003546 137.09297091 -363.7265625 131.62890625 C-359.48328869 123.96056837 -354.10011815 118.06310581 -347.6171875 112.2109375 C-346.68531616 111.36680298 -346.68531616 111.36680298 -345.73461914 110.50561523 C-344.51348843 109.41019148 -343.28141484 108.32679875 -342.03686523 107.25805664 C-338.29391761 103.9309336 -336.14678104 100.86209754 -334.07885742 96.31103516 C-318.85912063 65.20541884 -263.20021338 40.86102947 -233.1640625 28.44140625 C-229.43236484 27.17666545 -225.67042097 26.20842907 -221.80859375 25.41796875 C-218.98676986 24.63644187 -218.98676986 24.63644187 -217.30078125 22.08984375 C-200.59214771 1.37969102 -141.8480267 -3.14693891 -116.4140625 -6.15234375 C-78.5527472 -10.05918499 -36.92162713 -9.56503728 0 0 Z M-86.0390625 41.81640625 C-86.75964844 41.84734375 -87.48023438 41.87828125 -88.22265625 41.91015625 C-91.97155754 42.11727787 -94.96649617 42.3822405 -98.1640625 44.44140625 C-95.61423817 45.71631841 -93.99940826 45.46737241 -91.15625 45.3203125 C-90.17011719 45.27197266 -89.18398438 45.22363281 -88.16796875 45.17382812 C-87.13542969 45.11775391 -86.10289062 45.06167969 -85.0390625 45.00390625 C-83.47865234 44.9255957 -83.47865234 44.9255957 -81.88671875 44.84570312 C-79.31221134 44.71579679 -76.73806954 44.58082373 -74.1640625 44.44140625 C-74.8240625 44.11140625 -75.4840625 43.78140625 -76.1640625 43.44140625 C-76.1640625 42.78140625 -76.1640625 42.12140625 -76.1640625 41.44140625 C-79.46068051 41.44140625 -82.74808397 41.64166403 -86.0390625 41.81640625 Z M-125.1640625 48.44140625 C-125.4940625 49.43140625 -125.8240625 50.42140625 -126.1640625 51.44140625 C-128.89428711 52.60473633 -128.89428711 52.60473633 -132.56640625 53.7109375 C-133.22718674 53.91247437 -133.88796722 54.11401123 -134.56877136 54.32165527 C-136.74255621 54.97930753 -138.92153595 55.61727681 -141.1015625 56.25390625 C-142.60599762 56.70258202 -144.11039186 57.15139489 -145.61474609 57.6003418 C-155.83039268 60.61707172 -166.10562201 63.16914754 -176.50830078 65.46411133 C-199.51024753 70.5722128 -224.40409441 80.37854717 -241.1640625 97.44140625 C-243.50475458 99.54393626 -245.8975919 101.58448606 -248.2890625 103.62890625 C-252.89278901 107.58681043 -257.44769209 111.57899892 -261.9140625 115.69140625 C-266.33928136 119.74840482 -270.91304222 123.56924086 -275.58984375 127.33203125 C-277.97280044 129.28468165 -280.25881531 131.30828779 -282.5390625 133.37890625 C-285.30935222 135.83887838 -287.6461337 137.20537721 -291.1640625 138.44140625 C-292.86701037 139.72807797 -294.54352438 141.05237358 -296.1640625 142.44140625 C-296.4940625 141.78140625 -296.8240625 141.12140625 -297.1640625 140.44140625 C-301.76333489 144.7407261 -305.75572037 149.28504529 -309.6015625 154.25390625 C-310.05063965 154.82906982 -310.4997168 155.4042334 -310.96240234 155.99682617 C-313.39531999 158.89128504 -313.39531999 158.89128504 -314.1640625 162.44140625 C-314.74671875 162.50457031 -315.329375 162.56773437 -315.9296875 162.6328125 C-319.08815373 163.77582388 -320.06165295 165.62008263 -321.9140625 168.37890625 C-322.52765625 169.27480469 -323.14125 170.17070312 -323.7734375 171.09375 C-325.33394431 173.2734323 -325.33394431 173.2734323 -325.1640625 175.44140625 C-326.1540625 175.11140625 -327.1440625 174.78140625 -328.1640625 174.44140625 C-331.4640625 179.06140625 -334.7640625 183.68140625 -338.1640625 188.44140625 C-337.5040625 188.77140625 -336.8440625 189.10140625 -336.1640625 189.44140625 C-338.14520945 193.11853506 -340.15215282 196.78102863 -342.1640625 200.44140625 C-342.73253906 201.49070312 -343.30101562 202.54 -343.88671875 203.62109375 C-348.31501159 211.61270503 -353.24591739 219.13532502 -358.50805664 226.60546875 C-363.75715363 234.10349445 -368.03363157 240.55354672 -369.53759766 249.67431641 C-371.11549209 256.64386257 -374.55760398 263.20516479 -377.43945312 269.71679688 C-377.92994141 270.86728516 -378.42042969 272.01777344 -378.92578125 273.203125 C-379.37912842 274.23397217 -379.83247559 275.26481934 -380.29956055 276.3269043 C-381.33377432 280.05281933 -380.8602 282.6718511 -380.1640625 286.44140625 C-380.6875 289.28515625 -380.6875 289.28515625 -381.5390625 291.94140625 C-383.76266902 299.00707184 -384.34229657 306.02745811 -384.7265625 313.37890625 C-384.79133789 314.54776367 -384.79133789 314.54776367 -384.85742188 315.74023438 C-384.96234327 317.64047742 -385.063587 319.54092294 -385.1640625 321.44140625 C-385.8240625 321.77140625 -386.4840625 322.10140625 -387.1640625 322.44140625 C-387.64986816 324.50449413 -387.64986816 324.50449413 -387.83203125 326.9921875 C-387.92033203 327.91837891 -388.00863281 328.84457031 -388.09960938 329.79882812 C-388.18275391 330.77400391 -388.26589844 331.74917969 -388.3515625 332.75390625 C-388.44630859 333.71748047 -388.54105469 334.68105469 -388.63867188 335.67382812 C-389.02471902 339.92624057 -389.25040101 343.30511553 -388.1640625 347.44140625 C-388.01898402 349.31897363 -387.91772551 351.20017118 -387.84765625 353.08203125 C-387.80576172 354.15195312 -387.76386719 355.221875 -387.72070312 356.32421875 C-387.68138672 357.43539063 -387.64207031 358.5465625 -387.6015625 359.69140625 C-387.53678711 361.38136719 -387.53678711 361.38136719 -387.47070312 363.10546875 C-387.36474235 365.88399579 -387.26267108 368.66261016 -387.1640625 371.44140625 C-387.8240625 371.44140625 -388.4840625 371.44140625 -389.1640625 371.44140625 C-389.1640625 372.76140625 -389.1640625 374.08140625 -389.1640625 375.44140625 C-389.8240625 375.44140625 -390.4840625 375.44140625 -391.1640625 375.44140625 C-390.7831213 380.45929498 -390.3921922 385.47627065 -389.9921875 390.49267578 C-389.85763538 392.19754172 -389.72576398 393.90262151 -389.59667969 395.60791016 C-389.41013096 398.06604839 -389.21379691 400.52324354 -389.015625 402.98046875 C-388.96032623 403.73695709 -388.90502747 404.49344543 -388.84805298 405.27285767 C-388.48721383 409.61111596 -387.72676784 413.33845421 -386.1640625 417.44140625 C-382.73705677 427.24050076 -380.1640625 436.01995691 -380.1640625 446.44140625 C-379.51873172 448.78073031 -378.85346059 451.11468771 -378.1640625 453.44140625 C-378.0390625 456.37890625 -378.0390625 456.37890625 -378.1640625 458.44140625 C-378.8240625 457.78140625 -379.4840625 457.12140625 -380.1640625 456.44140625 C-379.50395774 459.28690637 -378.64681284 461.96466624 -377.6015625 464.69140625 C-377.19744141 465.75101563 -377.19744141 465.75101563 -376.78515625 466.83203125 C-376.58019531 467.363125 -376.37523437 467.89421875 -376.1640625 468.44140625 C-374.8440625 468.11140625 -373.5240625 467.78140625 -372.1640625 467.44140625 C-371.7928125 468.67890625 -371.7928125 468.67890625 -371.4140625 469.94140625 C-370.18284551 473.38881381 -368.68114272 476.48223329 -366.96875 479.70703125 C-366.1640625 481.44140625 -366.1640625 481.44140625 -366.1640625 483.44140625 C-367.1540625 484.10140625 -368.1440625 484.76140625 -369.1640625 485.44140625 C-368.67486328 486.45847656 -368.67486328 486.45847656 -368.17578125 487.49609375 C-366.01156266 492.10543245 -364.01635564 496.58718725 -362.6640625 501.50390625 C-361.1813562 506.84336305 -358.78298424 511.57621567 -356.1640625 516.44140625 C-356.8240625 516.44140625 -357.4840625 516.44140625 -358.1640625 516.44140625 C-357.0950659 520.39669366 -355.49550424 523.72210417 -353.4765625 527.25390625 C-351.23433077 531.22754953 -349.45319097 535.16436057 -347.85327148 539.41967773 C-341.35874896 556.54301703 -329.22316998 571.71482234 -316.1640625 584.44140625 C-317.57321134 579.87213649 -319.43920925 575.66062948 -321.5390625 571.37890625 C-325.52686563 563.05320194 -328.4652133 554.53524607 -330.1640625 545.44140625 C-331.8140625 545.77140625 -333.4640625 546.10140625 -335.1640625 546.44140625 C-335.4940625 542.15140625 -335.8240625 537.86140625 -336.1640625 533.44140625 C-337.4840625 533.11140625 -338.8040625 532.78140625 -340.1640625 532.44140625 C-338.55137558 529.72916007 -336.91504376 527.06787813 -335.1640625 524.44140625 C-335.40740167 521.41504564 -336.38639374 518.54040521 -337.2265625 515.62890625 C-337.43216797 514.83419922 -337.63777344 514.03949219 -337.84960938 513.22070312 C-339.35040968 507.86829142 -341.20393257 504.37619135 -345.1640625 500.44140625 C-345.8240625 500.44140625 -346.4840625 500.44140625 -347.1640625 500.44140625 C-346.8340625 499.78140625 -346.5040625 499.12140625 -346.1640625 498.44140625 C-344.8440625 498.11140625 -343.5240625 497.78140625 -342.1640625 497.44140625 C-341.5040625 494.80140625 -340.8440625 492.16140625 -340.1640625 489.44140625 C-345.33286705 485.43558273 -349.67104364 484.0676958 -356.23046875 484.61328125 C-357.88249122 484.84022575 -359.52508606 485.13409817 -361.1640625 485.44140625 C-361.00357422 484.55388672 -361.00357422 484.55388672 -360.83984375 483.6484375 C-360.03946228 478.53793809 -360.03946228 478.53793809 -361.3515625 473.62890625 C-363.17932959 471.42298046 -365.06741912 469.39345354 -367.1640625 467.44140625 C-364.95444503 464.90034616 -363.42417892 464.13519136 -360.1640625 463.44140625 C-359.5356831 450.03446685 -359.5356831 450.03446685 -365.1640625 438.44140625 C-365.8240625 438.44140625 -366.4840625 438.44140625 -367.1640625 438.44140625 C-366.9784375 437.67828125 -366.7928125 436.91515625 -366.6015625 436.12890625 C-365.93587077 433.3517325 -365.93587077 433.3517325 -367.1640625 430.44140625 C-367.24333255 428.78798409 -367.27240901 427.13188129 -367.26953125 425.4765625 C-367.28435547 424.51169922 -367.29917969 423.54683594 -367.31445312 422.55273438 C-367.33914342 420.52423211 -367.34442836 418.49539864 -367.33007812 416.46679688 C-367.39165698 413.66962389 -367.49798097 411.16043197 -368.1640625 408.44140625 C-371.03892409 405.92068826 -371.03892409 405.92068826 -374.1640625 404.44140625 C-374.58947049 401.35719829 -374.60132302 399.440499 -374.1640625 396.44140625 C-374.04417969 395.61769531 -373.92429687 394.79398438 -373.80078125 393.9453125 C-373.10211429 389.95379776 -372.25445984 386.63610822 -370.5390625 382.94140625 C-368.98881268 378.99531579 -369.10418592 376.3130635 -369.2578125 372.15234375 C-369.09310943 367.38967989 -367.60590108 362.95573419 -366.1640625 358.44140625 C-368.8040625 358.44140625 -371.4440625 358.44140625 -374.1640625 358.44140625 C-374.96079702 350.95210177 -371.75591446 346.31208755 -367.68359375 340.23046875 C-367.22339844 339.53695313 -366.76320313 338.8434375 -366.2890625 338.12890625 C-365.64324219 337.20658203 -365.64324219 337.20658203 -364.984375 336.265625 C-363.93948528 333.94198929 -364.32333587 332.79232701 -365.1640625 330.44140625 C-366.1540625 330.77140625 -367.1440625 331.10140625 -368.1640625 331.44140625 C-367.66877165 328.0569188 -366.76692407 325.97502827 -364.19140625 323.6953125 C-358.91292752 319.939311 -353.35502314 316.78248787 -347.609375 313.80078125 C-345.28690336 312.50969478 -343.24564674 311.08731007 -341.1640625 309.44140625 C-340.6690625 310.92640625 -340.6690625 310.92640625 -340.1640625 312.44140625 C-339.5040625 311.12140625 -338.8440625 309.80140625 -338.1640625 308.44140625 C-338.72996094 308.23386719 -339.29585937 308.02632813 -339.87890625 307.8125 C-342.17908301 306.84634491 -344.14941752 305.91938048 -346.1640625 304.44140625 C-347.1640625 300.69140625 -347.1640625 300.69140625 -347.1640625 297.44140625 C-343.8640625 298.10140625 -340.5640625 298.76140625 -337.1640625 299.44140625 C-334.75325971 297.2244131 -333.29158458 295.43210646 -332.86621094 292.12744141 C-332.84235019 289.327953 -332.91542321 286.55077678 -333.0390625 283.75390625 C-333.31339072 276.32164366 -332.95229323 269.68423469 -331.1640625 262.44140625 C-332.1540625 262.11140625 -333.1440625 261.78140625 -334.1640625 261.44140625 C-334.74362265 256.80492503 -334.45592126 254.31441617 -331.6640625 250.50390625 C-329.28710347 247.57928683 -326.69657118 244.98327686 -323.9765625 242.37890625 C-320.40996181 238.88746381 -318.50526915 236.2697502 -317.1640625 231.44140625 C-317.36752497 228.11916434 -317.36752497 228.11916434 -318.1640625 225.44140625 C-317.1740625 225.44140625 -316.1840625 225.44140625 -315.1640625 225.44140625 C-314.14183195 222.46941593 -313.15058685 219.48792022 -312.1640625 216.50390625 C-311.87789063 215.67310547 -311.59171875 214.84230469 -311.296875 213.98632812 C-309.42011502 208.24433627 -308.87157199 203.48011662 -309.1640625 197.44140625 C-307.6171875 197.59609375 -307.6171875 197.59609375 -306.0390625 197.75390625 C-302.21610989 197.44560362 -300.41637556 196.92949282 -297.62890625 194.3046875 C-294.36088629 190.14776612 -292.36668925 185.21565651 -290.1640625 180.44140625 C-289.08968569 178.22870164 -288.00666236 176.02016957 -286.9140625 173.81640625 C-286.43453125 172.83414063 -285.955 171.851875 -285.4609375 170.83984375 C-284.1640625 168.44140625 -284.1640625 168.44140625 -282.1640625 166.44140625 C-280.94203125 166.55355469 -279.72 166.66570312 -278.4609375 166.78125 C-275.72926399 166.84972691 -274.55163184 166.73794917 -272.35742188 165.05908203 C-270.60035248 163.10718044 -268.99312996 161.10235373 -267.4140625 159.00390625 C-266.32338753 157.602887 -265.22471799 156.20804555 -264.1171875 154.8203125 C-263.40804199 153.88554077 -263.40804199 153.88554077 -262.68457031 152.93188477 C-260.88092747 151.163863 -259.59803317 150.94065845 -257.1640625 150.44140625 C-251.43232357 144.57254438 -249.11085265 138.48912255 -248.1640625 130.44140625 C-247.308125 130.68632812 -246.4521875 130.93125 -245.5703125 131.18359375 C-241.23386139 131.51181138 -239.0189702 130.04248261 -235.6640625 127.56640625 C-235.09236328 127.15511475 -234.52066406 126.74382324 -233.93164062 126.32006836 C-229.11750046 122.70325945 -225.92811173 118.80901153 -223.1640625 113.44140625 C-222.44089844 112.06082031 -222.44089844 112.06082031 -221.703125 110.65234375 C-220.48569075 108.26455835 -219.30765733 105.86522007 -218.1640625 103.44140625 C-217.4009375 103.87453125 -216.6378125 104.30765625 -215.8515625 104.75390625 C-210.96871487 105.66426767 -208.76362499 104.1837167 -204.42578125 102 C-200.72386536 100.23106055 -196.9632244 98.87447969 -193.1015625 97.50390625 C-185.19636769 94.6261705 -178.13715691 91.10353767 -171.7265625 85.56640625 C-169.1640625 83.44140625 -169.1640625 83.44140625 -166.1640625 83.44140625 C-165.1121875 82.86390625 -164.0603125 82.28640625 -162.9765625 81.69140625 C-155.34281182 77.73471863 -146.40124786 76.23559629 -138.00390625 74.62890625 C-137.3375415 74.50136963 -136.67117676 74.37383301 -135.98461914 74.24243164 C-134.14825401 73.89930858 -132.30857092 73.57408224 -130.46875 73.25 C-123.88196676 71.63834027 -120.0294923 69.02480485 -116.1640625 63.44140625 C-115.8753125 62.26578125 -115.5865625 61.09015625 -115.2890625 59.87890625 C-113.71934216 55.08253854 -111.40253025 54.03158099 -107.1640625 51.44140625 C-110.2125189 47.75101334 -110.2125189 47.75101334 -114.4765625 46.00390625 C-118.17630653 46.60619016 -121.57732885 47.30560726 -125.1640625 48.44140625 Z M-446.1640625 307.44140625 C-445.1640625 311.44140625 -445.1640625 311.44140625 -445.1640625 311.44140625 Z M-447.1640625 313.44140625 C-446.1640625 315.44140625 -446.1640625 315.44140625 -446.1640625 315.44140625 Z M351.8359375 397.44140625 C352.1659375 398.10140625 352.4959375 398.76140625 352.8359375 399.44140625 C353.4959375 399.44140625 354.1559375 399.44140625 354.8359375 399.44140625 C354.8359375 398.78140625 354.8359375 398.12140625 354.8359375 397.44140625 C353.8459375 397.44140625 352.8559375 397.44140625 351.8359375 397.44140625 Z M-455.1640625 400.44140625 C-454.1640625 404.44140625 -454.1640625 404.44140625 -454.1640625 404.44140625 Z M-454.1640625 405.44140625 C-454.1640625 407.75140625 -454.1640625 410.06140625 -454.1640625 412.44140625 C-453.8340625 412.44140625 -453.5040625 412.44140625 -453.1640625 412.44140625 C-453.1640625 410.13140625 -453.1640625 407.82140625 -453.1640625 405.44140625 C-453.4940625 405.44140625 -453.8240625 405.44140625 -454.1640625 405.44140625 Z M348.8359375 479.44140625 C347.49691958 480.55267284 347.49691958 480.55267284 347.73828125 483.3828125 C347.74988281 484.57777344 347.76148438 485.77273438 347.7734375 487.00390625 C347.78246094 488.20144531 347.79148437 489.39898438 347.80078125 490.6328125 C347.81238281 491.55964844 347.82398438 492.48648437 347.8359375 493.44140625 C348.1659375 493.44140625 348.4959375 493.44140625 348.8359375 493.44140625 C349.17286535 491.8379907 349.50534843 490.2336407 349.8359375 488.62890625 C350.0215625 487.73558594 350.2071875 486.84226562 350.3984375 485.921875 C350.92278593 483.36879932 350.92278593 483.36879932 350.8359375 480.44140625 C350.1759375 480.11140625 349.5159375 479.78140625 348.8359375 479.44140625 Z M346.8359375 496.44140625 C346.5059375 499.74140625 346.1759375 503.04140625 345.8359375 506.44140625 C348.2653891 502.79722885 347.99773325 500.72899353 347.8359375 496.44140625 C347.5059375 496.44140625 347.1759375 496.44140625 346.8359375 496.44140625 Z M352.8359375 509.44140625 C353.8359375 511.44140625 353.8359375 511.44140625 353.8359375 511.44140625 Z M321.8359375 532.44140625 C321.1759375 533.76140625 320.5159375 535.08140625 319.8359375 536.44140625 C321.1559375 536.44140625 322.4759375 536.44140625 323.8359375 536.44140625 C323.8359375 535.12140625 323.8359375 533.80140625 323.8359375 532.44140625 C323.1759375 532.44140625 322.5159375 532.44140625 321.8359375 532.44140625 Z M306.2734375 542.75390625 C304.51170427 544.45256645 304.51170427 544.45256645 304.8359375 547.44140625 C306.1559375 547.11140625 307.4759375 546.78140625 308.8359375 546.44140625 C308.8359375 544.79140625 308.8359375 543.14140625 308.8359375 541.44140625 C307.6234544 541.33420757 307.6234544 541.33420757 306.2734375 542.75390625 Z M-403.1640625 581.44140625 C-402.8340625 583.09140625 -402.5040625 584.74140625 -402.1640625 586.44140625 C-401.1740625 586.77140625 -400.1840625 587.10140625 -399.1640625 587.44140625 C-400.28260836 583.71526472 -400.28260836 583.71526472 -403.1640625 581.44140625 Z M307.8359375 583.44140625 C308.4959375 585.09140625 309.1559375 586.74140625 309.8359375 588.44140625 C310.8259375 587.78140625 311.8159375 587.12140625 312.8359375 586.44140625 C311.1859375 585.45140625 309.5359375 584.46140625 307.8359375 583.44140625 Z M315.8359375 595.44140625 C315.5059375 596.10140625 315.1759375 596.76140625 314.8359375 597.44140625 C315.4959375 597.44140625 316.1559375 597.44140625 316.8359375 597.44140625 C316.5059375 596.78140625 316.1759375 596.12140625 315.8359375 595.44140625 Z M293.8359375 596.44140625 C294.1659375 597.10140625 294.4959375 597.76140625 294.8359375 598.44140625 C295.1659375 597.78140625 295.4959375 597.12140625 295.8359375 596.44140625 C295.1759375 596.44140625 294.5159375 596.44140625 293.8359375 596.44140625 Z M310.8359375 600.44140625 C308.8559375 601.43140625 306.8759375 602.42140625 304.8359375 603.44140625 C304.8359375 603.77140625 304.8359375 604.10140625 304.8359375 604.44140625 C307.1459375 604.44140625 309.4559375 604.44140625 311.8359375 604.44140625 C311.5059375 603.12140625 311.1759375 601.80140625 310.8359375 600.44140625 Z M249.8359375 619.44140625 C249.5059375 621.42140625 249.1759375 623.40140625 248.8359375 625.44140625 C251.1459375 624.12140625 253.4559375 622.80140625 255.8359375 621.44140625 C255.8359375 620.78140625 255.8359375 620.12140625 255.8359375 619.44140625 C253.8559375 619.44140625 251.8759375 619.44140625 249.8359375 619.44140625 Z M259.8359375 631.44140625 C259.5059375 632.76140625 259.1759375 634.08140625 258.8359375 635.44140625 C259.8259375 634.78140625 260.8159375 634.12140625 261.8359375 633.44140625 C261.8359375 632.78140625 261.8359375 632.12140625 261.8359375 631.44140625 C261.1759375 631.44140625 260.5159375 631.44140625 259.8359375 631.44140625 Z M280.8359375 633.44140625 C280.5059375 634.76140625 280.1759375 636.08140625 279.8359375 637.44140625 C280.8259375 636.78140625 281.8159375 636.12140625 282.8359375 635.44140625 C282.8359375 634.78140625 282.8359375 634.12140625 282.8359375 633.44140625 C282.1759375 633.44140625 281.5159375 633.44140625 280.8359375 633.44140625 Z M278.8359375 637.44140625 C278.5059375 638.43140625 278.1759375 639.42140625 277.8359375 640.44140625 C278.4959375 640.44140625 279.1559375 640.44140625 279.8359375 640.44140625 C279.5059375 639.45140625 279.1759375 638.46140625 278.8359375 637.44140625 Z M248.8359375 649.44140625 C248.8359375 652.74140625 248.8359375 656.04140625 248.8359375 659.44140625 C250.8159375 660.43140625 250.8159375 660.43140625 252.8359375 661.44140625 C254.93343745 659.08171881 255.80499454 657.89523631 256.0234375 654.69140625 C255.9615625 653.94890625 255.8996875 653.20640625 255.8359375 652.44140625 C253.8559375 653.43140625 253.8559375 653.43140625 251.8359375 654.44140625 C251.8359375 652.79140625 251.8359375 651.14140625 251.8359375 649.44140625 C250.8459375 649.44140625 249.8559375 649.44140625 248.8359375 649.44140625 Z M223.8359375 663.44140625 C223.5059375 665.09140625 223.1759375 666.74140625 222.8359375 668.44140625 C226.20185616 666.99886968 228.34640829 665.10875898 230.8359375 662.44140625 C226.94134676 662.23058774 226.94134676 662.23058774 223.8359375 663.44140625 Z M224.8359375 674.44140625 C224.1759375 676.75140625 223.5159375 679.06140625 222.8359375 681.44140625 C229.7659375 680.45140625 229.7659375 680.45140625 236.8359375 679.44140625 C232.73904194 676.36873458 229.97423241 674.44140625 224.8359375 674.44140625 Z M199.8359375 702.44140625 C198.46030896 703.73105801 197.12827357 705.06829918 195.8359375 706.44140625 C195.8359375 707.10140625 195.8359375 707.76140625 195.8359375 708.44140625 C198.72169569 708.04337064 199.65783263 707.65131556 201.5859375 705.37890625 C201.9984375 704.73953125 202.4109375 704.10015625 202.8359375 703.44140625 C201.8459375 703.11140625 200.8559375 702.78140625 199.8359375 702.44140625 Z M202.8359375 717.44140625 C202.8359375 718.10140625 202.8359375 718.76140625 202.8359375 719.44140625 C203.4959375 719.11140625 204.1559375 718.78140625 204.8359375 718.44140625 C204.1759375 718.11140625 203.5159375 717.78140625 202.8359375 717.44140625 Z M135.8359375 719.44140625 C135.1759375 721.09140625 134.5159375 722.74140625 133.8359375 724.44140625 C134.8259375 723.78140625 135.8159375 723.12140625 136.8359375 722.44140625 C136.5059375 721.45140625 136.1759375 720.46140625 135.8359375 719.44140625 Z M-83.1640625 760.44140625 C-83.1640625 760.77140625 -83.1640625 761.10140625 -83.1640625 761.44140625 C-81.5140625 761.44140625 -79.8640625 761.44140625 -78.1640625 761.44140625 C-78.1640625 761.11140625 -78.1640625 760.78140625 -78.1640625 760.44140625 C-79.8140625 760.44140625 -81.4640625 760.44140625 -83.1640625 760.44140625 Z " fill="#6FC637" transform="translate(554.1640625,123.55859375)"/>
<path d="M0 0 C4.18313216 1.07832903 8.23757511 1.8397888 12.52612305 2.31274414 C54.38005499 7.03694135 98.0906751 29.00397248 132.9609375 51.94140625 C134.14514282 52.71677734 134.14514282 52.71677734 135.35327148 53.5078125 C136.07200439 53.99121094 136.7907373 54.47460938 137.53125 54.97265625 C138.17078613 55.40126953 138.81032227 55.82988281 139.46923828 56.27148438 C139.92024902 56.65755859 140.37125977 57.04363281 140.8359375 57.44140625 C140.8359375 58.10140625 140.8359375 58.76140625 140.8359375 59.44140625 C141.54105469 59.69921875 142.24617187 59.95703125 142.97265625 60.22265625 C146.07863065 61.54470811 148.79571815 63.13888479 151.6484375 64.94140625 C152.62425781 65.54984375 153.60007812 66.15828125 154.60546875 66.78515625 C155.70955078 67.605 155.70955078 67.605 156.8359375 68.44140625 C156.8359375 69.10140625 156.8359375 69.76140625 156.8359375 70.44140625 C157.55007813 70.68632812 158.26421875 70.93125 159 71.18359375 C166.5704854 74.54130215 172.73284912 80.99361633 177.93725586 87.30859375 C179.94962797 89.56911615 182.08333442 91.5175667 184.359375 93.51171875 C190.06272675 98.59499407 195.49532914 103.91706312 200.8984375 109.31640625 C201.82720703 110.23292969 202.75597656 111.14945312 203.71289062 112.09375 C209.86198833 118.22990223 215.45401956 124.62667777 220.8359375 131.44140625 C221.72043579 132.53702881 221.72043579 132.53702881 222.62280273 133.65478516 C236.73458915 151.14270611 249.01218819 169.75682524 259.8359375 189.44140625 C260.29597168 190.27639648 260.75600586 191.11138672 261.22998047 191.97167969 C282.28117822 230.46986598 294.74094899 271.31567276 301.8359375 314.44140625 C302.02591309 315.56869141 302.21588867 316.69597656 302.41162109 317.85742188 C305.02022059 333.88888866 305.07640864 349.7977045 305.0859375 366.00390625 C305.08694458 367.18914886 305.08795166 368.37439148 305.08898926 369.59555054 C305.07892476 387.09549749 304.57720278 404.13171062 301.8359375 421.44140625 C301.67013184 422.54226563 301.50432617 423.643125 301.33349609 424.77734375 C298.44986486 443.81638961 298.44986486 443.81638961 295.8359375 452.44140625 C295.32679846 454.28016614 294.82204094 456.12014173 294.3203125 457.9609375 C281.53023294 504.51712344 262.17245257 547.81999671 232.8359375 586.44140625 C232.10697266 587.40578613 232.10697266 587.40578613 231.36328125 588.38964844 C225.91393101 595.56512119 220.22694044 602.39576515 214.09375 609 C212.16249897 611.08829047 210.3027569 613.21232159 208.4609375 615.37890625 C203.56743031 621.02707479 198.15608316 626.19988343 192.8359375 631.44140625 C190.2734375 629.25390625 190.2734375 629.25390625 187.8359375 626.44140625 C187.71240915 623.00409568 188.64134437 621.68671153 190.76953125 619.00390625 C191.59582031 618.15828125 192.42210937 617.31265625 193.2734375 616.44140625 C197.12312743 612.38362497 200.53642031 608.2638584 203.8359375 603.75390625 C207.57775762 598.70304209 211.63810551 594.75377712 216.70703125 591.02734375 C220.2726953 588.3710876 222.44704182 585.66151907 224.7734375 581.87890625 C227.50260128 577.5076185 230.32152438 573.21521272 233.20849609 568.9465332 C238.82029837 560.63563788 244.08012224 552.27363459 248.8359375 543.44140625 C249.45210937 542.31476562 250.06828125 541.188125 250.703125 540.02734375 C255.22772358 531.42478078 258.20638477 522.77207722 260.8359375 513.44140625 C261.4959375 513.44140625 262.1559375 513.44140625 262.8359375 513.44140625 C263.0628125 512.30703125 263.2896875 511.17265625 263.5234375 510.00390625 C264.55292289 505.38572179 265.81977749 500.85534865 267.1484375 496.31640625 C267.33688232 495.66744385 267.52532715 495.01848145 267.71948242 494.34985352 C268.73484518 490.92254305 269.80336757 487.53387815 270.99121094 484.16137695 C274.36525882 474.51510983 276.59878491 464.91836654 278.4609375 454.87890625 C278.76307735 453.285543 279.0653246 451.69220011 279.36767578 450.09887695 C283.6049612 427.54445638 286.02450952 405.36431912 285.96630859 382.40405273 C285.96087748 379.85069018 285.96632823 377.29749837 285.97265625 374.74414062 C285.97199649 373.10026003 285.97071744 371.45637955 285.96875 369.8125 C285.97077423 369.05931992 285.97279846 368.30613983 285.97488403 367.53013611 C285.95657979 363.3960955 285.64109086 359.49715643 284.8359375 355.44140625 C284.1759375 356.76140625 283.5159375 358.08140625 282.8359375 359.44140625 C282.8359375 350.86140625 282.8359375 342.28140625 282.8359375 333.44140625 C282.1759375 333.44140625 281.5159375 333.44140625 280.8359375 333.44140625 C280.66578125 332.25546875 280.495625 331.06953125 280.3203125 329.84765625 C277.96623728 313.91454572 273.98705204 298.82714493 269.41650391 283.40063477 C266.89199902 274.81252911 264.77930748 266.17612293 262.8359375 257.44140625 C262.50860898 256.10658606 262.17875207 254.77233339 261.8359375 253.44140625 C260.8459375 253.44140625 259.8559375 253.44140625 258.8359375 253.44140625 C258.48982422 252.38953125 258.48982422 252.38953125 258.13671875 251.31640625 C256.26931916 245.88397108 254.22793405 241.18059795 251.06640625 236.39453125 C247.97711178 231.49088923 245.91280401 226.57073728 245.1171875 220.828125 C243.92464172 214.60274865 240.93696716 209.89127328 237.5234375 204.62890625 C236.66975586 203.25702148 236.66975586 203.25702148 235.79882812 201.85742188 C232.82634128 197.16491967 229.82514832 193.32481897 225.8359375 189.44140625 C223.49769347 186.44264961 221.29929597 183.3454809 219.0859375 180.25390625 C214.00080336 173.24814942 208.78843406 166.73060968 202.8359375 160.44140625 C201.70452202 159.1553554 200.57935804 157.86377408 199.4609375 156.56640625 C189.86991172 145.57344399 180.02880946 134.83010636 168.8359375 125.44140625 C168.02406982 124.75884766 168.02406982 124.75884766 167.19580078 124.0625 C150.29650302 109.91719537 132.20470713 95.91719928 111.76635742 87.29093933 C108.24042231 85.73925698 104.83042354 83.95791606 101.40234375 82.203125 C99.76646427 81.37397749 98.13039001 80.54521417 96.49414062 79.71679688 C93.95869049 78.43069192 91.42454243 77.14226788 88.89379883 75.84692383 C72.23083002 67.32804035 55.43956637 60.6579866 37.265625 56.00390625 C36.26023682 55.74609375 35.25484863 55.48828125 34.21899414 55.22265625 C32.22522671 54.71537663 30.22969332 54.21496984 28.23217773 53.72265625 C12.02276307 49.62823182 12.02276307 49.62823182 8.8359375 46.44140625 C-4.20553279 44.35368647 -17.23661992 44.11928156 -30.4140625 44.19140625 C-31.82058578 44.19406494 -31.82058578 44.19406494 -33.25552368 44.19677734 C-46.98392164 44.22723706 -60.537294 44.63525469 -74.1640625 46.44140625 C-74.1640625 45.45140625 -74.1640625 44.46140625 -74.1640625 43.44140625 C-74.8240625 43.44140625 -75.4840625 43.44140625 -76.1640625 43.44140625 C-76.1640625 42.78140625 -76.1640625 42.12140625 -76.1640625 41.44140625 C-76.8240625 41.77140625 -77.4840625 42.10140625 -78.1640625 42.44140625 C-79.87075735 42.57092488 -81.58192345 42.64383813 -83.29296875 42.6875 C-84.32873047 42.72037109 -85.36449219 42.75324219 -86.43164062 42.78710938 C-88.6008262 42.84754312 -90.77009957 42.90491538 -92.93945312 42.95898438 C-101.54116358 43.24022475 -109.04605528 44.61775156 -117.1640625 47.44140625 C-118.4015625 47.75078125 -119.6390625 48.06015625 -120.9140625 48.37890625 C-124.4191275 49.15396965 -124.4191275 49.15396965 -126.1640625 52.44140625 C-129.0078125 53.60473633 -129.0078125 53.60473633 -132.6640625 54.7109375 C-133.32342804 54.91247437 -133.98279358 55.11401123 -134.66213989 55.32165527 C-136.82596871 55.97800942 -138.99453399 56.61666699 -141.1640625 57.25390625 C-141.90348083 57.47517181 -142.64289917 57.69643738 -143.40472412 57.92440796 C-154.35294016 61.20053048 -165.34659987 64.00183043 -176.50854492 66.46411133 C-197.42874188 71.11028137 -225.56713252 80.01435514 -239.1640625 97.44140625 C-241.171875 99.14453125 -241.171875 99.14453125 -243.2890625 100.69140625 C-248.5264512 104.64739771 -253.31704372 109.02276556 -258.1640625 113.44140625 C-263.15064686 117.87956789 -268.2231357 122.21936488 -273.2890625 126.56640625 C-273.87526367 127.06954346 -274.46146484 127.57268066 -275.06542969 128.09106445 C-276.76217362 129.54449359 -278.46300497 130.99303032 -280.1640625 132.44140625 C-280.71521729 132.91658691 -281.26637207 133.39176758 -281.83422852 133.88134766 C-284.86645719 136.46657959 -287.4499021 138.03604826 -291.1640625 139.44140625 C-291.9375 140.24578125 -291.9375 140.24578125 -292.7265625 141.06640625 C-294.1640625 142.44140625 -294.1640625 142.44140625 -298.1640625 142.44140625 C-300.65752325 144.55484238 -300.65752325 144.55484238 -303.0390625 147.37890625 C-303.69660522 148.12019775 -303.69660522 148.12019775 -304.36743164 148.87646484 C-307.61512603 152.60984615 -310.37988987 156.51691366 -312.91015625 160.76171875 C-314.1640625 162.44140625 -314.1640625 162.44140625 -317.1640625 163.44140625 C-319.30574905 166.42745383 -321.19607265 169.53168855 -323.12890625 172.65625 C-325.20263623 175.49419525 -326.13643028 176.00386769 -329.1640625 177.44140625 C-331.41502326 179.91202997 -331.41502326 179.91202997 -333.4765625 182.81640625 C-334.19457031 183.77289063 -334.91257812 184.729375 -335.65234375 185.71484375 C-337.4610736 188.23208127 -337.4610736 188.23208127 -336.64331055 190.37915039 C-336.02281343 193.0492162 -336.598569 193.85789174 -338.0078125 196.1640625 C-338.42619385 196.86176758 -338.8445752 197.55947266 -339.27563477 198.27832031 C-339.73381592 199.01276367 -340.19199707 199.74720703 -340.6640625 200.50390625 C-341.12675537 201.26541992 -341.58944824 202.02693359 -342.06616211 202.81152344 C-343.41929474 205.02971205 -344.78915835 207.23666597 -346.1640625 209.44140625 C-346.79441406 210.46621094 -347.42476563 211.49101562 -348.07421875 212.546875 C-350.79903064 216.90786236 -353.64874029 221.16045345 -356.60107422 225.37084961 C-364.01381906 235.32314761 -364.01381906 235.32314761 -367.9375 246.85546875 C-369.44731951 254.92094683 -373.13674721 262.25422521 -376.43945312 269.71679688 C-376.92994141 270.86728516 -377.42042969 272.01777344 -377.92578125 273.203125 C-378.37912842 274.23397217 -378.83247559 275.26481934 -379.29956055 276.3269043 C-380.33377432 280.05281933 -379.8602 282.6718511 -379.1640625 286.44140625 C-379.6875 289.28515625 -379.6875 289.28515625 -380.5390625 291.94140625 C-382.99181445 299.73519749 -383.40090645 307.46424519 -383.68164062 315.56445312 C-383.9468634 321.22420715 -383.9468634 321.22420715 -386.1640625 323.44140625 C-386.66542493 326.00392535 -387.04882655 328.48024337 -387.3515625 331.06640625 C-387.44630859 331.75347656 -387.54105469 332.44054687 -387.63867188 333.1484375 C-388.15217465 337.32701735 -388.05071854 340.97932264 -387.41967773 345.16943359 C-386.86862243 350.06735208 -387.06329335 355.0194042 -387.1015625 359.94140625 C-387.10607422 361.05 -387.11058594 362.15859375 -387.11523438 363.30078125 C-387.12693092 366.01438024 -387.14332164 368.72786386 -387.1640625 371.44140625 C-387.8240625 371.44140625 -388.4840625 371.44140625 -389.1640625 371.44140625 C-389.1640625 372.76140625 -389.1640625 374.08140625 -389.1640625 375.44140625 C-389.8240625 375.44140625 -390.4840625 375.44140625 -391.1640625 375.44140625 C-390.8340625 376.10140625 -390.5040625 376.76140625 -390.1640625 377.44140625 C-389.89211673 379.91810166 -389.66877586 382.38002822 -389.48046875 384.86328125 C-389.3562969 386.37892077 -389.23194207 387.89454531 -389.10742188 389.41015625 C-388.91608612 391.79732085 -388.72708867 394.18462786 -388.54174805 396.57226562 C-388.36115004 398.87817927 -388.17131719 401.18319648 -387.98046875 403.48828125 C-387.92830704 404.19474792 -387.87614532 404.9012146 -387.82240295 405.62908936 C-387.46802842 409.84154071 -386.6543603 413.49030051 -385.1640625 417.44140625 C-381.73705677 427.24050076 -379.1640625 436.01995691 -379.1640625 446.44140625 C-378.50823043 448.77780801 -377.84191242 451.11129716 -377.1640625 453.44140625 C-377.0390625 456.87890625 -377.0390625 456.87890625 -377.1640625 459.44140625 C-377.8240625 459.44140625 -378.4840625 459.44140625 -379.1640625 459.44140625 C-378.6690625 460.36953125 -378.1740625 461.29765625 -377.6640625 462.25390625 C-376.1640625 465.44140625 -376.1640625 465.44140625 -376.1640625 468.44140625 C-374.8440625 468.11140625 -373.5240625 467.78140625 -372.1640625 467.44140625 C-370.96421453 469.7064559 -369.77911481 471.97730513 -368.6015625 474.25390625 C-368.25931641 474.89650391 -367.91707031 475.53910156 -367.56445312 476.20117188 C-366.6875602 477.9106702 -365.91890633 479.67461919 -365.1640625 481.44140625 C-366.1640625 484.44140625 -366.1640625 484.44140625 -368.1640625 485.44140625 C-367.83792969 486.11945313 -367.51179688 486.7975 -367.17578125 487.49609375 C-364.59907783 492.98393997 -362.53672748 498.31083859 -360.921875 504.1484375 C-360.16444396 506.44025203 -359.21513158 508.31318089 -357.9765625 510.37890625 C-356.1640625 513.44140625 -356.1640625 513.44140625 -356.1640625 516.44140625 C-356.8240625 516.44140625 -357.4840625 516.44140625 -358.1640625 516.44140625 C-357.43703125 517.60929688 -357.43703125 517.60929688 -356.6953125 518.80078125 C-352.5131796 525.78172617 -349.23264487 532.61837765 -346.4140625 540.25390625 C-341.01447525 554.52956445 -331.80550481 565.84326565 -321.88671875 577.2578125 C-318.55193893 581.11413987 -315.42631908 585.12818588 -312.30639648 589.15893555 C-310.93438949 590.92679147 -309.55015911 592.68457371 -308.1640625 594.44140625 C-307.54740723 595.23305176 -306.93075195 596.02469727 -306.29541016 596.84033203 C-300.49109262 604.13661848 -294.16431756 610.74961014 -287.55371094 617.3125 C-285.79126012 619.064222 -284.03977682 620.82640053 -282.2890625 622.58984375 C-275.5542586 629.33239567 -268.6474731 635.5299066 -261.1640625 641.44140625 C-259.68178434 642.68771499 -258.20215426 643.93718817 -256.7265625 645.19140625 C-251.01975538 649.77511373 -244.81539066 653.57477845 -238.64672852 657.49609375 C-232.48690013 661.45726426 -226.91241069 665.71469712 -221.4765625 670.61328125 C-219.25754589 672.36750384 -217.9280272 673.05752226 -215.1640625 673.44140625 C-215.8240625 673.11140625 -216.4840625 672.78140625 -217.1640625 672.44140625 C-217.1640625 671.78140625 -217.1640625 671.12140625 -217.1640625 670.44140625 C-211.3566483 672.18265774 -205.95775236 674.69601765 -200.4765625 677.25390625 C-199.0524707 677.89295898 -199.0524707 677.89295898 -197.59960938 678.54492188 C-196.23352539 679.18397461 -196.23352539 679.18397461 -194.83984375 679.8359375 C-194.01395752 680.21596924 -193.18807129 680.59600098 -192.3371582 680.98754883 C-190.1640625 682.44140625 -190.1640625 682.44140625 -188.74047852 684.96386719 C-186.65013384 688.24911076 -184.96293988 688.60257039 -181.265625 689.6875 C-180.07332275 690.04706787 -178.88102051 690.40663574 -177.65258789 690.77709961 C-176.36487361 691.14481534 -175.07702905 691.51207511 -173.7890625 691.87890625 C-172.47666309 692.2673804 -171.16473426 692.65744773 -169.85327148 693.04907227 C-165.96369256 694.20425843 -162.06487117 695.32472201 -158.1640625 696.44140625 C-156.03775511 697.05597123 -153.91145256 697.67055294 -151.78515625 698.28515625 C-148.30198518 699.2875822 -144.8150717 700.27471006 -141.32421875 701.25 C-137.90092989 702.21340357 -134.52660462 703.28097839 -131.1640625 704.44140625 C-131.1640625 705.43140625 -131.1640625 706.42140625 -131.1640625 707.44140625 C-124.65769304 709.46581932 -118.03908668 710.72557633 -111.3515625 712.00390625 C-109.66450195 712.33551758 -109.66450195 712.33551758 -107.94335938 712.67382812 C-97.57775842 714.66744458 -87.71220405 715.59102528 -77.1640625 715.44140625 C-75.30995323 715.41597265 -73.45577711 715.39491386 -71.6015625 715.37890625 C-70.79589844 715.36730469 -69.99023438 715.35570312 -69.16015625 715.34375 C-67.1640625 715.44140625 -67.1640625 715.44140625 -65.1640625 716.44140625 C-62.65097987 716.56764755 -60.17751666 716.62659609 -57.6640625 716.62890625 C-56.99375 716.64115234 -56.3234375 716.65339844 -55.6328125 716.66601562 C-51.84600697 716.6767736 -48.45472368 716.33487283 -44.76953125 715.45703125 C-36.20939713 713.60581392 -27.27313449 714.05277592 -18.55444336 713.98510742 C-8.88443814 713.89588807 0.01424622 713.27759637 9.4753418 711.14624023 C12.51487495 710.50874425 15.4073075 710.13634278 18.5 709.91015625 C24.53064828 709.45602105 30.32008981 708.28335401 36.2109375 706.94140625 C37.33419434 706.68584961 38.45745117 706.43029297 39.61474609 706.16699219 C49.03518938 703.89075112 57.61880249 700.49614676 66.375 696.39453125 C70.47345383 694.49937657 74.44589218 693.47082802 78.8359375 692.44140625 C81.23893004 691.43690567 83.52819094 690.31413594 85.85546875 689.1484375 C87.8359375 688.44140625 87.8359375 688.44140625 90.8359375 689.44140625 C88.94138926 690.40227761 87.04524169 691.35999594 85.1484375 692.31640625 C84.09269531 692.85007812 83.03695312 693.38375 81.94921875 693.93359375 C79.27597845 695.2282873 76.6088242 696.38163879 73.8359375 697.44140625 C79.45823241 696.94084064 83.45809636 695.41366586 88.3984375 692.75390625 C93.61791042 690.03117968 98.82334223 687.54491592 104.2734375 685.31640625 C108.22946973 683.66546367 111.72781111 681.99937865 115.2109375 679.50390625 C119.14052463 676.69392215 123.21858514 674.86456818 127.6484375 673.00390625 C136.26196175 669.38050119 144.41658072 665.19660823 151.8359375 659.44140625 C152.4959375 659.77140625 153.1559375 660.10140625 153.8359375 660.44140625 C143.87295348 670.0722908 136.67010424 674.71073939 123.13671875 678.359375 C118.91281174 679.7440167 116.18811566 681.56811068 112.8359375 684.44140625 C113.66996094 684.11527344 114.50398437 683.78914062 115.36328125 683.453125 C121.80945626 680.94997113 128.25362779 678.56113311 134.8359375 676.44140625 C123.61402944 688.03737791 110.63657717 699.81236166 95.80859375 706.49609375 C93.15830069 707.76613518 91.08503832 709.56715557 88.8359375 711.44140625 C87.8459375 711.91578125 86.8559375 712.39015625 85.8359375 712.87890625 C82.76554485 714.26982077 82.76554485 714.26982077 80.7109375 716.69140625 C72.73083123 724.32455137 62.23888193 728.11812325 51.9609375 731.62890625 C50.79691406 732.04076172 49.63289062 732.45261719 48.43359375 732.87695312 C41.32120174 735.36195831 34.16897722 737.54327902 26.89624023 739.50976562 C23.31769506 740.59917356 20.09523705 742.04981897 16.80078125 743.8046875 C14.8359375 744.44140625 14.8359375 744.44140625 12.4375 743.92578125 C9.10955735 743.3061643 7.37639992 744.09715404 4.2734375 745.37890625 C0.68404071 746.84752214 -1.1988227 747.44140625 -5.1640625 747.44140625 C-5.1640625 748.10140625 -5.1640625 748.76140625 -5.1640625 749.44140625 C-34.68161384 758.16870364 -34.68161384 758.16870364 -48.46484375 758.9921875 C-52.08565514 759.43188477 -54.74896644 760.33908887 -58.08666992 761.69067383 C-61.68280646 762.99025308 -65.39860326 763.53178403 -69.1640625 764.12890625 C-69.93878906 764.25845703 -70.71351563 764.38800781 -71.51171875 764.52148438 C-73.39465051 764.83530634 -75.27919955 765.1393998 -77.1640625 765.44140625 C-76.59816406 765.87710938 -76.03226562 766.3128125 -75.44921875 766.76171875 C-74.71574219 767.35726562 -73.98226563 767.9528125 -73.2265625 768.56640625 C-72.49566406 769.14648438 -71.76476562 769.7265625 -71.01171875 770.32421875 C-68.69813812 772.97529846 -68.47213924 774.98899074 -68.1640625 778.44140625 C-75.5714205 777.36522132 -82.8805536 776.1660987 -90.1640625 774.44140625 C-91.85107478 774.06421821 -93.53856981 773.68918224 -95.2265625 773.31640625 C-96.5390625 773.02473958 -97.8515625 772.73307292 -99.1640625 772.44140625 C-98.8340625 770.13140625 -98.5040625 767.82140625 -98.1640625 765.44140625 C-100.4740625 765.44140625 -102.7840625 765.44140625 -105.1640625 765.44140625 C-104.8340625 764.45140625 -104.5040625 763.46140625 -104.1640625 762.44140625 C-102.3515625 761.78125 -102.3515625 761.78125 -100.1640625 761.37890625 C-98.02350953 761.01439752 -98.02350953 761.01439752 -96.1640625 760.44140625 C-95.8340625 759.78140625 -95.5040625 759.12140625 -95.1640625 758.44140625 C-96.1540625 758.77140625 -97.1440625 759.10140625 -98.1640625 759.44140625 C-101.1759276 759.20226595 -104.13766061 758.89183137 -107.1328125 758.515625 C-108.98925779 758.29484033 -110.84570311 758.07405583 -112.70214844 757.85327148 C-113.67567261 757.73490936 -114.64919678 757.61654724 -115.65222168 757.49459839 C-129.39128821 755.82642636 -143.09689612 754.22547453 -156.9140625 753.37890625 C-181.94576239 751.74965807 -206.77432789 746.60272345 -230.1640625 737.44140625 C-230.1640625 736.78140625 -230.1640625 736.12140625 -230.1640625 735.44140625 C-228.5140625 735.44140625 -226.8640625 735.44140625 -225.1640625 735.44140625 C-225.1640625 733.79140625 -225.1640625 732.14140625 -225.1640625 730.44140625 C-225.96585938 730.31765625 -226.76765625 730.19390625 -227.59375 730.06640625 C-242.11226505 727.43266202 -254.72673072 720.81657905 -267.7265625 714.06640625 C-268.55438232 713.6377124 -269.38220215 713.20901855 -270.23510742 712.76733398 C-270.99670166 712.36329346 -271.7582959 711.95925293 -272.54296875 711.54296875 C-273.2191626 711.18541504 -273.89535645 710.82786133 -274.59204102 710.45947266 C-276.1640625 709.44140625 -276.1640625 709.44140625 -277.1640625 707.44140625 C-278.77562988 706.65154714 -280.3917301 705.86977736 -282.02783203 705.13208008 C-292.98875715 700.16004753 -301.93870766 693.07561199 -311.1640625 685.44140625 C-311.71803711 684.99200684 -312.27201172 684.54260742 -312.84277344 684.07958984 C-316.15326118 681.37570836 -319.16477204 678.48307287 -322.1640625 675.44140625 C-324.0924044 673.6380741 -326.02624865 671.84548532 -327.9765625 670.06640625 C-328.50282227 669.58526367 -329.02908203 669.10412109 -329.57128906 668.60839844 C-334.44790155 664.16128576 -339.38358733 659.78563445 -344.4296875 655.53125 C-345.16703125 654.90347656 -345.904375 654.27570312 -346.6640625 653.62890625 C-347.334375 653.06558594 -348.0046875 652.50226562 -348.6953125 651.921875 C-350.1640625 650.44140625 -350.1640625 650.44140625 -350.1640625 648.44140625 C-350.75469482 648.18053223 -351.34532715 647.9196582 -351.95385742 647.65087891 C-354.303066 646.36534049 -355.71635917 645.05123883 -357.52734375 643.08984375 C-358.16003174 642.41074951 -358.79271973 641.73165527 -359.44458008 641.03198242 C-360.11513428 640.30084229 -360.78568848 639.56970215 -361.4765625 638.81640625 C-362.90355751 637.27856387 -364.33064316 635.7408056 -365.7578125 634.203125 C-366.48484375 633.41599121 -367.211875 632.62885742 -367.9609375 631.81787109 C-370.11016316 629.49954634 -372.27418468 627.19624783 -374.4453125 624.8984375 C-375.12295654 624.18059082 -375.80060059 623.46274414 -376.4987793 622.72314453 C-377.79103243 621.35480144 -379.08412805 619.98725337 -380.37817383 618.62060547 C-383.15271855 615.67081429 -385.84080352 612.77113122 -388.1640625 609.44140625 C-387.5040625 609.11140625 -386.8440625 608.78140625 -386.1640625 608.44140625 C-386.81366943 607.82322021 -387.46327637 607.20503418 -388.13256836 606.56811523 C-417.72638806 578.22129264 -417.72638806 578.22129264 -418.35546875 567.0390625 C-418.29230469 566.18183594 -418.22914063 565.32460938 -418.1640625 564.44140625 C-416.5140625 563.78140625 -414.8640625 563.12140625 -413.1640625 562.44140625 C-414.4840625 560.13140625 -415.8040625 557.82140625 -417.1640625 555.44140625 C-418.8140625 555.44140625 -420.4640625 555.44140625 -422.1640625 555.44140625 C-423.57184173 551.24283329 -424.97762819 547.04359996 -426.3815918 542.84375 C-426.85923766 541.41583346 -427.33742248 539.98809708 -427.81616211 538.56054688 C-428.50517115 536.50568293 -429.19222362 534.45017361 -429.87890625 532.39453125 C-430.29261475 531.15864258 -430.70632324 529.92275391 -431.13256836 528.64941406 C-432.1640625 525.44140625 -432.1640625 525.44140625 -432.66625977 523.13964844 C-433.09472326 521.14894391 -433.09472326 521.14894391 -435.4140625 519.31640625 C-438.97448348 515.59414795 -443.1640625 509.82243539 -443.1640625 504.44140625 C-441.8440625 504.44140625 -440.5240625 504.44140625 -439.1640625 504.44140625 C-439.99550781 502.68763672 -439.99550781 502.68763672 -440.84375 500.8984375 C-441.57559823 499.350297 -442.30736477 497.80211788 -443.0390625 496.25390625 C-443.58626953 495.10051758 -443.58626953 495.10051758 -444.14453125 493.92382812 C-449.1640625 483.2915483 -449.1640625 483.2915483 -449.1640625 479.44140625 C-448.5040625 479.44140625 -447.8440625 479.44140625 -447.1640625 479.44140625 C-448.52261418 468.92461797 -450.09813637 458.43311494 -453.109375 448.2421875 C-454.5003816 443.22941185 -455.5091133 438.16376831 -456.5390625 433.06640625 C-458.04317265 425.69940474 -459.62378043 418.36904888 -461.4140625 411.06640625 C-463.82236598 401.0762766 -464.32266645 391.69779501 -464.1640625 381.44140625 C-463.5040625 381.11140625 -462.8440625 380.78140625 -462.1640625 380.44140625 C-461.8340625 381.76140625 -461.5040625 383.08140625 -461.1640625 384.44140625 C-460.5040625 384.44140625 -459.8440625 384.44140625 -459.1640625 384.44140625 C-457.8044684 377.53013626 -458.49940016 372.17865195 -460.1015625 365.44140625 C-464.39621536 346.53277377 -462.08544288 327.11813238 -457.1640625 308.44140625 C-456.5040625 307.78140625 -455.8440625 307.12140625 -455.1640625 306.44140625 C-454.8340625 319.31140625 -454.5040625 332.18140625 -454.1640625 345.44140625 C-453.5040625 341.15140625 -452.8440625 336.86140625 -452.1640625 332.44140625 C-451.1740625 332.11140625 -450.1840625 331.78140625 -449.1640625 331.44140625 C-448.8340625 328.47140625 -448.5040625 325.50140625 -448.1640625 322.44140625 C-448.8240625 322.44140625 -449.4840625 322.44140625 -450.1640625 322.44140625 C-457.13733018 308.4948709 -448.38041657 281.3323682 -444.1640625 267.50390625 C-443.9273584 266.71129395 -443.6906543 265.91868164 -443.44677734 265.10205078 C-441.70615319 259.8140936 -441.70615319 259.8140936 -438.9765625 257.9375 C-438.3784375 257.77378906 -437.7803125 257.61007812 -437.1640625 257.44140625 C-436.8340625 258.10140625 -436.5040625 258.76140625 -436.1640625 259.44140625 C-435.69226563 257.97380859 -435.69226563 257.97380859 -435.2109375 256.4765625 C-432.86871164 249.2734599 -430.41247083 242.29915716 -427.1640625 235.44140625 C-426.5040625 235.44140625 -425.8440625 235.44140625 -425.1640625 235.44140625 C-425.01710938 234.80976563 -424.87015625 234.178125 -424.71875 233.52734375 C-420.48320721 216.63385699 -412.40189124 202.58225412 -401.1640625 189.44140625 C-404.1340625 189.44140625 -407.1040625 189.44140625 -410.1640625 189.44140625 C-409.59339086 185.66471885 -408.55440109 183.04899283 -406.51171875 179.83203125 C-405.71797852 178.57712891 -405.71797852 178.57712891 -404.90820312 177.296875 C-404.35326172 176.43707031 -403.79832031 175.57726562 -403.2265625 174.69140625 C-402.67548828 173.81613281 -402.12441406 172.94085938 -401.55664062 172.0390625 C-397.43333363 165.57604181 -397.43333363 165.57604181 -395.1640625 164.44140625 C-394.47356122 163.23676549 -393.83735942 162.00085393 -393.2265625 160.75390625 C-390.74200629 156.13546693 -387.75467425 152.06537695 -384.5390625 147.94140625 C-384.05961182 147.31790283 -383.58016113 146.69439941 -383.08618164 146.05200195 C-379.53390484 141.56468703 -379.53390484 141.56468703 -376.1640625 140.44140625 C-375.8340625 141.76140625 -375.5040625 143.08140625 -375.1640625 144.44140625 C-370.16662158 140.7549823 -366.73003546 137.09297091 -363.7265625 131.62890625 C-359.48328869 123.96056837 -354.10011815 118.06310581 -347.6171875 112.2109375 C-346.68531616 111.36680298 -346.68531616 111.36680298 -345.73461914 110.50561523 C-344.51348843 109.41019148 -343.28141484 108.32679875 -342.03686523 107.25805664 C-338.29391761 103.9309336 -336.14678104 100.86209754 -334.07885742 96.31103516 C-318.85912063 65.20541884 -263.20021338 40.86102947 -233.1640625 28.44140625 C-229.43236484 27.17666545 -225.67042097 26.20842907 -221.80859375 25.41796875 C-218.98676986 24.63644187 -218.98676986 24.63644187 -217.30078125 22.08984375 C-200.59214771 1.37969102 -141.8480267 -3.14693891 -116.4140625 -6.15234375 C-78.5527472 -10.05918499 -36.92162713 -9.56503728 0 0 Z M-446.1640625 307.44140625 C-445.1640625 311.44140625 -445.1640625 311.44140625 -445.1640625 311.44140625 Z M-447.1640625 313.44140625 C-446.1640625 315.44140625 -446.1640625 315.44140625 -446.1640625 315.44140625 Z M-455.1640625 400.44140625 C-454.1640625 404.44140625 -454.1640625 404.44140625 -454.1640625 404.44140625 Z M-454.1640625 405.44140625 C-454.1640625 407.75140625 -454.1640625 410.06140625 -454.1640625 412.44140625 C-453.8340625 412.44140625 -453.5040625 412.44140625 -453.1640625 412.44140625 C-453.1640625 410.13140625 -453.1640625 407.82140625 -453.1640625 405.44140625 C-453.4940625 405.44140625 -453.8240625 405.44140625 -454.1640625 405.44140625 Z M-403.1640625 581.44140625 C-402.8340625 583.09140625 -402.5040625 584.74140625 -402.1640625 586.44140625 C-401.1740625 586.77140625 -400.1840625 587.10140625 -399.1640625 587.44140625 C-400.28260836 583.71526472 -400.28260836 583.71526472 -403.1640625 581.44140625 Z M-83.1640625 760.44140625 C-83.1640625 760.77140625 -83.1640625 761.10140625 -83.1640625 761.44140625 C-81.5140625 761.44140625 -79.8640625 761.44140625 -78.1640625 761.44140625 C-78.1640625 761.11140625 -78.1640625 760.78140625 -78.1640625 760.44140625 C-79.8140625 760.44140625 -81.4640625 760.44140625 -83.1640625 760.44140625 Z " fill="#353535" transform="translate(554.1640625,123.55859375)"/>
<path d="M0 0 C9.18077564 6.77100684 16.24494455 15.5043868 18 27 C18.72141185 36.03911873 19.27167572 45.75065053 15 54 C14.67128906 54.64582031 14.34257813 55.29164063 14.00390625 55.95703125 C7.48151451 67.39942783 -3.50568134 76.6550167 -12.74975586 85.89501953 C-14.1174766 87.26573818 -15.48499409 88.63665965 -16.85232544 90.00776672 C-20.53741117 93.70162237 -24.22567358 97.39228972 -27.91482615 101.08208323 C-30.22021661 103.38818702 -32.52489254 105.69500241 -34.82931709 108.00207138 C-42.86912518 116.05110249 -50.91148326 124.09757537 -58.95629883 132.14160156 C-66.45856994 139.64326943 -73.95521772 147.15052495 -81.4493131 154.6603595 C-87.89007879 161.11417062 -94.33466322 167.56415127 -100.78227526 174.01112258 C-104.63097863 177.85957052 -108.47809951 181.70956906 -112.32139397 185.56341934 C-115.92607829 189.17773666 -119.5354675 192.78728632 -123.14862442 196.39313316 C-124.47667941 197.72013701 -125.80301111 199.04886796 -127.12753105 200.37940025 C-128.92815492 202.18767108 -130.73475315 203.98974665 -132.54307556 205.79031372 C-133.07195261 206.32433434 -133.60082967 206.85835495 -134.1457333 207.40855801 C-137.77172643 211 -137.77172643 211 -140 211 C-140.25523437 211.58136719 -140.51046875 212.16273438 -140.7734375 212.76171875 C-142.12502724 215.22815481 -143.61692694 216.84842854 -145.625 218.8125 C-146.25664063 219.43769531 -146.88828125 220.06289063 -147.5390625 220.70703125 C-149.56229116 222.59216653 -151.61764799 224.40274038 -153.71197128 226.20688629 C-157.65620332 229.65347773 -161.3861715 233.26092108 -165.06939697 236.98278809 C-165.73338462 237.64944913 -166.39737226 238.31611018 -167.08148074 239.00297308 C-169.28361996 241.21509241 -171.48211031 243.43080201 -173.68066406 245.64648438 C-175.26800845 247.24230517 -176.85561618 248.83786406 -178.44346619 250.43318176 C-181.852209 253.85859293 -185.25956791 257.28537272 -188.66599274 260.71308899 C-194.05902918 266.13885023 -199.45811305 271.55856602 -204.85858154 276.97692871 C-205.77178453 277.89321816 -206.68498751 278.80950761 -207.62586331 279.7535634 C-209.49261614 281.62662364 -211.3593778 283.49967506 -213.22614813 285.37271786 C-218.01323444 290.1760511 -222.79962466 294.98007759 -227.58544922 299.78466797 C-228.06524769 300.26634349 -228.54504616 300.74801902 -229.03938398 301.24429077 C-236.81246569 309.04825629 -244.57812554 316.85957154 -252.34153202 324.67316049 C-260.33307749 332.71591945 -268.33442743 340.74881683 -276.34392905 348.77370119 C-280.83232145 353.27144743 -285.31604135 357.77363894 -289.78882599 362.28691101 C-293.99699125 366.53306136 -298.2168031 370.76728389 -302.44561958 374.99286461 C-303.98983479 376.5400375 -305.52979871 378.09146788 -307.06500816 379.64757729 C-318.8883635 391.62462105 -329.851603 402.02491198 -347.59594727 402.38061523 C-368.45085908 402.32923195 -380.2541881 389.86025345 -394.3828125 375.6796875 C-396.63433504 373.41552268 -398.88071254 371.14633483 -401.125 368.875 C-410.26639962 359.59297477 -410.26639962 359.59297477 -419.92138672 350.85595703 C-425.38745062 345.97540526 -430.43525769 340.61095193 -435.58203125 335.39746094 C-442.55792878 328.27673295 -442.55792878 328.27673295 -449.92578125 321.5703125 C-456.01828928 316.37065845 -461.54887397 310.55531206 -467.1875 304.875 C-468.36109203 303.69637945 -469.5349186 302.51799238 -470.70898438 301.33984375 C-473.34340617 298.69552747 -475.97571246 296.04913145 -478.60520935 293.3999176 C-479.98573571 292.01431672 -481.37515556 290.63759535 -482.76464844 289.26098633 C-490.99296785 280.93830546 -495.35775638 271.12737965 -495.4375 259.5 C-495.22911045 246.96666226 -491.51572827 236.98364412 -482.82421875 227.66796875 C-473.90258455 219.36268233 -464.32604314 215.59748387 -452.125 215.6875 C-451.32707031 215.69313965 -450.52914062 215.6987793 -449.70703125 215.70458984 C-443.99004089 215.82271915 -439.14751236 216.35559169 -434 219 C-433.21882813 219.37898437 -432.43765625 219.75796875 -431.6328125 220.1484375 C-425.37939631 223.51865869 -420.67313043 228.00855291 -415.8359375 233.12109375 C-413.79662091 235.25243727 -411.65849402 237.18403795 -409.4140625 239.09765625 C-403.07566861 244.57185951 -397.29787289 250.64641395 -391.41796875 256.60253906 C-384.38364182 263.77621092 -384.38364182 263.77621092 -376.953125 270.53125 C-373.63453788 273.35908432 -370.57968156 276.40340262 -367.546875 279.53125 C-367.07415161 280.01658203 -366.60142822 280.50191406 -366.11437988 281.00195312 C-364.1560428 283.01448131 -362.19974024 285.02842198 -360.26171875 287.06054688 C-358.8263595 288.5621826 -357.37584541 290.04765828 -355.921875 291.53125 C-355.07206055 292.41361328 -354.22224609 293.29597656 -353.34667969 294.20507812 C-351.24065703 296.22933177 -351.24065703 296.22933177 -349.11495972 295.85450745 C-346.37444051 294.74725512 -344.88571919 293.23141952 -342.81396484 291.12280273 C-341.99987152 290.30202744 -341.1857782 289.48125214 -340.34701538 288.63560486 C-339.47710968 287.74394119 -338.60720398 286.85227753 -337.7109375 285.93359375 C-336.8113028 285.02497086 -335.91166809 284.11634796 -334.98477173 283.18019104 C-332.59652341 280.76697796 -330.21442824 278.34804165 -327.83587646 275.92529297 C-324.47796106 272.5055083 -321.11451418 269.09127404 -317.74380493 265.68409729 C-315.94915027 263.86956152 -314.15945638 262.05010408 -312.37509155 260.22544861 C-311.56730255 259.40782547 -310.75951355 258.59020233 -309.92724609 257.74780273 C-309.21539154 257.02245834 -308.50353699 256.29711395 -307.77011108 255.54978943 C-306 254 -306 254 -304 254 C-303.60361328 253.09507812 -303.60361328 253.09507812 -303.19921875 252.171875 C-301.94244926 249.8957713 -300.84559838 248.83181567 -298.8125 247.25 C-295.28493548 244.37050579 -292.45060716 241.16020738 -289.578125 237.63671875 C-288 236 -288 236 -285 235 C-284.67 234.01 -284.34 233.02 -284 232 C-283.34 232 -282.68 232 -282 232 C-282 231.34 -282 230.68 -282 230 C-280.57484609 228.59500217 -280.57484609 228.59500217 -278.57750416 226.94667053 C-273.7242054 222.81537748 -269.24941686 218.37344627 -264.75993347 213.85327148 C-263.86247778 212.95384795 -262.96502208 212.05442442 -262.04037076 211.12774563 C-260.08268291 209.16571143 -258.12661419 207.20208237 -256.17180634 205.2371788 C-252.98991755 202.03886285 -249.80449089 198.84408488 -246.6186676 195.64968872 C-241.99348462 191.01141917 -237.36993102 186.37153072 -232.7472744 181.73074341 C-225.43457377 174.38975278 -218.11602911 167.05460331 -210.79646301 159.72045898 C-208.28843472 157.20730709 -205.7804317 154.69412998 -203.27242756 152.18095398 C-202.64575811 151.5529985 -202.01908867 150.92504302 -201.37342924 150.27805859 C-194.25035355 143.14026857 -187.12816491 136.00159386 -180.0065918 128.86230469 C-179.35606597 128.21016412 -178.70554015 127.55802356 -178.03530142 126.88612115 C-167.49204789 116.31632802 -156.95442228 105.74093877 -146.41840693 95.16393125 C-135.58525372 84.28899097 -124.74440992 73.42175805 -113.8968609 62.56117725 C-107.21481256 55.8705514 -100.53902719 49.17379892 -93.87125621 42.46894383 C-89.2993269 37.87267071 -84.72006522 33.28378775 -80.1350555 28.70056319 C-77.49362102 26.05970433 -74.85550497 23.41574638 -72.22618484 20.7628212 C-69.36865614 17.87979914 -66.49563893 15.01270788 -63.62101746 12.14672852 C-62.80250704 11.31588462 -61.98399663 10.48504072 -61.14068288 9.62901974 C-43.75045498 -7.59808781 -21.7771814 -13.30265034 0 0 Z " fill="#353535" transform="translate(729,304)"/>
<path d="M0 0 C3 1.6875 3 1.6875 5 5 C5.98585866 9.30856747 6.56875085 13.60383331 7 18 C3.5015272 20.3323152 0.84831361 21.38124209 -3.3125 21.875 C-7.99351096 22.62270511 -11.14191316 23.89511536 -14.953125 26.68359375 C-21.78313197 31.07617457 -29.40569556 32.37453724 -37.25 34 C-38.4875 34.26055176 -39.725 34.52110352 -41 34.78955078 C-66.13007153 40 -66.13007153 40 -75 40 C-72.65121225 32.74011058 -67.76854995 28.49332437 -61.625 24.3125 C-60.54476562 23.56613281 -59.46453125 22.81976562 -58.3515625 22.05078125 C-52.97847827 18.76305488 -48.46626511 16.52685865 -42 17 C-41.505 19.475 -41.505 19.475 -41 22 C-31.48484467 18.55400759 -31.48484467 18.55400759 -24 12 C-22.5114013 10.26100855 -21.01018621 8.53277758 -19.5 6.8125 C-18.7678125 5.95269531 -18.035625 5.09289062 -17.28125 4.20703125 C-12.38364745 -0.53123149 -6.52390772 -0.96571002 0 0 Z M-56 33 C-55.01 33.33 -54.02 33.66 -53 34 C-52.01 33.01 -51.02 32.02 -50 31 C-52.46278801 31 -53.85224119 31.85452863 -56 33 Z " fill="#70C738" transform="translate(670,865)"/>
<path d="M0 0 C1.77174819 0.08723378 3.54247377 0.19541655 5.3125 0.3125 C6.29863281 0.37050781 7.28476562 0.42851563 8.30078125 0.48828125 C11.24384457 1.04622813 12.18182999 1.68540132 14 4 C13.67 4.33 13.34 4.66 13 5 C14.010625 5.33 15.02125 5.66 16.0625 6 C20.82819455 8.03271461 24.25392457 11.65135168 27 16 C27 17.32 27 18.64 27 20 C19.592642 18.92381507 12.2835089 17.72469245 5 16 C3.31298772 15.62281196 1.62549269 15.24777599 -0.0625 14.875 C-1.375 14.58333333 -2.6875 14.29166667 -4 14 C-3.67 11.69 -3.34 9.38 -3 7 C-5.31 7 -7.62 7 -10 7 C-9.67 6.01 -9.34 5.02 -9 4 C-7.1875 3.33984375 -7.1875 3.33984375 -5 2.9375 C-2.85944703 2.57299127 -2.85944703 2.57299127 -1 2 C-0.67 1.34 -0.34 0.68 0 0 Z " fill="#6FC437" transform="translate(459,882)"/>
<path d="M0 0 C0.66 0.33 1.32 0.66 2 1 C-6.65962051 9.37096649 -13.1810199 14.75087469 -25 17.875 C-31.17892038 19.54390454 -35.24941759 21.81182911 -40 26 C-43 28 -43 28 -45.6875 27.625 C-46.8321875 27.315625 -46.8321875 27.315625 -48 27 C-39.52414429 21.34942953 -31.2902467 16.51766897 -21.90063477 12.58422852 C-14.09148294 9.27369343 -6.71866294 5.21167312 0 0 Z " fill="#3D4835" transform="translate(706,783)"/>
<path d="M0 0 C1.77174819 0.08723378 3.54247377 0.19541655 5.3125 0.3125 C6.29863281 0.37050781 7.28476562 0.42851563 8.30078125 0.48828125 C11.24384457 1.04622813 12.18182999 1.68540132 14 4 C13.67 4.33 13.34 4.66 13 5 C13.99 5.66 14.98 6.32 16 7 C7.42 7 -1.16 7 -10 7 C-9.67 6.01 -9.34 5.02 -9 4 C-7.1875 3.33984375 -7.1875 3.33984375 -5 2.9375 C-2.85944703 2.57299127 -2.85944703 2.57299127 -1 2 C-0.67 1.34 -0.34 0.68 0 0 Z " fill="#68B537" transform="translate(459,882)"/>
<path d="M0 0 C0.66 0 1.32 0 2 0 C3.19984797 2.26504965 4.38494769 4.53589888 5.5625 6.8125 C5.90474609 7.45509766 6.24699219 8.09769531 6.59960938 8.75976562 C7.4765023 10.46926395 8.24515617 12.23321294 9 14 C8.67 14.99 8.34 15.98 8 17 C5.64453125 16.796875 5.64453125 16.796875 3 16 C1.63671875 13.890625 1.63671875 13.890625 0.6875 11.25 C0.36136719 10.38890625 0.03523437 9.5278125 -0.30078125 8.640625 C-1.0126854 5.95209314 -1.20801892 3.76713544 -1 1 C-0.67 0.67 -0.34 0.34 0 0 Z " fill="#6EC337" transform="translate(180,591)"/>
<path d="M0 0 C1.35544922 0.2165625 1.35544922 0.2165625 2.73828125 0.4375 C4.50751953 0.7159375 4.50751953 0.7159375 6.3125 1 C8.07013672 1.2784375 8.07013672 1.2784375 9.86328125 1.5625 C14.72675225 2.28170143 14.72675225 2.28170143 19 0 C21.26171875 0.4609375 21.26171875 0.4609375 23.6875 1.375 C24.49574219 1.67148437 25.30398438 1.96796875 26.13671875 2.2734375 C27.05904297 2.63308594 27.05904297 2.63308594 28 3 C28 3.99 28 4.98 28 6 C24.89436872 6.99101043 22.94764104 6.95875336 19.8125 6.125 C16.62184033 5.33258288 13.5891301 4.82263786 10.3125 4.5625 C6.36312565 4.18834875 3.44589246 3.03219299 0 1 C0 0.67 0 0.34 0 0 Z " fill="#4D7136" transform="translate(395,825)"/>
<path d="M0 0 C0.66 2.31 1.32 4.62 2 7 C-2.29 7 -6.58 7 -11 7 C-11 6.01 -11 5.02 -11 4 C-4.5 0 -4.5 0 0 0 Z " fill="#70C738" transform="translate(536,900)"/>
<path d="M0 0 C0.66 0.33 1.32 0.66 2 1 C0.48187393 4.03625214 -1.8006108 4.22566137 -4.9375 5.375 C-10.01599689 7.25220017 -15.01237449 9.23794371 -19.9765625 11.3984375 C-22 12 -22 12 -25 11 C-18.35840081 6.22798483 -12.47434493 3.15987841 -4.43359375 1.5078125 C-2.0057726 1.10917016 -2.0057726 1.10917016 0 0 Z " fill="#65AE37" transform="translate(690,797)"/>
<path d="M0 0 C0.33 0.66 0.66 1.32 1 2 C-0.7325 2.309375 -0.7325 2.309375 -2.5 2.625 C-7.60414317 3.87610437 -10.99816532 6.73464487 -15 10 C-18 12 -18 12 -20.6875 11.625 C-21.450625 11.41875 -22.21375 11.2125 -23 11 C-19.91042712 8.94028475 -16.77809204 6.96003019 -13.625 5 C-12.77808594 4.46632813 -12.77808594 4.46632813 -11.9140625 3.921875 C-3.09652634 -1.54826317 -3.09652634 -1.54826317 0 0 Z " fill="#415435" transform="translate(681,799)"/>
<path d="M0 0 C-17.56730769 8.91346154 -17.56730769 8.91346154 -23 10 C-23 9.34 -23 8.68 -23 8 C-23.66 7.67 -24.32 7.34 -25 7 C-22.08588947 5.72507664 -19.35968831 4.85059394 -16.25 4.125 C-12.20846417 3.18171934 -8.68197551 1.5610603 -4.98046875 -0.29296875 C-3 -1 -3 -1 0 0 Z " fill="#425535" transform="translate(645,813)"/>
<path d="M0 0 C1.7015625 0.2784375 1.7015625 0.2784375 3.4375 0.5625 C4.283125 0.706875 5.12875 0.85125 6 1 C6 1.33 6 1.66 6 2 C-0.06696699 2.77040851 -5.88514973 3.09706112 -12 3 C-11.67 2.01 -11.34 1.02 -11 0 C-7.37688235 -1.67220815 -3.80158281 -0.65544531 0 0 Z " fill="#373A35" transform="translate(461,886)"/>
<path d="M0 0 C2.04159095 -0.0272616 4.08328963 -0.04651345 6.125 -0.0625 C7.26195312 -0.07410156 8.39890625 -0.08570313 9.5703125 -0.09765625 C12.8129156 -0.005327 15.81932612 0.38610094 19 1 C19 1.66 19 2.32 19 3 C12.29481414 3.19818283 6.34823202 3.30844801 0 1 C0 0.67 0 0.34 0 0 Z " fill="#353535" transform="translate(430,882)"/>
<path d="M0 0 C0.33 0 0.66 0 1 0 C1 5.61 1 11.22 1 17 C1.99 17 2.98 17 4 17 C4 19.97 4 22.94 4 26 C3.67 26 3.34 26 3 26 C2.67 24.02 2.34 22.04 2 20 C1.34 21.32 0.68 22.64 0 24 C0 16.08 0 8.16 0 0 Z " fill="#476336" transform="translate(837,459)"/>
<path d="M0 0 C0 1.32 0 2.64 0 4 C-3.68754757 3.50168276 -5.60490662 2.89932357 -8 0 C-4.71023192 -1.09658936 -3.28696233 -0.79953138 0 0 Z " fill="#64AA37" transform="translate(428,829)"/>
<path d="M0 0 C-1 2 -1 2 -2.625 2.625 C-5.7660575 3.12095645 -8.82601831 3.06103811 -12 3 C-3.7826087 -1.26086957 -3.7826087 -1.26086957 0 0 Z " fill="#5F9D37" transform="translate(636,819)"/>
<path d="M0 0 C0.33 0.99 0.66 1.98 1 3 C0.67 3.66 0.34 4.32 0 5 C-2.9375 5.75 -2.9375 5.75 -6 6 C-6.66 5.34 -7.32 4.68 -8 4 C-5.36 2.68 -2.72 1.36 0 0 Z " fill="#476135" transform="translate(666,805)"/>
<path d="M0 0 C-3.20336822 2.83374881 -5.78087253 3.5205537 -10 4 C-6.87839899 0.56623888 -4.64008112 -1.54669371 0 0 Z " fill="#69B737" transform="translate(645,815)"/>
<path d="M0 0 C1.98 0 3.96 0 6 0 C6 0.99 6 1.98 6 3 C4.1875 3.625 4.1875 3.625 2 4 C1.01 3.34 0.02 2.68 -1 2 C-0.67 1.34 -0.34 0.68 0 0 Z " fill="#517B36" transform="translate(417,828)"/>
<path d="M0 0 C1.65 0 3.3 0 5 0 C5 0.66 5 1.32 5 2 C3.35 2 1.7 2 0 2 C0 1.34 0 0.68 0 0 Z " fill="#70C738" transform="translate(661,857)"/>
<path d="M0 0 C0.66 0.33 1.32 0.66 2 1 C2 1.66 2 2.32 2 3 C1.01 3 0.02 3 -1 3 C-0.67 2.01 -0.34 1.02 0 0 Z " fill="#70C738" transform="translate(783,825)"/>
</svg>
