<svg width="32" height="32" viewBox="0 0 32 32" fill="none" xmlns="http://www.w3.org/2000/svg">
<path d="M26.4338 29.6559V29.0953C26.4337 28.9959 26.3941 28.9005 26.3238 28.8302C26.2535 28.7599 26.1582 28.7204 26.0588 28.7203H18C17.9507 28.7203 17.902 28.7106 17.8565 28.6918C17.811 28.673 17.7696 28.6453 17.7348 28.6105C17.7 28.5757 17.6724 28.5343 17.6535 28.4888C17.6347 28.4433 17.625 28.3946 17.625 28.3453V24.5216C17.625 24.4723 17.6347 24.4235 17.6535 24.378C17.6724 24.3325 17.7 24.2912 17.7348 24.2564C17.7696 24.2215 17.811 24.1939 17.8565 24.1751C17.902 24.1562 17.9507 24.1465 18 24.1466H26.0588C26.1582 24.1465 26.2535 24.1069 26.3238 24.0366C26.3941 23.9663 26.4337 23.871 26.4338 23.7716V23.2109L29.6562 26.4334L26.4338 29.6559Z" fill="#33A083"/>
<path d="M31.2661 26.6986L27.0736 30.8911C27.0211 30.9435 26.9543 30.9791 26.8815 30.9936C26.8088 31.008 26.7333 31.0005 26.6648 30.9721C26.5963 30.9436 26.5378 30.8955 26.4966 30.8338C26.4555 30.7721 26.4335 30.6996 26.4336 30.6254V29.6561L29.6561 26.4336L26.4336 23.2111V22.2411C26.4336 22.1669 26.4556 22.0944 26.4968 22.0328C26.538 21.9711 26.5965 21.9231 26.6651 21.8947C26.7336 21.8664 26.8089 21.8589 26.8817 21.8734C26.9544 21.8879 27.0212 21.9236 27.0736 21.9761L31.2661 26.1686C31.3363 26.2389 31.3758 26.3342 31.3758 26.4336C31.3758 26.5329 31.3363 26.6282 31.2661 26.6986Z" fill="#33A083"/>
<path d="M31.2661 26.6986L27.0736 30.8911C27.0211 30.9435 26.9543 30.9791 26.8815 30.9936C26.8088 31.008 26.7333 31.0005 26.6648 30.9721C26.5963 30.9436 26.5378 30.8955 26.4966 30.8338C26.4555 30.7721 26.4335 30.6996 26.4336 30.6254V29.6561L29.6561 26.4336L26.4336 23.2111V22.2411C26.4336 22.1669 26.4556 22.0944 26.4968 22.0328C26.538 21.9711 26.5965 21.9231 26.6651 21.8947C26.7336 21.8664 26.8089 21.8589 26.8817 21.8734C26.9544 21.8879 27.0212 21.9236 27.0736 21.9761L31.2661 26.1686C31.3363 26.2389 31.3758 26.3342 31.3758 26.4336C31.3758 26.5329 31.3363 26.6282 31.2661 26.6986Z" fill="#33A083"/>
<path d="M14.0624 7.85313H5.94116C5.84171 7.85313 5.74632 7.89264 5.676 7.96297C5.60567 8.03329 5.56616 8.12867 5.56616 8.22813V9.75832C5.56616 9.83248 5.54417 9.90497 5.50296 9.96664C5.46176 10.0283 5.4032 10.0764 5.33469 10.1047C5.26617 10.1331 5.19078 10.1406 5.11804 10.1261C5.0453 10.1116 4.97849 10.0759 4.92604 10.0235L0.73385 5.83132C0.663529 5.76099 0.624023 5.66561 0.624023 5.56616C0.624023 5.46671 0.663529 5.37133 0.73385 5.30101L4.92604 1.10882C4.97848 1.05639 5.04529 1.02069 5.11803 1.00622C5.19076 0.991762 5.26615 0.999188 5.33466 1.02756C5.40317 1.05594 5.46173 1.10399 5.50294 1.16565C5.54414 1.2273 5.56615 1.29979 5.56616 1.37394V2.90413C5.56616 3.00359 5.60567 3.09897 5.676 3.1693C5.74632 3.23962 5.84171 3.27913 5.94116 3.27913H14.0624C14.1619 3.27913 14.2573 3.31864 14.3276 3.38897C14.3979 3.45929 14.4374 3.55467 14.4374 3.65413V7.47813C14.4374 7.57759 14.3979 7.67297 14.3276 7.7433C14.2573 7.81362 14.1619 7.85313 14.0624 7.85313Z" fill="#33A083"/>
<path d="M16 25.6875C21.3503 25.6875 25.6875 21.3503 25.6875 16C25.6875 10.6497 21.3503 6.3125 16 6.3125C10.6497 6.3125 6.3125 10.6497 6.3125 16C6.3125 21.3503 10.6497 25.6875 16 25.6875Z" fill="#33A083"/>
<path d="M16 6.3125C15.5294 6.31255 15.0594 6.34662 14.5938 6.41444C16.8948 6.75216 18.9976 7.90637 20.5181 9.66626C22.0385 11.4262 22.8752 13.6743 22.8752 16C22.8752 18.3257 22.0385 20.5738 20.5181 22.3337C18.9976 24.0936 16.8948 25.2478 14.5938 25.5856C15.9112 25.7788 17.2544 25.6984 18.5395 25.3493C19.8245 25.0002 21.0237 24.3899 22.0624 23.5566C23.101 22.7233 23.9567 21.6848 24.576 20.506C25.1953 19.3272 25.5649 18.0334 25.6618 16.7053C25.7587 15.3772 25.5808 14.0435 25.1392 12.7872C24.6975 11.531 24.0017 10.3793 23.095 9.40407C22.1883 8.42881 21.0904 7.65094 19.8696 7.11902C18.6489 6.58709 17.3316 6.31254 16 6.3125Z" fill="#33A083"/>
<path d="M16 26.1562C10.3998 26.1562 5.84375 21.6002 5.84375 16C5.84375 10.3998 10.3998 5.84375 16 5.84375C21.6002 5.84375 26.1562 10.3998 26.1562 16C26.1562 21.6002 21.6002 26.1562 16 26.1562ZM16 6.78125C10.9167 6.78125 6.78125 10.9167 6.78125 16C6.78125 21.0833 10.9167 25.2188 16 25.2188C21.0833 25.2188 25.2188 21.0833 25.2188 16C25.2188 10.9167 21.0833 6.78125 16 6.78125Z" fill="#F9F9F9"/>
<path d="M21.1607 16.2144L16.0778 21.0822C16.0357 21.1224 15.9828 21.1494 15.9255 21.1598C15.8682 21.1703 15.8092 21.1636 15.7556 21.1408C15.7021 21.1179 15.6565 21.0798 15.6244 21.0313C15.5923 20.9827 15.5752 20.9258 15.5752 20.8676V11.1321C15.5752 11.0738 15.5923 11.0169 15.6244 10.9683C15.6565 10.9198 15.7021 10.8817 15.7556 10.8588C15.8092 10.836 15.8682 10.8293 15.9255 10.8398C15.9828 10.8502 16.0357 10.8772 16.0778 10.9174L21.1607 15.7852C21.1896 15.813 21.2127 15.8463 21.2284 15.8832C21.2442 15.92 21.2523 15.9597 21.2523 15.9998C21.2523 16.0399 21.2442 16.0796 21.2284 16.1164C21.2127 16.1533 21.1896 16.1866 21.1607 16.2144Z" fill="#33A083"/>
<path d="M21.1607 15.7852L16.0778 10.9174C16.0357 10.8772 15.9828 10.8502 15.9255 10.8398C15.8682 10.8293 15.8092 10.836 15.7556 10.8588C15.7021 10.8817 15.6565 10.9198 15.6244 10.9683C15.5923 11.0169 15.5752 11.0738 15.5752 11.1321V11.3339L20.2232 15.7852C20.2522 15.8129 20.2752 15.8462 20.291 15.8831C20.3067 15.92 20.3148 15.9597 20.3148 15.9998C20.3148 16.0399 20.3067 16.0796 20.291 16.1164C20.2752 16.1533 20.2522 16.1866 20.2232 16.2144L15.5752 20.6656V20.8676C15.5752 20.9258 15.5923 20.9827 15.6244 21.0313C15.6565 21.0798 15.7021 21.1179 15.7556 21.1408C15.8092 21.1636 15.8682 21.1703 15.9255 21.1598C15.9828 21.1494 16.0357 21.1224 16.0778 21.0822L21.1607 16.2144C21.1896 16.1866 21.2127 16.1533 21.2284 16.1164C21.2442 16.0796 21.2523 16.0399 21.2523 15.9998C21.2523 15.9597 21.2442 15.92 21.2284 15.8832C21.2127 15.8463 21.1896 15.813 21.1607 15.7852Z" fill="#33A083"/>
<path d="M18.2076 16.2144L13.1247 21.0822C13.0826 21.1225 13.0297 21.1495 12.9724 21.16C12.9151 21.1704 12.8561 21.1638 12.8025 21.1409C12.749 21.118 12.7033 21.0799 12.6712 21.0314C12.6392 20.9828 12.6221 20.9258 12.6221 20.8676V11.1321C12.6221 11.0739 12.6392 11.017 12.6712 10.9684C12.7033 10.9198 12.749 10.8817 12.8025 10.8588C12.8561 10.836 12.9151 10.8293 12.9724 10.8398C13.0297 10.8502 13.0826 10.8772 13.1247 10.9175L18.2076 15.7853C18.2366 15.813 18.2596 15.8463 18.2754 15.8832C18.2911 15.9201 18.2992 15.9598 18.2992 15.9999C18.2992 16.04 18.2911 16.0796 18.2754 16.1165C18.2596 16.1534 18.2366 16.1867 18.2076 16.2144Z" fill="#F9F9F9"/>
<path d="M18.2076 15.7853L13.1247 10.9175C13.0826 10.8772 13.0297 10.8502 12.9724 10.8398C12.9151 10.8293 12.8561 10.836 12.8025 10.8588C12.749 10.8817 12.7033 10.9198 12.6712 10.9684C12.6392 11.017 12.6221 11.0739 12.6221 11.1321V11.334L17.2701 15.7852C17.299 15.813 17.3221 15.8463 17.3378 15.8832C17.3536 15.92 17.3617 15.9597 17.3617 15.9998C17.3617 16.0399 17.3536 16.0796 17.3378 16.1165C17.3221 16.1534 17.299 16.1867 17.2701 16.2144L12.6221 20.6657V20.8676C12.6221 20.9258 12.6392 20.9828 12.6712 21.0314C12.7033 21.0799 12.749 21.118 12.8025 21.1409C12.8561 21.1638 12.9151 21.1704 12.9724 21.16C13.0297 21.1495 13.0826 21.1225 13.1247 21.0822L18.2076 16.2144C18.2365 16.1867 18.2596 16.1534 18.2753 16.1165C18.2911 16.0796 18.2992 16.04 18.2992 15.9999C18.2992 15.9598 18.2911 15.9201 18.2753 15.8832C18.2596 15.8463 18.2365 15.813 18.2076 15.7853Z" fill="#33A083"/>
</svg>
