<svg width="29" height="29" viewBox="0 0 29 29" fill="none" xmlns="http://www.w3.org/2000/svg">
<path d="M19.5227 21.6607C17.0909 23.5483 14.0312 24.4382 10.9664 24.1493C7.90161 23.8604 5.06209 22.4144 3.02584 20.1057C0.989594 17.797 -0.0903198 14.7991 0.0059215 11.7222C0.102163 8.64537 1.36732 5.72081 3.54388 3.54388C5.72081 1.36732 8.64537 0.102163 11.7222 0.0059215C14.7991 -0.0903198 17.797 0.989594 20.1057 3.02584C22.4144 5.06209 23.8604 7.90161 24.1493 10.9664C24.4382 14.0312 23.5483 17.0909 21.6607 19.5227L27.7924 25.6544C27.9916 25.8393 28.1371 26.0745 28.2138 26.3352C28.2905 26.5959 28.2954 26.8724 28.2281 27.1357C28.1608 27.399 28.0237 27.6392 27.8313 27.8311C27.6389 28.023 27.3983 28.1595 27.1349 28.2261C26.8719 28.2935 26.5956 28.2888 26.3351 28.2125C26.0746 28.1362 25.8394 27.9911 25.6544 27.7924L19.5227 21.6607ZM21.1766 12.1001C21.1946 10.8971 20.9731 9.70262 20.5252 8.58605C20.0772 7.46948 19.4118 6.45312 18.5674 5.5961C17.7231 4.73908 16.7168 4.05851 15.607 3.59398C14.4972 3.12944 13.3062 2.89022 12.1031 2.89022C10.9 2.89022 9.70895 3.12944 8.59918 3.59398C7.48941 4.05851 6.48309 4.73908 5.63875 5.5961C4.79442 6.45312 4.12892 7.46948 3.68098 8.58605C3.23304 9.70262 3.0116 10.8971 3.02954 12.1001C3.06507 14.4831 4.03666 16.7565 5.73442 18.4291C7.43217 20.1017 9.71979 21.0393 12.1031 21.0393C14.4864 21.0393 16.774 20.1017 18.4718 18.4291C20.1695 16.7565 21.1411 14.4831 21.1766 12.1001Z" fill="#9E9E9E"/>
</svg>
